<svg xmlns="http://www.w3.org/2000/svg" xml:space="preserve" id="Layer_1" x="0" y="0" style="enable-background:new 0 0 407 181.2" version="1.1" viewBox="0 0 407 181.2"><style>.st0{fill:#ff005b}</style><path d="m250.3 99.4-7.9 13.2h-12.3l13.6-22.1-12.2-19.7h11.7l6.9 11.6 6.9-11.6h11.8l-12.4 19.7 13.5 22.1H258l-7.7-13.2z"/><path d="M268.8 101.3h11c.7 2.8 2.8 4.2 6.2 4.2 3.3 0 4.8-1.1 4.8-3 0-2.4-3.7-2.6-7.9-3.1-5.9-.8-12.7-2.1-12.7-10.1 0-6.6 5.2-11.2 14.8-11.2 10.1 0 14.7 4.5 15.8 11.4h-10.4c-.5-2.4-2.2-3.6-5.4-3.6-3.3 0-4.4 1.2-4.4 2.8 0 2.1 2.8 2.5 7.9 3.1 5.9.8 12.9 2.2 12.9 10.1 0 6.8-5.1 11.8-15.6 11.8-10.4-.2-15.9-4.6-17-12.4zm35.5-4.8v-1.1c0-11.5 7.1-17.4 17.1-17.4 10.1 0 17 6.1 17 17.4v1c0 11.3-6.8 17-17.1 17-11 .1-17-5.7-17-16.9zm23.5-.1v-1c0-5.6-2.4-8.4-6.4-8.4s-6.6 2.7-6.6 8.4v.9c0 5.2 2.6 7.9 6.5 7.9 4 .1 6.5-2.5 6.5-7.8zm15.2 16.2v-45h10.8v44.9l-10.8.1zm16.6 0v-45h10.8v44.9l-10.8.1zm37.5-5.6c-1.9 3.8-5.6 6.5-11.9 6.5-7.4 0-10.9-3.5-10.9-9.1 0-4.1 1.7-6.7 4.4-8.4 2.7-1.7 5.1-2.2 10.6-3 5.1-.7 7.2-1.3 7.2-3.4 0-1.9-1.1-3.3-4.8-3.3-3.7 0-5.6 1.8-5.7 4.9h-10.8c.5-7.9 5.9-13.1 16.5-13.1C403 78 407 83.2 407 91v21.6h-8.8l-1.1-5.6zm-.5-8v-2.1c-1 .8-2.5 1.1-4.5 1.6-2.9.5-4 .8-5.1 1.5-.9.7-1.4 1.5-1.4 2.7 0 2 1.3 3 3.9 3 4.3 0 7.1-3.4 7.1-6.7z"/><path d="M181.2 0H0v181.2h181.2V0z" class="st0"/><path d="M181.2 0H0v181.2h181.2V0z" class="st0"/><path d="M134 94.6c-3.3 0-6 2.7-6 6s2.7 5.9 6 5.9 5.9-2.7 5.9-5.9c0-3.3-2.7-6-5.9-6zm0 18.4c-6.9 0-12.5-5.6-12.5-12.4 0-6.9 5.6-12.4 12.5-12.4 6.8 0 12.4 5.6 12.4 12.4 0 6.9-5.6 12.4-12.4 12.4zm-44.8 32.2h-6.5v-22.3h6.5v22.3zm9.4 0h-6.5v-22.3h6.5v22.3zm20.6-98.3 6.3-6.3-4.6-4.6-6.3 6.3-4.6 4.6 8.2 8.2-6.3 6.3 4.6 4.6 11-11-8.3-8.1zm-72.4 53.6 3 5.3h-6.2l3.2-5.3zm0-12.4L33 111.9h27.5L46.8 88.1zM75.4 43l-4.6-4.6-7.9 7.9-7.9-7.9-4.6 4.6 7.9 7.9-7.9 7.9 4.6 4.6 7.9-7.9 7.9 7.9 4.6-4.6-7.9-7.9 7.9-7.9z" style="fill:#f6faff"/></svg>