<svg xmlns="http://www.w3.org/2000/svg" width="131" height="42" fill="none" viewBox="0 0 131 42"><path fill="#fff" d="M37.405 32.773a20.106 20.106 0 0 0 3.798-11.636C41.284 9.97 32.298.871 21.147.791 9.98.71.881 9.695.801 20.846a20.133 20.133 0 0 0 3.733 11.847 18.99 18.99 0 0 0 1.94 2.327 20.17 20.17 0 0 0 14.382 6.173c6.335.049 11.992-2.828 15.725-7.353.291-.356.566-.711.824-1.067Z"/><path fill="#FF7800" d="M18.125 5.817c2.586-1.778 6.141-.808 7.483 2.02l11.781 24.92a20.106 20.106 0 0 0 3.798-11.636c.097-11.15-8.889-20.25-20.04-20.33C9.98.71.882 9.695.801 20.846a20.133 20.133 0 0 0 3.733 11.847l.469-.097 7.692-1.697c.21-.049.34.242.146.355l-6.368 3.782a20.17 20.17 0 0 0 14.384 6.173c6.335.049 11.991-2.828 15.724-7.353L17.317 13.542a5.105 5.105 0 0 1 .808-7.725Zm3.62 22.916L9.334 29.816a2.198 2.198 0 0 1-2.376-2.344 2.19 2.19 0 0 1 2.683-1.971l12.12 2.86c.227.033.21.356-.016.372Zm-5.737-10.909 15.046 12.17c.178.145.016.42-.194.339l-18.1-6.869c-1.89-.727-2.699-2.973-1.697-4.719a3.309 3.309 0 0 1 4.945-.92Z"/><path fill="#04121A" d="M129.168 18.794c.889 0 1.6-.727 1.6-1.6v-1.988h-5.01v-4.38h-2.764c-.889 0-1.6.728-1.6 1.6v2.764h-.808c-.889 0-1.6.727-1.6 1.6v1.988h2.424v6.416c0 1.034.017 1.972.033 2.796.016.824.242 1.632.678 2.424.469.84 1.164 1.454 2.069 1.842.905.388 1.939.582 3.087.614a16.47 16.47 0 0 0 3.523-.29v-1.892c0-.905-.76-1.632-1.665-1.6-.404.017-.775 0-1.147-.016-.84-.048-1.471-.388-1.842-1.002-.211-.323-.307-.76-.324-1.293-.016-.533-.016-1.147-.016-1.826v-6.157h3.362ZM60.742 9.453h-4.638l-8.34 23.126h3.54a1.59 1.59 0 0 0 1.503-1.05l1.406-3.766h10.31l1.407 3.766c.226.63.84 1.05 1.502 1.05h3.54l-7.71-21.365a2.669 2.669 0 0 0-2.52-1.761Zm-5.058 14.335 3.684-9.923 3.685 9.923h-7.37Zm38.317-9.018c-3.668 0-6.044 1.632-7.272 4.832l2.634.921c.63.227 1.341.033 1.778-.5.566-.695 1.212-1.293 2.812-1.293 2.004 0 2.812.71 2.974 2.601l-5.366.922c-4.961.808-5.56 3.862-5.56 5.527 0 1.664 1.261 5.268 6.045 5.268 2.424 0 4.17-.872 5.3-1.971.065.84.76 1.486 1.6 1.486h2.247v-11.2c0-4.638-2.957-6.593-7.192-6.593Zm-1.228 14.852c-1.68 0-2.489-.566-2.489-1.632 0-1.067.792-2.198 3.459-2.667 1.47-.259 2.65-.469 3.426-.614v1.099c0 2.23-2.246 3.814-4.396 3.814Zm-9.987-14.4a1.59 1.59 0 0 0-1.503 1.05l-3.944 10.7-3.943-10.7a1.606 1.606 0 0 0-1.503-1.05h-3.361l6.626 17.357h4.363l6.626-17.357h-3.361Zm35.295 12.331a5.106 5.106 0 0 0-2.246-4.234l-.145-.097h-.017c-.032-.016-.048-.032-.08-.049-.162-.096-.324-.193-.501-.274-.631-.307-1.325-.566-1.325-.566-.275-.113-.582-.21-.889-.323-2.974-.986-4.396-1.245-4.396-2.23 0-.873 1.05-1.326 2.165-1.326.711 0 1.713.227 2.538 1.229l.016.016c.016.016.032.048.048.064 0 .017.016.017.016.033.291.29.695.485 1.132.485.178 0 .355-.033.517-.081h.016l2.424-.84c-.824-2.796-3.41-4.607-6.868-4.607-1.342 0-2.441.21-3.313.566a4.672 4.672 0 0 0-3.038 4.38 4.706 4.706 0 0 0 2.747 4.266c.792.404 1.729.76 2.844 1.083 3.119.921 3.863 1.535 3.863 2.634 0 .13-.016.259-.049.372-.064.226-.177.42-.323.582-.436.452-1.244.679-2.311.679-1.325 0-2.521-.55-3.345-1.924a1.6 1.6 0 0 0-1.891-.678l-2.424.856c1.002 2.925 3.022 5.495 7.644 5.495 2.101 0 3.765-.469 4.961-1.277v-.016a5.123 5.123 0 0 0 2.23-4.218Z"/></svg>