<svg xmlns="http://www.w3.org/2000/svg" width="83" height="48" fill="none" viewBox="0 0 83 48"><g clip-path="url(#a)"><path fill="#E9001A" d="M82.103 3.686v35.231a3.688 3.688 0 0 1-3.686 3.693h-65.99v-3.68H78.43V3.674H3.873v30.514l8.555 8.605V48L1.701 37.21A5.153 5.153 0 0 1 .2 33.574V4.4A4.396 4.396 0 0 1 4.597 0h73.82a3.686 3.686 0 0 1 3.686 3.686Z"/><path fill="#000" d="M46.582 34.127h-2.557v-7.513l-2.608 3.92a1.598 1.598 0 0 1-2.235.441 1.62 1.62 0 0 1-.437-.442l-2.608-3.919v7.513h-2.556V23.821c0-1.931 2.322-2.187 3.324-.681l3.176 4.77 3.177-4.77c1.002-1.506 3.324-1.25 3.324.68v10.307ZM20.038 22.23v10.375a1.64 1.64 0 0 1-2.99.949l-4.723-6.882v7.455h-2.56V23.86a1.683 1.683 0 0 1 3.068-.974l4.65 6.766V22.23h2.555Zm46.299 12.105a6.044 6.044 0 0 1-6.559-6.069 6.298 6.298 0 0 1 6.474-6.208c3.75 0 6.547 2.241 6.547 6.302a6.042 6.042 0 0 1-6.463 5.975Zm3.675-6.061a3.74 3.74 0 0 0-3.507-4.033 4 4 0 0 0-.195 7.986 3.713 3.713 0 0 0 3.697-3.953h.005Zm-15.249 3.953a4 4 0 0 1 .193-7.986 3.592 3.592 0 0 1 2.793 1.535l1.59-2.127a6.828 6.828 0 0 0-4.64-1.59 6.298 6.298 0 0 0-6.474 6.207 6.044 6.044 0 0 0 6.56 6.069 6.661 6.661 0 0 0 4.487-1.566l-1.554-2.04a3.503 3.503 0 0 1-2.956 1.498ZM28.487 23.13a1.814 1.814 0 0 0-3.367 0l-4.494 10.904h2.768l1.075-2.607h4.67l1.073 2.607h2.765l-4.49-10.903ZM25.3 29.408l1.5-3.641 1.5 3.641h-3Zm47.168-21.62H69.88v11.897h2.587V7.788Zm-28.138 0v10.375a1.66 1.66 0 0 1-3.025.948l-4.78-6.881v7.455h-2.591V9.418a1.705 1.705 0 0 1 3.105-.974l4.705 6.766V7.788h2.585Zm20.273.901a1.844 1.844 0 0 0-3.407 0l-4.547 10.903h2.802l1.092-2.6h4.724l1.086 2.608h2.802L64.603 8.689Zm-3.22 6.273 1.515-3.641 1.518 3.641h-3.034ZM50.916 7.788h-3.2a1.025 1.025 0 0 0-1.024 1.025v9.847a1.024 1.024 0 0 0 1.023 1.025h3.546a5.949 5.949 0 0 0 5.859-6.123 5.953 5.953 0 0 0-6.204-5.774Zm0 9.812h-1.643V9.996h1.643a3.388 3.388 0 0 1 3.448 3.828 3.64 3.64 0 0 1-3.448 3.776Zm-31.027-6.88a3.186 3.186 0 0 0-3.413-2.932h-5.613a1.025 1.025 0 0 0-1.025 1.025v9.847a1.024 1.024 0 0 0 1.025 1.024h6.648a3.03 3.03 0 0 0 3.053-3.18 2.975 2.975 0 0 0-2.582-2.928 2.68 2.68 0 0 0 1.907-2.856Zm-4.2-.723c1.016 0 1.494.488 1.494 1.265a1.394 1.394 0 0 1-1.494 1.453h-3.265v-2.72l3.265.002Zm2.116 6.145c0 .687-.41 1.457-1.674 1.457h-3.707v-2.913h3.79c1.21 0 1.591.7 1.591 1.456ZM28.74 8.689a1.844 1.844 0 0 0-3.407 0l-4.546 10.903h2.802l1.086-2.608h4.724l1.086 2.608h2.802L28.74 8.69Zm-3.221 6.273 1.517-3.641 1.518 3.641h-3.035Z"/></g><defs><clipPath id="a"><path fill="#fff" d="M.2 0h81.903v48H.2z"/></clipPath></defs></svg>