<svg xmlns="http://www.w3.org/2000/svg" width="148" height="32" fill="none" viewBox="0 0 148 32"><g clip-path="url(#a)"><path fill="#D437FD" d="M6.538 28.41a1.9 1.9 0 0 1-.292-.148c-.19-.12-2.83-2.741-3.005-2.984a1.01 1.01 0 0 1-.238-.867 1.19 1.19 0 0 1 .402-.604 23.727 23.727 0 0 1 2.768-1.838 18.803 18.803 0 0 1 3.655-2.171c.226-.058.465-.044.682.042.404.308.766.67 1.075 1.074.079.201.097.421.053.633a16.19 16.19 0 0 1-2.12 3.588c-.54.842-1.095 1.71-1.232 1.93-.537.861-.784 1.16-1.078 1.304a.915.915 0 0 1-.67.041Zm13.916-16.23a2.21 2.21 0 0 1-.763-.616 2.506 2.506 0 0 1-.4-.482 1.005 1.005 0 0 1-.072-.607c.092-.429.275-.742 2.064-3.527.602-.937 1.231-1.923 1.399-2.19.168-.269.38-.582.471-.697a1.02 1.02 0 0 1 1.657-.193c.11.089.769.735 1.465 1.435 1.296 1.303 1.442 1.469 1.557 1.777a.886.886 0 0 1-.026.662c-.156.319-.446.569-1.258 1.083-.261.165-1.144.73-1.963 1.257-2.217 1.425-2.882 1.836-3.222 1.99-.279.15-.603.188-.909.109Z"/><path fill="#01F0E5" d="M13.462 31.2a.97.97 0 0 1-.947-.866 5.627 5.627 0 0 1 .254-1.726c.123-.556.32-1.46.44-2.01.763-3.538.865-3.887 1.23-4.218.226-.203.325-.225 1.04-.225.25-.013.498-.001.744.037.203.074.376.21.494.39.247.37.341.735 1.107 4.27.184.848.388 1.77.452 2.049.065.278.137.607.16.731.051.291.056.588.014.88a.863.863 0 0 1-.499.577c-.288.132-.406.138-2.441.136-1.04-.002-1.96-.013-2.048-.026ZM9.935 12.212c-.426-.081-.784-.29-3.566-2.08a328.528 328.528 0 0 0-1.955-1.25c-.945-.592-1.21-.811-1.37-1.13a.964.964 0 0 1 .13-.992c.112-.164 2.697-2.765 2.916-2.932a.967.967 0 0 1 1.288-.092c.327.292.602.637.813 1.02.16.254.73 1.144 1.266 1.978a19.593 19.593 0 0 1 2.155 3.603c.08.24.068.502-.034.735a5.79 5.79 0 0 1-1.098 1.08 1.187 1.187 0 0 1-.545.06Z"/><path fill="#F8005B" d="M23.672 28.354c-.33-.165-.551-.425-1.099-1.29a520.54 520.54 0 0 0-1.306-2.04c-1.017-1.581-1.467-2.296-1.713-2.723-.373-.646-.446-1.057-.254-1.417a5.182 5.182 0 0 1 1.052-1.046 1.08 1.08 0 0 1 .737-.025 19.575 19.575 0 0 1 3.547 2.128c.834.536 1.725 1.105 1.98 1.264.253.159.553.356.664.44.677.502.794 1.011.369 1.601-.152.21-2.805 2.856-2.986 2.978a.964.964 0 0 1-.99.13ZM.912 18.952c-.4-.108-.618-.41-.691-.961-.019-.14-.025-.866-.018-2.13.01-2.117.005-2.049.186-2.39a.841.841 0 0 1 .698-.445c.381-.024.764.016 1.131.12l2.315.506c2.158.47 3.192.706 3.531.802.663.19.981.393 1.136.728.052.113.056.166.056.813v.692l-.073.15a1.42 1.42 0 0 1-.925.645c-.426.13-1.226.312-3.672.841-.753.164-1.675.367-2.049.452-.373.085-.764.168-.87.184-.25.038-.505.036-.755-.007ZM14.72 9.8c-.378-.139-.581-.4-.763-.984-.107-.34-.37-1.486-.79-3.424-.185-.856-.412-1.892-.505-2.302a4.85 4.85 0 0 1-.21-1.406.918.918 0 0 1 .757-.86c.729-.08 1.463-.096 2.194-.048 2.196 0 2.189 0 2.505.149a.915.915 0 0 1 .453.483c.046.167.062.34.047.512.005.27-.028.538-.098.798a631.41 631.41 0 0 0-.509 2.315 21.05 21.05 0 0 1-1.05 4.228 1.15 1.15 0 0 1-.47.496c-.13.064-.152.066-.798.072-.255.02-.51.01-.763-.03Z"/><path fill="#090A08" d="M45.205 29.722a9.581 9.581 0 0 1-3.87-.914 5.957 5.957 0 0 1-2.398-2.123 9.611 9.611 0 0 1-1.382-5.207c-.035-.728-.036-10.242 0-10.951a11.061 11.061 0 0 1 .902-4.404c1.158-2.413 3.3-3.675 6.575-3.874a9.432 9.432 0 0 1 5.748 1.307 7.26 7.26 0 0 1 1.46 1.338 6.557 6.557 0 0 1 1.333 2.972c.177.94.255 1.897.231 2.854l.015 1.19h-4.655l-.016-.804a7.941 7.941 0 0 0-.337-2.498 3.145 3.145 0 0 0-.742-1.28 3.734 3.734 0 0 0-4.714-.03c-.717.76-1.046 1.987-1.145 4.27-.04.916-.02 9.168.024 9.696 0 1.031.267 2.045.777 2.942a3.115 3.115 0 0 0 1.92 1.21c.468.064.94.078 1.41.04a2.875 2.875 0 0 0 2.478-2.2c.233-.8.344-1.632.329-2.465l.016-.738h4.649v.831c.016.96-.051 1.918-.202 2.866a6.89 6.89 0 0 1-1.31 3.181 7.49 7.49 0 0 1-5.486 2.752c-.346.031-1.29.054-1.61.039Zm20.249-.01a7.51 7.51 0 0 1-5.593-2.527 8.066 8.066 0 0 1-1.776-4.75 23.326 23.326 0 0 1-.113-2.395l-.016-1.198 5.75-3.123a1504.29 1504.29 0 0 0 5.796-3.156c.042-.03.043-.089.013-.802a13.173 13.173 0 0 0-.299-2.749 2.841 2.841 0 0 0-2.525-2.506 6.443 6.443 0 0 0-1.423.015 2.842 2.842 0 0 0-1.969 1.225c-.36.55-.58 1.181-.639 1.837-.037.316-.091 1.536-.093 2.095v.232h-4.663l.017-.645c.091-3.328.288-4.357 1.095-5.706.268-.45.593-.865.968-1.233a6.356 6.356 0 0 1 2.26-1.461c2.5-.873 5.225-.845 7.707.078a6.18 6.18 0 0 1 2.724 2.164c1 1.635 1.517 3.518 1.494 5.433.042.78.021 11.43-.023 11.92a6.858 6.858 0 0 1-6.138 7.116c-.844.131-1.7.177-2.554.135Zm1.471-4.127c1.504-.251 2.288-1.248 2.55-3.244.038-.28.046-.692.056-2.588.006-1.24.001-2.255-.01-2.254-.013 0-1.561.841-3.442 1.87l-3.419 1.87-.009.159c.005.398.035.796.09 1.19a4.26 4.26 0 0 0 .77 2.034 3.153 3.153 0 0 0 2.768 1.026c.217-.01.432-.03.647-.063Zm51.288 4.127a7.24 7.24 0 0 1-6.118-3.073 10.14 10.14 0 0 1-1.343-4.857c-.043-.506-.064-10.466-.024-11.455a8.574 8.574 0 0 1 1.368-5.202 7.622 7.622 0 0 1 1.534-1.467 9.258 9.258 0 0 1 5.714-1.411 9.75 9.75 0 0 1 2.097.31 6.718 6.718 0 0 1 4.084 2.855 9.205 9.205 0 0 1 1.358 4.742c.015.198.035.946.043 1.664l.015 1.304-5.753 3.125c-3.164 1.718-5.77 3.137-5.791 3.152-.032.024-.034.12-.011.654a12.981 12.981 0 0 0 .333 2.998 2.786 2.786 0 0 0 2.443 2.389 6.62 6.62 0 0 0 1.442.002 2.882 2.882 0 0 0 1.959-1.158c.261-.388.454-.818.57-1.27.154-.807.22-1.628.197-2.45v-.511h4.666l-.019.816a11.764 11.764 0 0 1-.745 4.911 6.456 6.456 0 0 1-3.01 3.066 8.921 8.921 0 0 1-3.085.825c-.64.053-1.283.066-1.925.04l.001.001Zm.649-17.141 3.41-1.865-.013-.282c-.097-2.299-.76-3.512-2.159-3.952a3.78 3.78 0 0 0-1.268-.158 4.966 4.966 0 0 0-.786.043c-1.54.263-2.331 1.219-2.592 3.132a24.428 24.428 0 0 0-.094 3.096c0 1.785.002 1.885.046 1.868.025-.01 1.581-.857 3.456-1.882Zm19.833 17.15a7.848 7.848 0 0 1-5.964-2.603 5.609 5.609 0 0 1-.702-1.118 9.763 9.763 0 0 1-.843-3.739c-.027-.34-.034-1.75-.034-6.28 0-4.529.007-5.939.034-6.279a8.003 8.003 0 0 1 1.621-4.955 7.437 7.437 0 0 1 4.718-2.4 9.622 9.622 0 0 1 1.676-.106 9.811 9.811 0 0 1 2.517.275c1.35.294 2.587.97 3.563 1.947a7.463 7.463 0 0 1 1.882 5.305c.049.726.049 11.737 0 12.413-.197 2.705-.659 4.033-1.833 5.268a8.528 8.528 0 0 1-6.635 2.271Zm1.136-4.28c1.529-.248 2.369-1.35 2.629-3.45.089-.717.098-1.377.086-6.435.089-1.938.051-3.88-.113-5.814-.263-1.86-1.027-2.892-2.357-3.182a4.399 4.399 0 0 0-2.097.073c-.285.1-.553.24-.796.418a4.138 4.138 0 0 0-1.294 2.837 60.952 60.952 0 0 0-.087 6.426 36.175 36.175 0 0 0 .14 6.113c.303 1.78 1.134 2.785 2.492 3.012a6.46 6.46 0 0 0 1.397.002ZM78.46 19.873c.01-10.101.002-9.582.151-10.757a8.921 8.921 0 0 1 1.316-3.924 7.037 7.037 0 0 1 5.484-2.903 15.091 15.091 0 0 1 2.381-.002A7.805 7.805 0 0 1 92.21 3.98l.249.213.095-.08a6.861 6.861 0 0 1 2.363-1.364 11.4 11.4 0 0 1 6.839.022 6.06 6.06 0 0 1 3.416 2.705 9.758 9.758 0 0 1 1.206 4.28c.088 1.012.095 1.747.095 10.584v8.84h-4.655l-.01-8.707c-.01-8.662-.012-8.872-.099-9.972a4.473 4.473 0 0 0-1.428-3.514 3.317 3.317 0 0 0-2.004-.51c-2.004.008-2.96.98-3.297 3.346-.058.408-.096.889-.136 1.703-.015.319-.026 3.96-.026 9.093v8.562h-4.709l-.009-8.854c-.007-6.432-.018-8.967-.04-9.267-.06-.794-.09-1.08-.153-1.453-.287-1.716-.904-2.611-2.048-2.972a4.68 4.68 0 0 0-1.623-.152 2.872 2.872 0 0 0-1.849.71 4.902 4.902 0 0 0-1.17 3.255c-.088 1.07-.09 1.233-.1 9.972l-.01 8.76h-4.655l.009-9.306Z"/></g><defs><clipPath id="a"><path fill="#fff" d="M.2.775h147v30.45H.2z"/></clipPath></defs></svg>