<svg xmlns="http://www.w3.org/2000/svg" width="100" height="36" fill="none" viewBox="0 0 100 36"><path fill="#22174A" d="M32.483 10.133h-2.362c-.414-.002-.447-.037-.471-.433a1.88 1.88 0 0 0-.358-.973 1.929 1.929 0 0 0-.824-.645 5.053 5.053 0 0 0-2.937-.361c-.398.06-.778.208-1.108.435-.2.113-.364.276-.477.473a1.246 1.246 0 0 0 .027 1.285c.121.192.293.349.497.454.478.266.986.477 1.515.626.61.198 1.24.34 1.866.497.615.154 1.24.277 1.85.445a10.244 10.244 0 0 1 4.91 2.454 4.915 4.915 0 0 1 1.395 3.34 7.154 7.154 0 0 1-.399 2.766 5.731 5.731 0 0 1-2.073 2.751 9.024 9.024 0 0 1-3.1 1.369 15.182 15.182 0 0 1-4.261.405 11.143 11.143 0 0 1-5.295-1.355 6.453 6.453 0 0 1-2.869-3.25 7.653 7.653 0 0 1-.497-2.53c-.013-.249.088-.376.357-.38 1.591-.023 3.182-.057 4.772-.081.48-.008.5.05.567.51a2.58 2.58 0 0 0 .577 1.574 2.66 2.66 0 0 0 1.43.905 6.372 6.372 0 0 0 3.731-.058c.285-.08.548-.22.77-.413a1.96 1.96 0 0 0 .516-.698 1.48 1.48 0 0 0 .023-1.132 1.516 1.516 0 0 0-.788-.828 12.38 12.38 0 0 0-1.892-.747c-.918-.28-1.863-.473-2.787-.736-.851-.241-1.706-.486-2.532-.799a6.714 6.714 0 0 1-3.205-2.28 4.86 4.86 0 0 1-.903-2.596 5.754 5.754 0 0 1 .412-2.703 5.691 5.691 0 0 1 2.053-2.429 8.564 8.564 0 0 1 2.845-1.269 12.713 12.713 0 0 1 5.092-.286 11.92 11.92 0 0 1 2.384.6 6.696 6.696 0 0 1 3.848 3.355 6.04 6.04 0 0 1 .543 2.377c.012.261-.106.365-.368.363-.825-.007-1.65-.003-2.474-.002ZM52.57 24.51a2.606 2.606 0 0 1-.39.065c-1.47.004-2.942.005-4.413.002-.332 0-.46-.118-.526-.451-.046-.235-.1-.467-.154-.7-.006-.023-.034-.04-.07-.082-.254.183-.5.375-.76.545a6.067 6.067 0 0 1-3.25 1.08c-.736.043-1.474.021-2.207-.064a4.444 4.444 0 0 1-2.161-.79 4.337 4.337 0 0 1-1.458-1.755 4.378 4.378 0 0 1-.325-1.36 7.071 7.071 0 0 1 .04-1.589 3.616 3.616 0 0 1 .637-1.633 3.698 3.698 0 0 1 1.336-1.155 8.805 8.805 0 0 1 3-.946c1.267-.19 2.536-.365 3.798-.575a1.586 1.586 0 0 0 1.214-.657c.164-.282.21-.616.13-.932a1.258 1.258 0 0 0-.566-.76 3.345 3.345 0 0 0-2.244-.408 1.98 1.98 0 0 0-1.173.45c-.33.272-.559.644-.652 1.058a.417.417 0 0 1-.163.274.431.431 0 0 1-.313.081c-1.358-.009-2.717-.003-4.076-.004-.337 0-.435-.117-.41-.434a4.655 4.655 0 0 1 1.213-2.844 4.937 4.937 0 0 1 1.812-1.222 8.291 8.291 0 0 1 2.285-.637c.51-.056 1.023-.103 1.536-.113.683-.03 1.368-.02 2.05.031 1.304.05 2.577.41 3.71 1.049a3.967 3.967 0 0 1 1.704 2.15c.214.667.317 1.364.306 2.063-.005 2.485-.005 4.97-.002 7.454 0 .754.13 1.503.388 2.214.064.178.097.367.155.594Zm-5.598-6.798a.912.912 0 0 0-.155-.009c-.773.169-1.552.318-2.317.516a9.999 9.999 0 0 0-1.638.548c-.324.143-.589.39-.75.7-.162.311-.21.667-.138 1.009.065.322.232.616.477.84.245.225.556.367.888.408a3.742 3.742 0 0 0 1.694-.012 2.21 2.21 0 0 0 1.222-.728c.47-.7.719-1.523.712-2.363.03-.296.005-.598.005-.91ZM59.68 24.54h-5.12a2.957 2.957 0 0 1-.05-.374c-.002-4.795-.003-9.589-.002-14.383 0-.335.073-.425.371-.426 1.462-.005 2.924-.003 4.386-.002.07.007.139.018.206.035.086.62.12 1.245.106 1.87.06-.04.116-.085.166-.136a5.49 5.49 0 0 1 2.393-1.773 6.667 6.667 0 0 1 3.64-.3 5.46 5.46 0 0 1 2.153.814 4.157 4.157 0 0 1 1.56 2.037c.333.958.481 1.969.438 2.98v9.165c0 .504-.028.53-.54.53h-4.105c-.492 0-.532-.036-.532-.513 0-2.789.01-5.577-.008-8.365a4.215 4.215 0 0 0-.21-1.298 1.893 1.893 0 0 0-.681-.876 1.944 1.944 0 0 0-1.064-.352 2.57 2.57 0 0 0-1.456.153 2.52 2.52 0 0 0-1.127.92 3.37 3.37 0 0 0-.483 1.76c.005 2.669.006 5.337.001 8.006 0 .161-.026.322-.043.528Zm39.417-6.297H87.913a.805.805 0 0 0-.046.213 3.15 3.15 0 0 0 .554 1.672c.34.495.816.886 1.372 1.128a3.368 3.368 0 0 0 1.962.24 3.336 3.336 0 0 0 1.752-.9c.143-.156.241-.353.388-.504a.693.693 0 0 1 .39-.245c1.415-.018 2.83-.013 4.244-.01.099.01.196.029.291.055a4.402 4.402 0 0 1-.12.542 6.256 6.256 0 0 1-2.684 3.324 8.482 8.482 0 0 1-2.78 1.053 11.24 11.24 0 0 1-3.607.098 7.672 7.672 0 0 1-3.003-.887 7.54 7.54 0 0 1-2.38-2.007 7.208 7.208 0 0 1-1.46-3.703c-.037-.374-.098-.747-.11-1.122a7.862 7.862 0 0 1 .537-3.158 7.695 7.695 0 0 1 1.484-2.384 7.775 7.775 0 0 1 3.43-2.27c.727-.199 1.47-.34 2.222-.42a6.605 6.605 0 0 1 1.122-.008 7.58 7.58 0 0 1 5.247 2.1 6.961 6.961 0 0 1 1.84 3.024c.169.56.276 1.14.413 1.71.057.164.098.333.12.504.015.624.006 1.249.006 1.955Zm-11.194-2.959h6.008c0-.448-.112-.89-.325-1.286a2.772 2.772 0 0 0-.9-.987 2.811 2.811 0 0 0-3.118-.216 3.354 3.354 0 0 0-1.132 1.05c-.29.433-.472.925-.533 1.44Z"/><path fill="#E6342B" d="M16.593 18.1c-.19.01-.329.023-.466.024H5.977c-.103 0-.206 0-.31.004a.275.275 0 0 0-.241.095.264.264 0 0 0-.049.251 3.53 3.53 0 0 0 .446 1.468 3.6 3.6 0 0 0 1.03 1.15 3 3 0 0 0 1.017.442c.54.161 1.111.188 1.664.076a3.392 3.392 0 0 0 1.497-.717c.188-.19.365-.391.53-.602.089-.104.175-.21.225-.271h4.572c-.159.413-.263.772-.428 1.102a6.029 6.029 0 0 1-2.302 2.505 8.36 8.36 0 0 1-3.249 1.123 11.665 11.665 0 0 1-3.325-.017 8.207 8.207 0 0 1-3.265-1.163A6.612 6.612 0 0 1 .94 19.746a8.506 8.506 0 0 1-.29-4.112 8.574 8.574 0 0 1 1.678-3.777 7.91 7.91 0 0 1 2.615-2.001 6.393 6.393 0 0 1 2.296-.673 16.864 16.864 0 0 1 1.79-.097 7.613 7.613 0 0 1 4.777 1.64 7.148 7.148 0 0 1 1.872 2.383c.48 1.037.784 2.143.902 3.276.04.571.044 1.144.012 1.716ZM8.54 15.478h2.698c.448 0 .554-.12.461-.555a3.323 3.323 0 0 0-.565-1.307 3.003 3.003 0 0 0-.865-.836 3.057 3.057 0 0 0-2.343-.397 3.05 3.05 0 0 0-1.1.502 3.484 3.484 0 0 0-1.334 2.07c-.118.45-.066.522.407.523H8.54Z"/><path fill="#22174A" d="M73.61 12.742h-2.484c-.005-1.145-.047-2.242.033-3.388h2.475v-4.5h5.194v4.494h3.067c.07 1.144.035 2.233.02 3.382h-3.031c-.018.096-.03.194-.038.292 0 2.217 0 4.434.002 6.652a1.04 1.04 0 0 0 .675 1.02c.228.085.47.127.713.122.42.008.841-.022 1.262-.035.11-.003.219 0 .306 0 .163 1.243.176 2.502.04 3.749-.082.023-.165.04-.25.049-1.157.046-2.317.135-3.474.116a5.509 5.509 0 0 1-2.728-.643 2.993 2.993 0 0 1-1.384-1.739 9.13 9.13 0 0 1-.374-2.804c-.006-2.143-.002-4.287-.002-6.431 0-.09-.012-.18-.022-.336Zm23.579-9.177c-.051.08-.11.156-.173.227a2180.468 2180.468 0 0 1-4.072 3.796 1.007 1.007 0 0 1-.754.295c-.945-.018-1.891-.004-2.837-.009-.14-.01-.278-.03-.415-.058.082-.145.125-.233.178-.314.827-1.246 1.658-2.49 2.479-3.74a.663.663 0 0 1 .614-.342c1.526.012 3.053.004 4.58.007.122.007.245.02.367.04l.032.098Z"/><path fill="#E5342B" d="M40.96 34.985h-.812v-5.392h1.296l1.496 4.171c.116-.114.216-.243.297-.384.415-1.188.814-2.381 1.229-3.569.033-.096.153-.223.24-.23.36-.026.723-.01 1.116-.01v5.414h-.772a2.665 2.665 0 0 1-.032-.291c.005-1.049.018-2.097.017-3.145 0-.168.043-.372-.21-.511l-1.466 3.96c-.202.01-.405.007-.608-.01a.336.336 0 0 1-.204-.192 292.5 292.5 0 0 1-1.11-2.965 2.343 2.343 0 0 0-.084-.319 4.06 4.06 0 0 0-.289-.408l-.104.036v3.845Zm11.052-.006v-5.384c.145-.014.262-.035.38-.035.712-.004 1.424-.014 2.136.004.326.009.65.049.968.12.267.091.492.273.636.512.145.238.198.52.152.794a1.09 1.09 0 0 1-.186.557 1.116 1.116 0 0 1-.451.384c.07.107.154.204.249.29.248.152.444.374.563.636a1.424 1.424 0 0 1-.28 1.59 1.478 1.478 0 0 1-.748.413c-.42.08-.846.13-1.274.148-.59.025-1.18.008-1.77.005-.118 0-.236-.02-.375-.034Zm1.963-.62c.262 0 .525.01.787-.003a1.04 1.04 0 0 0 .62-.289c.168-.162.275-.376.303-.606a.802.802 0 0 0-.175-.612.828.828 0 0 0-.569-.304 15.548 15.548 0 0 0-1.764-.048c-.198 0-.295.145-.297.336-.003.405-.001.81 0 1.214 0 .22.12.314.336.313.253-.002.506 0 .759 0Zm-.114-2.436v.004c.178 0 .356-.006.533.002a.981.981 0 0 0 .806-.373.78.78 0 0 0 .152-.759.786.786 0 0 0-.584-.518 14.886 14.886 0 0 0-1.528-.108c-.239-.011-.358.132-.36.363-.004.358 0 .716-.001 1.074a.275.275 0 0 0 .078.23.285.285 0 0 0 .231.083c.224.007.449.002.673.002ZM55.318 2.62c-.04.125-.066.254-.08.383-.005 1.04 0 2.079-.002 3.118 0 .116-.02.232-.032.375h-.778V1.152h.921c.835 1.278 1.652 2.527 2.47 3.775.011.016.051.015.135.036.025-.12.043-.24.052-.361.003-1.021 0-2.042 0-3.063 0-.117.016-.233.027-.383h.735v5.281a.836.836 0 0 1-1.194-.392c-.644-1.023-1.286-2.046-1.928-3.07-.071-.114-.136-.233-.204-.35l-.122-.004ZM87.49 32.377a.521.521 0 0 0 .094.13 1 1 0 0 1 .42.828c0 .265.018.531.052.795.038.252.118.497.186.773h-.92c-.025-.371-.03-.69-.07-1.006-.112-.884-.397-1.146-1.298-1.194-.336-.018-.674-.01-1.011-.002-.296.006-.398.111-.4.411-.006.534 0 1.067-.003 1.6a2.56 2.56 0 0 1-.032.27h-.84l.11-5.376c.111-.023.223-.038.336-.046.815-.004 1.63-.024 2.444.006.29-.034.584.016.846.145.261.128.479.33.626.578a1.517 1.517 0 0 1-.364 1.871 2.094 2.094 0 0 1-.253.123l.077.094Zm-1.772-.33c.224 0 .45.005.674 0a.912.912 0 0 0 .626-.253.881.881 0 0 0 .036-1.234.91.91 0 0 0-.611-.288c-.485-.027-.972-.03-1.459-.035-.197-.002-.364.082-.37.297-.013.394-.012.79.005 1.184.01.229.156.34.396.332.234-.008.469-.002.703-.002Zm10.942.708v-.61h2.252v2.836l-.467.027-.189-.582a3.257 3.257 0 0 0-.391.241 2.007 2.007 0 0 1-1.54.43 2.597 2.597 0 0 1-1.16-.332 2.54 2.54 0 0 1-.877-.819 2.21 2.21 0 0 1-.402-1.187c-.024-.44 0-.881.07-1.316.07-.396.242-.768.498-1.08.257-.313.59-.557.969-.709a2.927 2.927 0 0 1 1.922-.136c.297.073.572.214.802.413.23.198.409.448.52.728.067.15.11.31.18.515h-.805a4.051 4.051 0 0 1-.222-.345 1.57 1.57 0 0 0-.468-.475 1.605 1.605 0 0 0-1.893.099 2.268 2.268 0 0 0-.738 1.992c.045.392.154.773.325 1.13.166.313.431.564.756.715.325.15.69.193 1.042.12.317-.047.612-.19.842-.409a1.51 1.51 0 0 0 .445-.813c.06-.299-.045-.427-.368-.432-.353-.005-.706 0-1.103 0ZM47.25 1.317c.44.274.76.702.89 1.197a.675.675 0 0 1 .003.17h-.793c-.031-.058-.07-.12-.1-.185a1.534 1.534 0 0 0-.506-.598 1.57 1.57 0 0 0-2.143.327 2.399 2.399 0 0 0-.478 1.94 2.13 2.13 0 0 0 .71 1.448 1.655 1.655 0 0 0 1.51.332c.26-.07.497-.203.693-.385a1.61 1.61 0 0 0 .428-.66c.134-.393-.02-.576-.438-.58-.326-.001-.652 0-1.022 0l-.025-.52h2.26v2.69h-.463l-.204-.479a1.06 1.06 0 0 0-.29.136 2.528 2.528 0 0 1-3.207-.161 2.988 2.988 0 0 1-.762-1.232 2.947 2.947 0 0 1-.089-1.44c.035-.449.191-.88.454-1.25.133-.181.289-.345.464-.487.21-.16.438-.297.68-.405.121-.06.247-.11.376-.153a2.365 2.365 0 0 1 2.052.295m20.068 30.95a2.26 2.26 0 0 1-.085 1.087 2.292 2.292 0 0 1-.585.927c-.281.29-.629.511-1.014.643a2.61 2.61 0 0 1-1.2.117 2.475 2.475 0 0 1-1.28-.443 2.414 2.414 0 0 1-.842-1.044 2.861 2.861 0 0 1-.18-2.123 2.915 2.915 0 0 1 1.34-1.673 2.73 2.73 0 0 1 1.765-.258 2.7 2.7 0 0 1 1.541.886 2.338 2.338 0 0 1 .54 1.881Zm-4.386-.002c.01.524.164 1.036.447 1.48.16.218.37.393.615.512a1.682 1.682 0 0 0 1.561-.053c.236-.135.434-.324.578-.552a3.029 3.029 0 0 0-.073-2.885 1.644 1.644 0 0 0-.593-.492 1.675 1.675 0 0 0-1.51.017c-.231.12-.43.294-.581.506-.272.444-.424.95-.444 1.467ZM30.328 34.92v-5.334h3.898v.695a3.35 3.35 0 0 1-.353.038c-.75.003-1.5 0-2.25.003-.386.001-.443.058-.446.428a23.16 23.16 0 0 0 0 .635c.007.331.102.43.438.433.675.004 1.35 0 2.024.002.11 0 .219.017.36.029v.602c-.137.013-.255.032-.372.033-.637.003-1.274-.003-1.912.003-.452.003-.537.094-.538.538-.001.248-.002.496 0 .745.003.396.089.48.503.481.74.002 1.48 0 2.22.002.119 0 .237.019.385.031v.637h-3.957Zm23.09-29.07v.638H49.46V1.156h3.883v.64c-.13.014-.248.035-.365.036-.73.003-1.461 0-2.192.002-.366 0-.468.093-.484.451-.011.248.002.497-.006.745-.008.263.125.36.379.36.683-.005 1.367-.003 2.05 0 .12 0 .24.014.395.024v.595c-.135.012-.252.032-.37.032-.656.003-1.311 0-1.967.002-.369.002-.467.09-.48.453-.012.294-.012.589 0 .882.015.346.116.435.468.436.759.003 1.517 0 2.276.002.11 0 .218.02.37.033Zm23.388 23.737h.824c.02.105.035.21.042.317.003 1.067.003 2.134 0 3.202a1.84 1.84 0 0 1-.188.937c-.145.29-.364.54-.636.722-.446.26-.963.38-1.48.344a2.411 2.411 0 0 1-1.486-.412 1.874 1.874 0 0 1-.544-.66 1.84 1.84 0 0 1-.19-.828c-.042-1.13-.014-2.263-.013-3.395.008-.074.021-.148.04-.22h.781c.027.148.045.298.054.448.009 1.021.004 2.042.015 3.063a1.146 1.146 0 0 0 .347.93 1.186 1.186 0 0 0 .951.33c.233 0 .465-.026.691-.077.237-.069.442-.216.58-.417.14-.201.203-.443.18-.685.013-1.067.004-2.135.006-3.202 0-.117.015-.235.026-.397ZM69.774 5.85v.642h-3.875V1.157h3.826v.645c-.131.012-.24.03-.349.03-.749.003-1.498 0-2.247.002-.35 0-.415.062-.418.399-.004.363-.001.727-.001 1.145h2.774v.662h-2.735c-.016.225-.034.394-.038.563-.005.285.005.57-.002.855-.006.259.116.361.376.36.767-.007 1.535-.004 2.303-.002.118 0 .236.02.386.033ZM9.864 29.584h.76c.012.14.03.256.03.371.002.883-.016 1.766.01 2.648.02.382.079.76.176 1.13a.88.88 0 0 0 .262.39.91.91 0 0 0 .427.206 1.423 1.423 0 0 0 1.358-.162 1.357 1.357 0 0 0 .57-1.223c.014-.984.002-1.967.004-2.951 0-.125.018-.25.03-.404h.772c.022.094.037.19.045.285.001 1.14.007 2.28-.007 3.42-.01.43-.175.842-.465 1.163-.29.321-.688.53-1.12.59a4.366 4.366 0 0 1-1.529-.044 1.683 1.683 0 0 1-.947-.536 1.632 1.632 0 0 1-.41-.995c-.054-1.22-.016-2.445-.015-3.668.01-.075.026-.148.05-.22Zm12.462 1.862 1.338-1.92h.978c-.232.346-.431.65-.641.949-.33.468-.664.934-1.001 1.397a.433.433 0 0 0 .02.558c.517.733 1.031 1.467 1.543 2.202.05.083.093.169.13.257-.23.117-.498.14-.745.066a.988.988 0 0 1-.58-.464c-.325-.502-.663-.997-1.033-1.552a2.087 2.087 0 0 0-.323.292c-.326.46-.656.919-.947 1.4a.65.65 0 0 1-.283.31.667.667 0 0 1-.416.077 5.958 5.958 0 0 0-.594-.004l.67-.963c.371-.53.737-1.064 1.116-1.588a.436.436 0 0 0 .007-.577c-.446-.623-.882-1.253-1.32-1.883-.082-.118-.153-.244-.231-.37a.985.985 0 0 1 .687-.076.97.97 0 0 1 .564.394c.246.357.478.724.724 1.082.085.124.19.235.337.413ZM40.695 1.155l2.09 5.334h-.936c-.09-.225-.184-.46-.276-.697-.017-.043-.023-.09-.037-.133-.18-.564-.185-.568-.779-.568h-1.32c-.41 0-.497.066-.618.454-.076.245-.147.493-.24.732-.034.085-.12.205-.193.213-.27.017-.54.02-.811.01l2.089-5.345h1.031ZM39.27 4.41c.254.025.405.048.556.053.252.007.506-.012.756.007.387.03.51-.133.372-.497-.126-.335-.23-.678-.347-1.016-.09-.26-.187-.518-.281-.777l-.13-.01a13.535 13.535 0 0 0-.925 2.24ZM63.006.953c.114.028.227.064.336.108.167.06.329.134.483.222.344.219.617.529.789.894.063.15.119.302.166.457a.74.74 0 0 1-1.04-.274 1.478 1.478 0 0 0-.75-.631 1.509 1.509 0 0 0-.986-.03c-.322.11-.608.305-.826.563a1.83 1.83 0 0 0-.412.9 2.569 2.569 0 0 0 .217 1.897c.101.238.263.446.47.604a1.538 1.538 0 0 0 1.481.217c.245-.092.462-.245.63-.444.195-.281.357-.584.482-.902l.745-.036c.004.143-.005.285-.03.426a2.163 2.163 0 0 1-.587 1.069 2.236 2.236 0 0 1-1.076.596 2.601 2.601 0 0 1-1.538-.064 2.554 2.554 0 0 1-1.222-.92 3.015 3.015 0 0 1-.527-2.239 3.622 3.622 0 0 1 .256-.867c.033-.077.05-.16.087-.234.17-.32.406-.6.694-.824a2.51 2.51 0 0 1 2.158-.488ZM4.21 34.285v.69H.4v-5.383h.936c.011.15.03.275.03.4.001 1.26.002 2.52 0 3.78 0 .427.052.478.484.48.656 0 1.312-.002 1.967 0 .118.001.236.02.393.033Z"/></svg>