<svg xmlns="http://www.w3.org/2000/svg" width="155" height="17" fill="none" viewBox="0 0 155 20"><g fill="#292C31" clip-path="url(#a)"><path d="M146.338 15.986h8.566a.096.096 0 0 1 .096.095v3.313a.091.091 0 0 1-.028.068.093.093 0 0 1-.068.028h-8.566a.098.098 0 0 1-.089-.059.092.092 0 0 1-.007-.037v-3.313a.092.092 0 0 1 .028-.067.092.092 0 0 1 .068-.028Zm6.913-4.472V8.176a.104.104 0 0 0-.027-.064.1.1 0 0 0-.03-.02.086.086 0 0 0-.034-.006h-6.822a.094.094 0 0 1-.068-.028.091.091 0 0 1-.028-.067V3.818a.095.095 0 0 0-.095-.095h-3.313a.097.097 0 0 0-.068.027.091.091 0 0 0-.028.068V15.89a.092.092 0 0 0 .028.068.096.096 0 0 0 .068.027h3.313a.095.095 0 0 0 .095-.095v-4.21a.092.092 0 0 1 .023-.066.088.088 0 0 1 .029-.02.087.087 0 0 1 .034-.009h6.832a.091.091 0 0 0 .091-.071Zm-12.255 7.97a.094.094 0 0 0 .047-.012.104.104 0 0 0 .035-.033.096.096 0 0 0 .004-.093l-3.931-7.792a.087.087 0 0 1-.004-.077.086.086 0 0 1 .056-.052 5.184 5.184 0 0 0 2.913-4.922c0-5.052-3.868-5.993-5.453-5.993h-7.773a.1.1 0 0 0-.037.008.098.098 0 0 0-.052.052.113.113 0 0 0-.007.036v18.788c0 .013.003.025.007.037a.097.097 0 0 0 .089.059h3.261a.103.103 0 0 0 .037-.007.104.104 0 0 0 .031-.021.114.114 0 0 0 .02-.031.092.092 0 0 0 .007-.037v-6.713a.09.09 0 0 1 .008-.036.08.08 0 0 1 .02-.031.097.097 0 0 1 .068-.028h3.28a.094.094 0 0 1 .086.052l3.37 6.794a.097.097 0 0 0 .086.053h3.832Zm-7.513-10.35h-3.146a.097.097 0 0 1-.037-.008.1.1 0 0 1-.059-.088V4.053a.09.09 0 0 1 .008-.036.095.095 0 0 1 .052-.052.089.089 0 0 1 .036-.007h3.729a2.445 2.445 0 0 1 2.559 2.645c.005 1.724-1.222 2.53-3.142 2.53ZM146.338.51h8.566a.096.096 0 0 1 .096.096v3.022a.091.091 0 0 1-.028.068.096.096 0 0 1-.068.028h-8.566a.097.097 0 0 1-.089-.06.092.092 0 0 1-.007-.036V.606c0-.013.003-.025.007-.037a.1.1 0 0 1 .052-.051.1.1 0 0 1 .037-.008ZM82.377 8.105H74.1a.095.095 0 0 1-.095-.096V.606A.096.096 0 0 0 73.91.51h-3.314a.094.094 0 0 0-.088.059.097.097 0 0 0-.007.037v18.788a.097.097 0 0 0 .028.068.095.095 0 0 0 .067.028h3.314a.093.093 0 0 0 .067-.028.097.097 0 0 0 .028-.068v-7.69a.095.095 0 0 1 .095-.095h8.277a.095.095 0 0 1 .095.095v7.69a.096.096 0 0 0 .059.089.094.094 0 0 0 .036.007h3.314a.096.096 0 0 0 .096-.096V.606A.096.096 0 0 0 85.88.51h-3.314a.095.095 0 0 0-.095.096v7.399a.118.118 0 0 1-.005.037.095.095 0 0 1-.085.063h-.005ZM57.89 4.057v4.987a.096.096 0 0 0 .096.096h6.703a.096.096 0 0 1 .095.095v3.26a.098.098 0 0 1-.028.068.095.095 0 0 1-.067.028h-6.703a.095.095 0 0 0-.095.095v6.708a.095.095 0 0 1-.096.096h-3.26a.092.092 0 0 1-.068-.028.094.094 0 0 1-.028-.068V.606a.094.094 0 0 1 .059-.088.094.094 0 0 1 .036-.008H64.69a.095.095 0 0 1 .095.096v3.26a.095.095 0 0 1-.095.096h-6.703a.093.093 0 0 0-.068.028.094.094 0 0 0-.027.067Zm6.895-.038v4.987a.096.096 0 0 0 .095.095h3.261a.096.096 0 0 0 .095-.095V4.019a.095.095 0 0 0-.095-.095H64.88a.093.093 0 0 0-.036.007.095.095 0 0 0-.059.088ZM41.588.565l-5.808 12.44a.095.095 0 0 0-.01.04v6.35a.098.098 0 0 0 .029.067.096.096 0 0 0 .067.028h3.313a.095.095 0 0 0 .096-.096V14.33a.095.095 0 0 1 .095-.095h8.569a.094.094 0 0 1 .067.028.094.094 0 0 1 .028.067v5.065a.096.096 0 0 0 .096.096h3.313a.093.093 0 0 0 .067-.028.085.085 0 0 0 .02-.031.09.09 0 0 0 .008-.037v-6.349a.096.096 0 0 0-.01-.04L45.596.564A.096.096 0 0 0 45.51.51h-3.834a.095.095 0 0 0-.087.055Zm-.895 10.03 2.812-6.092a.097.097 0 0 1 .087-.055.095.095 0 0 1 .086.055l2.812 6.092a.096.096 0 0 1-.007.091.096.096 0 0 1-.08.044H40.78a.095.095 0 0 1-.087-.135Zm-8.245-.336c.007-.005.012-.002.014-.01l1.198-3.68a.095.095 0 0 0 0-.06l-1.192-3.665a.095.095 0 0 0-.036-.048L29.26.536a.095.095 0 0 0-.056-.018L19.908.51a.096.096 0 0 0-.095.096v18.788a.095.095 0 0 0 .028.068.094.094 0 0 0 .067.028h2.984a.095.095 0 0 0 .095-.096v-6.711a.096.096 0 0 1 .095-.096l3.585-.039a.094.094 0 0 1 .086.053l3.387 6.835a.096.096 0 0 0 .085.054h3.443a.095.095 0 0 0 .085-.139l-3.674-7.287a.096.096 0 0 1 .03-.121l2.339-1.684Zm-9.46-1.051V3.702a.096.096 0 0 1 .095-.096H28.2a.1.1 0 0 1 .056.018l1.431 1.041a.096.096 0 0 1 .035.048L30.27 6.4a.099.099 0 0 1 0 .059l-.548 1.69a.095.095 0 0 1-.036.048l-1.548 1.088a.096.096 0 0 1-.055.017l-5 .001a.096.096 0 0 1-.096-.095Zm-9.826 9.272v.914a.095.095 0 0 0 .096.096l3.313-.001a.095.095 0 0 0 .095-.096V9.073a.095.095 0 0 0-.095-.095H8.878a.095.095 0 0 0-.095.095v3.313a.095.095 0 0 0 .095.096h4.189a.095.095 0 0 1 .095.095v1.874a.095.095 0 0 1-.045.081l-2.654 1.622a.096.096 0 0 1-.05.014H7.526a.096.096 0 0 1-.05-.014L4.91 14.586a.096.096 0 0 1-.033-.034l-1.543-2.683a.096.096 0 0 1-.013-.047V8.178c0-.016.004-.033.013-.047l1.543-2.683a.096.096 0 0 1 .033-.034l2.566-1.569a.095.095 0 0 1 .05-.014h3.038a.1.1 0 0 1 .053.016l2.336 1.532a.094.094 0 0 1 .022.019l1.037 1.259a.096.096 0 0 0 .133.014l2.529-1.978a.095.095 0 0 0 .016-.134l-1.213-1.552a.095.095 0 0 0-.024-.022L11.555.525a.095.095 0 0 0-.051-.015H6.59a.095.095 0 0 0-.05.014L2.423 3.042a.095.095 0 0 0-.034.035L.012 7.28A.096.096 0 0 0 0 7.328v5.344a.1.1 0 0 0 .012.047l2.37 4.19.02.036 4.14 2.53c.014.01.032.015.05.015h4.756a.096.096 0 0 0 .05-.014l1.692-1.036a.049.049 0 0 1 .036-.006.047.047 0 0 1 .036.046ZM115.085.15l-5.736 1.864a.095.095 0 0 0-.047.035l-3.545 4.88a.094.094 0 0 0-.018.056v6.03c0 .02.006.04.018.057l3.545 4.879a.095.095 0 0 0 .047.035l5.736 1.863c.02.007.04.007.059 0l5.736-1.863a.093.093 0 0 0 .048-.035l3.545-4.88a.094.094 0 0 0 .018-.055V6.985c0-.02-.006-.04-.018-.057l-3.545-4.879a.093.093 0 0 0-.048-.035L115.144.151a.096.096 0 0 0-.059 0Zm6.066 11.842-2.276 3.133a.096.096 0 0 1-.047.035l-3.684 1.197a.096.096 0 0 1-.059 0l-3.682-1.197a.094.094 0 0 1-.048-.035l-2.276-3.133a.088.088 0 0 1-.018-.056V8.064a.088.088 0 0 1 .018-.056l2.276-3.133a.094.094 0 0 1 .048-.035l3.682-1.196a.096.096 0 0 1 .059 0l3.684 1.196a.095.095 0 0 1 .047.035l2.276 3.133a.095.095 0 0 1 .019.056v3.872c0 .02-.007.04-.019.056Zm-18.484 1.928a.096.096 0 0 0-.067-.028.092.092 0 0 0-.066.027 6.09 6.09 0 0 1-4.53 2.384 5.765 5.765 0 0 1-6.016-6.274c0-4.215 2.546-6.35 6.016-6.35a6.35 6.35 0 0 1 4.53 2.026.085.085 0 0 0 .061.031.087.087 0 0 0 .066-.021l.011-.01 2.222-2.413a.084.084 0 0 0 .019-.052.083.083 0 0 0-.019-.053 9.85 9.85 0 0 0-7.085-3.05c-5.678 0-9.482 4.147-9.482 9.892a9.54 9.54 0 0 0 9.558 9.835 10.483 10.483 0 0 0 7.118-3.38.083.083 0 0 0 .019-.053.084.084 0 0 0-.019-.052l-2.336-2.46Z"/></g><defs><clipPath id="a"><path fill="#fff" d="M0 .236h155v20H0z"/></clipPath></defs></svg>