<svg xmlns="http://www.w3.org/2000/svg" width="152" height="38" fill="none" viewBox="0 0 152 38"><path fill="#1D3A45" d="M47.654 21.875c0 4.312-1.54 6.588-4.504 6.588a4.22 4.22 0 0 1-1.303-.24v-1.197c.409.185.856.267 1.303.24.496.036.991-.068 1.43-.3.44-.233.807-.586 1.06-1.018a7.833 7.833 0 0 0 .71-4.073V10.016h1.304v11.859Zm3.675 5.51v-1.438a7.28 7.28 0 0 0 3.911 1.318 4.466 4.466 0 0 0 3.2-.958 2.873 2.873 0 0 0 1.067-2.396 2.957 2.957 0 0 0-.711-2.156 12.463 12.463 0 0 0-3.2-2.276 11.655 11.655 0 0 1-3.438-2.755 4.353 4.353 0 0 1-.71-2.396 4.14 4.14 0 0 1 .347-1.78 4.098 4.098 0 0 1 1.075-1.454 5.94 5.94 0 0 1 3.91-1.317c1.092.024 2.173.226 3.2.598v1.318a7.881 7.881 0 0 0-3.318-.719 3.58 3.58 0 0 0-2.844.959c-.345.292-.62.66-.805 1.074a3.044 3.044 0 0 0-.262 1.321 2.958 2.958 0 0 0 .711 2.157 12.464 12.464 0 0 0 3.2 2.275 10.687 10.687 0 0 1 3.319 2.516c.553.718.846 1.606.83 2.516a4.39 4.39 0 0 1-.347 1.834 4.35 4.35 0 0 1-1.076 1.52 5.505 5.505 0 0 1-1.885 1.064 5.466 5.466 0 0 1-2.145.253 16.492 16.492 0 0 1-2.133-.24 16.85 16.85 0 0 1-1.896-.838Zm13.037.719V9.896h6.4c6.4 0 9.482 2.875 9.482 8.864a9.1 9.1 0 0 1-.611 3.63 9.025 9.025 0 0 1-1.996 3.078 9.47 9.47 0 0 1-3.174 2.019 9.396 9.396 0 0 1-3.7.617h-6.4Zm4.03-14.854v11.5h2.015a5.903 5.903 0 0 0 4.148-1.558A6.354 6.354 0 0 0 76.1 18.88c.04-.74-.066-1.48-.31-2.18a5.649 5.649 0 0 0-1.112-1.892 5.67 5.67 0 0 0-1.932-1.14 5.627 5.627 0 0 0-2.217-.298l-2.133-.12Zm25.838 14.854H83.45V9.896h10.31v3.354h-6.282v3.953h5.808v3.234h-5.808v4.193h6.756v3.474Zm14.105 0H97.672V9.896h4.029V24.75h6.638v3.354Zm6.637-18.208v18.208h-4.029V9.896h4.029Zm19.201 0-6.163 18.208h-4.623l-6.163-18.208h4.267l3.793 12.578c.21.576.33 1.183.355 1.797h.119l.355-1.797 3.675-12.578h4.385ZM151.6 28.104h-4.622l-2.845-4.672a4.225 4.225 0 0 1-.593-.958 1.226 1.226 0 0 0-.592-.719 2.09 2.09 0 0 0-.593-.48 1.67 1.67 0 0 0-.711-.238h-1.067v6.947h-4.03V9.896h6.401c4.267 0 6.519 1.677 6.519 4.912a7.193 7.193 0 0 1-.237 1.677 4.505 4.505 0 0 1-.83 1.437A3.712 3.712 0 0 1 147.096 19c-.53.29-1.086.53-1.659.719v.12c.3.113.58.275.829.479.207.234.447.435.712.598.235.25.435.532.592.839.236.25.436.532.593.838l3.437 5.51ZM140.696 13.01v5.03h1.659a2.583 2.583 0 0 0 2.015-.718 2.555 2.555 0 0 0 .83-1.917c0-1.557-.949-2.395-2.845-2.395h-1.659Z"/><path fill="#BC473A" d="M13.756 13.01v11.98l3.319 12.217L20.63 24.99V12.771L17.075.792l-3.319 11.979v.24Z"/><path fill="#E84D3D" d="M17.193.792.6 6.902l2.37 22.28 14.223 8.025"/><path fill="#BC473A" d="m17.193 37.207 14.342-8.025 2.607-22.4L17.193.792"/><path fill="#FDC72E" d="M14.111 27.864a11.19 11.19 0 0 1-4.267-2.635l-.474-.48a9.485 9.485 0 0 1-2.015-3.713c.294.268.612.509.948.719l1.304.838c.237.12.237.24.474.24.237.12.356.24.593.24h.118c.062.403.242.778.517 1.076.274.3.631.508 1.024.6a7.387 7.387 0 0 0 1.778 3.115Zm.711-14.494c.009.333.09.66.238.958a18.076 18.076 0 0 0-2.726 5.99 5.227 5.227 0 0 1-.119.599 1.895 1.895 0 0 0-1.067.838h-.118l-.474-.24a1.992 1.992 0 0 0-.593-.24 7.234 7.234 0 0 1-1.896-1.436l-.356-.36-.118-.12c0-.12-.119-.12-.119-.24L7.356 19v-.12a.119.119 0 0 0-.034-.085.117.117 0 0 0-.085-.034v-.12c-.118-.12-.118-.24-.237-.24v-.599a9.734 9.734 0 0 1 1.66-5.51c.118-.24.237-.359.355-.599.119-.24.237-.359.356-.599a10.963 10.963 0 0 1 4.622-3.114c0 .24.119.36.119.599.237 1.078.592 2.036.948 3.234a7.08 7.08 0 0 0-.237 1.557Zm-1.066 9.463a.92.92 0 0 1-.237.6l-.119.119c-.208.15-.456.233-.711.24-.237 0-.356-.12-.593-.24s-.237-.24-.355-.48c-.119-.119-.119-.239-.119-.479a1.3 1.3 0 0 1 .237-.718l.119-.12c.237-.12.355-.24.592-.24a.9.9 0 0 1 .593.24l.237.24c.237.479.356.598.356.838Zm3.793-9.463a.726.726 0 0 1-.119.48c-.087.179-.222.33-.39.436a1.047 1.047 0 0 1-.558.162h-.237a1.003 1.003 0 0 1-.548-.284 1.021 1.021 0 0 1-.282-.554v-.24a.444.444 0 0 1 .119-.36 1.048 1.048 0 0 1 .948-.599.895.895 0 0 1 .607.18.912.912 0 0 1 .341.54c.118 0 .118 0 .118.24Z"/><path fill="#E09B00" d="M27.268 18.042a23.94 23.94 0 0 1-.356 2.875 22.916 22.916 0 0 1-2.607-.959V19.6a1.714 1.714 0 0 0-.238-.719l.119-.12c1-1.094 1.875-2.3 2.608-3.593.33.921.49 1.895.474 2.875Zm-.949-4.312c-.118.24-.237.24-.237.479a13.593 13.593 0 0 1-2.726 3.713 1.267 1.267 0 0 0-.948-.24 1.436 1.436 0 0 0-1.067.36c-.593-.48-1.067-.958-1.66-1.438a14.538 14.538 0 0 1-1.777-2.036 2.14 2.14 0 0 0 .474-1.198 2.844 2.844 0 0 0-.237-.958 16.307 16.307 0 0 1 4.267-2.995 9.164 9.164 0 0 1 3.911 4.313Zm-2.844 5.869a1.075 1.075 0 0 1-.593.958.435.435 0 0 1-.355.12h-.237a1.146 1.146 0 0 1-.557-.354 1.166 1.166 0 0 1-.273-.604.956.956 0 0 1 .593-.959c.118 0 .237-.12.355-.12h.237a1.009 1.009 0 0 1 .83.959Zm.237 1.317c-.37.301-.829.47-1.304.48a2.213 2.213 0 0 1-.948-.24l-.119.12a14.082 14.082 0 0 1-4.148 1.797v5.27a9.948 9.948 0 0 0 5.624-1.668 10.107 10.107 0 0 0 3.74-4.56 20.316 20.316 0 0 1-2.845-1.198Z"/><path fill="#FDC72E" d="M17.193 22.953a9.775 9.775 0 0 1-2.608.36h-.237c-.237.479-.474.838-.948.958a5.346 5.346 0 0 0 1.422 2.515 7.331 7.331 0 0 0 2.015 1.318h.238v-5.151h.118Z"/><path fill="#E09B00" d="M20.63 19.599a1.09 1.09 0 0 1 .12-.599 20.657 20.657 0 0 1-1.778-1.557 14.525 14.525 0 0 1-1.778-2.037v6.469a15.896 15.896 0 0 0 3.556-1.677 5.23 5.23 0 0 0-.118-.599Z"/><path fill="#FDC72E" d="m17.193 15.407-.237-.24c-.118 0-.237.12-.474.12s-.474-.12-.711-.12a12.596 12.596 0 0 0-2.37 5.51c0 .24-.119.36-.119.599.269.083.51.238.698.45.188.21.315.47.369.748h.118a9.162 9.162 0 0 0 2.608-.48l.118-6.587Z"/><path fill="#E09B00" d="M17.193 7.86v3.713c.119 0 .119 0 .237.12a15.016 15.016 0 0 1 3.912-2.875 10.458 10.458 0 0 0-4.149-.958Z"/><path fill="#FDC72E" d="M17.193 7.86c-.638.02-1.273.1-1.897.24.028.201.068.401.119.599.208.99.526 1.955.948 2.874h.356c.204-.018.41.023.592.12V7.86h-.118Z"/></svg>