<svg xmlns="http://www.w3.org/2000/svg" viewBox="0 0 130 25.9"><g fill="#A2A3A7"><path d="M118.3 10.15v-1h-1.7v7.7h1.7v-4.3c0-1.3.5-2 1.6-2a2.34 2.34 0 0 1 1.1.2l.5-1.6a6 6 0 0 0-1.2-.2 2.27 2.27 0 0 0-2 1.2zm10 0A2.78 2.78 0 0 0 125.9 9a3.89 3.89 0 0 0-3.9 4.1 3.89 3.89 0 0 0 3.9 4.1 2.78 2.78 0 0 0 2.4-1.1v.9h1.7V6.15h-1.7zm-2.2 5.4a2.26 2.26 0 0 1-2.3-2.5 2.31 2.31 0 1 1 4.6 0 2.31 2.31 0 0 1-2.3 2.5zm-13.4-5.4A2.78 2.78 0 0 0 110.3 9a3.89 3.89 0 0 0-3.9 4.1 3.89 3.89 0 0 0 3.9 4.1 2.78 2.78 0 0 0 2.4-1.1v.9h1.7V9.15h-1.7zm-2.2 5.4a2.26 2.26 0 0 1-2.3-2.5 2.31 2.31 0 1 1 4.6 0 2.32 2.32 0 0 1-2.3 2.5zm-7.8-5a3.06 3.06 0 0 1 2 .7l.8-1.4a3.8 3.8 0 0 0-2.8-.9 3.88 3.88 0 0 0-4.1 4.1 3.94 3.94 0 0 0 4.1 4.1 4.47 4.47 0 0 0 2.8-.9l-.8-1.4a3.06 3.06 0 0 1-2 .7 2.32 2.32 0 0 1-2.3-2.5 2.32 2.32 0 0 1 2.3-2.5zm-14.8-1.6c-2.3 0-3.8 1.6-3.8 4.1a3.81 3.81 0 0 0 4 4.1A4.8 4.8 0 0 0 91.3 16l-.8-1.2a3.72 3.72 0 0 1-2.2.8 2.1 2.1 0 0 1-2.3-1.9h5.7v-.6c-.2-2.45-1.7-4.15-3.8-4.15zm-2.1 3.4a2.08 2.08 0 0 1 2.1-1.9 2 2 0 0 1 2 1.9zm9.1-2.2v-1h-1.7v7.7h1.7v-4.3c0-1.3.5-2 1.6-2a2.34 2.34 0 0 1 1.1.2l.5-1.6a6 6 0 0 0-1.2-.2 2.4 2.4 0 0 0-2 1.2zm-40.4-1.2a3 3 0 0 0-2.7 1.4 2.79 2.79 0 0 0-2.6-1.4A2.68 2.68 0 0 0 46.9 10V9h-1.7v7.7h1.7v-4.3a1.85 1.85 0 0 1 1.9-2.1c1.1 0 1.7.7 1.7 2v4.3h1.7v-4.3a1.9 1.9 0 0 1 1.9-2.1c1.1 0 1.7.7 1.7 2v4.3h1.7v-4.8a2.79 2.79 0 0 0-3-2.75zm18.3 3.3-.8-.1c-.7-.1-1.3-.2-1.3-.8s.5-.9 1.5-.9a4.88 4.88 0 0 1 2.4.7l.7-1.4a6.06 6.06 0 0 0-3.2-.8c-2 0-3.2.9-3.2 2.5 0 1.3.9 2 2.7 2.3l.8.1c.9.1 1.4.4 1.4.8q0 .9-1.8.9a4.45 4.45 0 0 1-2.6-.8L68.6 16a5.38 5.38 0 0 0 3.3 1c2.2 0 3.5-1.1 3.5-2.5s-.9-2.05-2.6-2.25zm8.2 3.2c-.8 0-1.1-.5-1.1-1.3v-3.5h2.7v-1.5h-2.7v-2.3h-1.7v2.3h-1.6v1.5h1.6v3.6c0 1.8.7 2.9 2.7 2.9a3.7 3.7 0 0 0 2.1-.6l-.5-1.4a4.43 4.43 0 0 1-1.5.3zm-15.7-5.3A2.78 2.78 0 0 0 62.9 9a3.89 3.89 0 0 0-3.9 4.1 3.89 3.89 0 0 0 3.9 4.1 2.78 2.78 0 0 0 2.4-1.1v.9H67V9.15h-1.7zm-2.2 5.4A2.26 2.26 0 0 1 60.8 13a2.31 2.31 0 1 1 4.6 0 2.31 2.31 0 0 1-2.3 2.55zm-45-11.2a10.7 10.7 0 0 0-7-2.5 11.1 11.1 0 1 0 0 22.2 10.7 10.7 0 0 0 7-2.5 11.84 11.84 0 0 1 0-17.2zm8.3-2.5a10.7 10.7 0 0 0-7 2.5A11.78 11.78 0 0 1 23.1 13a11.61 11.61 0 0 1-3.7 8.6 10.7 10.7 0 0 0 7 2.5 11.1 11.1 0 1 0 0-22.2z"/><path d="M18.8 4.95A11.24 11.24 0 0 0 15.3 13a11 11 0 0 0 3.5 8.1 11.24 11.24 0 0 0 3.5-8.1 11.65 11.65 0 0 0-3.5-8.05z"/></g></svg>