<svg xmlns="http://www.w3.org/2000/svg" viewBox="0 0 57.9 25.9"><g fill="#A2A3A7"><path d="M56.2 10.4a.37.37 0 0 0-.1-.3.31.31 0 0 0-.2-.1h-.5v1h.2v-.4h.2l.2.4h.2l-.2-.4a.22.22 0 0 0 .2-.2zm-.3.1h-.2v-.3h.2l.1.1c0 .2 0 .2-.1.2z"/><path d="M55.8 9.5a1.1 1.1 0 1 0 1.1 1.1 1.11 1.11 0 0 0-1.1-1.1zm0 2a.82.82 0 0 1-.8-.9.88.88 0 0 1 .8-.9.82.82 0 0 1 .8.9.82.82 0 0 1-.8.9zm-19.6.3a5.5 5.5 0 0 0 1.6-.3l.3-2a3.74 3.74 0 0 1-1.5.5c-1.1 0-1.7-.8-1.7-2.2 0-2 1-3.3 2.3-3.3a2.7 2.7 0 0 1 1.6.5l.3-1.9-.4-.2-.8-.2a2 2 0 0 0-.8-.1C34.7 2.6 33 4.8 33 8c.1 2.4 1.3 3.8 3.2 3.8zm-3.7-5.3a8.58 8.58 0 0 1 .7-2.1h-.3c-.6 0-.9.3-1.5 1.2l.2-1.1H30l-1.1 7.3h1.8c.7-4.4.8-5.2 1.7-5.2 0-.1 0-.1.1-.1zm-11.6 5.3a6.88 6.88 0 0 0 1.3-.2l.2-1.6a4.33 4.33 0 0 1-.5.1c-.4 0-.6-.2-.6-.5v-.3l.5-3h.9l.3-1.8h-.9l.2-1.1h-1.8l-.8 5-.1.6-.1.7c0 .2-.1.4-.1.7a1.39 1.39 0 0 0 1.5 1.4zm-4.7-1.6a5 5 0 0 1-1.6-.3l-.3 1.7h.1l.3.1a1.09 1.09 0 0 1 .5.1c.4 0 .8.1 1 .1 1.9 0 2.8-.8 2.8-2.4a2 2 0 0 0-1.3-2c-.8-.4-.8-.4-.8-.8s.3-.6.9-.6a6.15 6.15 0 0 1 1.3.1l.3-1.7a9.15 9.15 0 0 0-1.6-.1c-2 0-2.7 1.1-2.7 2.5a2 2 0 0 0 1.4 2c.7.4.9.5.9.8s-.4.5-1.2.5zm34.2 1.6a2 2 0 0 0 1.7-.8l-.1.7h1.7l1.4-8.9h-1.8l-.4 2.6a2 2 0 0 0-1.7-1c-1.6 0-3 2-3 4.5-.1 1.7.8 2.9 2.2 2.9zm1.1-5.7c.6 0 1 .5 1 1.4 0 1.4-.6 2.4-1.4 2.4-.6 0-.9-.5-.9-1.4-.2-1.4.4-2.4 1.3-2.4zm-25.4 5.7a6.8 6.8 0 0 0 1.9-.3l.3-1.8a4.49 4.49 0 0 1-1.9.5c-1.1 0-1.6-.4-1.6-1.3v-.2h3.6a6.17 6.17 0 0 0 .2-1.8 2.39 2.39 0 0 0-2.5-2.6c-1.8 0-3.2 1.8-3.2 4.3.1 2.1 1.2 3.2 3.2 3.2zm0-5.9a.84.84 0 0 1 .9.9v.4h-2c.1-.9.5-1.3 1.1-1.3zM3.2 4.8l.2 6.9h1.2L7 4.8l-1.1 6.9h1.8l1.5-9H6.3L4.5 8.3V2.7H1.9l-1.5 9h1.7zM11.9 7c-2 0-3.2 1-3.2 2.8a1.77 1.77 0 0 0 1.7 2 2.32 2.32 0 0 0 1.9-.9v.8h1.5v-.9l.1-.5.4-2.6a9.51 9.51 0 0 0 .1-1.4q0-2.1-2.4-2.1a6.43 6.43 0 0 0-2.2.4l-.3 1.6h.2l.3-.1a6.8 6.8 0 0 1 1.5-.2c.9 0 1.2.2 1.2.7a1.34 1.34 0 0 1-.1.5 1.7 1.7 0 0 0-.7-.1zm-.8 3.3a.68.68 0 0 1-.7-.7c0-.7.5-1.1 1.6-1.1h.4c0 1-.5 1.8-1.3 1.8zM41.8 7c-2 0-3.2 1-3.2 2.8a1.77 1.77 0 0 0 1.7 2 2.32 2.32 0 0 0 1.9-.9v.8h1.5v-.5l.1-.4.1-.5.4-2.6a9.51 9.51 0 0 0 .1-1.4q0-2.1-2.4-2.1a6.43 6.43 0 0 0-2.2.4l-.2 1.6h.2l.3-.1a6.8 6.8 0 0 1 1.5-.2c.9 0 1.2.2 1.2.7a1.34 1.34 0 0 1-.1.5 3.44 3.44 0 0 0-.9-.1zm-.8 3.3a.68.68 0 0 1-.7-.7c0-.7.5-1.1 1.6-1.1h.4c0 1-.6 1.8-1.3 1.8zm7-3.8a15.64 15.64 0 0 1 .8-2.1h-.3c-.6 0-.9.3-1.5 1.2l.2-1.1h-1.6l-1.1 7.3h1.8c.6-4.6.8-5.3 1.7-5.3zm-7.7 9c-2 0-3.2 1.7-3.2 4.3 0 1.8.7 3.3 2.6 3.3s3.2-1.3 3.2-4.3c0-1.9-.9-3.3-2.6-3.3zm-.5 5.8c-.6 0-.9-.6-.9-1.6 0-1.2.5-2.5 1.4-2.5.7 0 .9.7.9 1.5-.1 1.7-.6 2.6-1.4 2.6z"/><path d="M33.7 19c0-2 .9-3.4 2.2-3.4a2.44 2.44 0 0 1 1.5.5l.3-1.9-.4-.2-.7-.2a2 2 0 0 0-.8-.1c-2.3 0-3.8 2.2-3.8 5.4 0 2.4 1.1 3.9 3 3.9a4.43 4.43 0 0 0 1.5-.3l.3-2a3.39 3.39 0 0 1-1.4.5c-1.2 0-1.7-.8-1.7-2.2zm-7.3-3.5h-.2c-.6 0-.9.3-1.4 1.2l.1-1.1h-1.5l-1 7.3h1.7c.6-4.4.8-5.2 1.6-5.2h.1a6.39 6.39 0 0 1 .6-2.2zm21.8-1.6-.4 2.6a1.94 1.94 0 0 0-1.6-1c-1.5 0-2.8 2-2.8 4.5 0 1.8.8 3 2.1 3a1.93 1.93 0 0 0 1.6-.8l-.1.7h1.6l1.3-8.9h-1.7zM46 21.1c-.6 0-.9-.5-.9-1.4 0-1.4.5-2.4 1.3-2.4.6 0 .9.5.9 1.4.1 1.4-.4 2.4-1.3 2.4zM8.8 15.5c-1.7 0-3 1.8-3 4.3 0 2.1 1 3.3 2.9 3.3a4.67 4.67 0 0 0 1.7-.3l.3-1.8a4.07 4.07 0 0 1-1.8.5c-1 0-1.5-.4-1.5-1.3V20h3.4a14.05 14.05 0 0 0 .2-1.8c.1-1.7-.8-2.7-2.2-2.7zm.7 2.9H7.6c.2-.8.5-1.3 1.1-1.3s.8.3.8.9zM29 15.5c-1.7 0-3 1.8-3 4.3 0 2.1 1 3.3 2.9 3.3a4.67 4.67 0 0 0 1.7-.3l.3-1.8a4.07 4.07 0 0 1-1.8.5c-1 0-1.5-.4-1.5-1.3V20H31a14.06 14.06 0 0 0 .2-1.8c.1-1.7-.8-2.7-2.2-2.7zm.7 2.9h-1.9c.2-.8.5-1.3 1.1-1.3s.8.3.8.9zm23-2.9c-1.7 0-3 1.8-3 4.3 0 2.1 1 3.3 2.9 3.3a4.67 4.67 0 0 0 1.7-.3l.3-1.8a4.07 4.07 0 0 1-1.8.5c-1 0-1.5-.4-1.5-1.3V20h3.4a14.06 14.06 0 0 0 .2-1.8c.1-1.7-.8-2.7-2.2-2.7zm.7 2.9h-1.9c.2-.8.5-1.3 1.1-1.3s.8.3.8.9zM4 15.5a2.59 2.59 0 0 1 1.4.4l.4-1.8a3.74 3.74 0 0 0-2-.4c-1.4 0-2.9.7-2.9 3.1 0 2.6 2.5 2 2.5 3.5 0 .9-.8 1.1-1.4 1.1a2.77 2.77 0 0 1-1.6-.5L0 22.8a4.55 4.55 0 0 0 2 .5 2.92 2.92 0 0 0 3.2-3.2c0-2.8-2.5-2.3-2.5-3.6 0-.9.6-1 1.3-1zm7.5 4.2c0 1.8.9 3.3 2.4 3.3a2.81 2.81 0 0 0 1.5-.3l.3-1.9a2.28 2.28 0 0 1-1.1.3c-.7 0-1.2-.7-1.2-1.6 0-1.5.7-2.3 1.6-2.3a2.1 2.1 0 0 1 1.1.4l.4-1.7a3.68 3.68 0 0 0-1.6-.5c-2.1.1-3.4 2-3.4 4.3zm9.3-4.1-.5 3.3c-.1 1.1-.6 2-1.3 2a.71.71 0 0 1-.7-.8c0-.4.1-.7.1-1.1l.5-3.4h-1.8l-.5 3.4a9.24 9.24 0 0 0-.1 1.5c0 1.4.6 2.5 1.6 2.5a2.3 2.3 0 0 0 2-1.3l-.1 1.2h1.6a11.07 11.07 0 0 1 .2-1.9l.8-5.3h-1.8zm34.6 5.9h.4v1.2h.3v-1.2h.4v-.2h-1.1zm1.9.9h-.1l-.2-1.1h-.4v1.4h.3v-1.2l.2 1.2h.3l.2-1.2v1.2h.3v-1.4h-.4z"/></g></svg>