<svg xmlns="http://www.w3.org/2000/svg" width="133" height="36" fill="none" viewBox="0 0 133 36"><path fill="#22174A" d="M75.955 21.12c-1.296 1.11-1.962 1.096-3.21-.102v-3.55c0-1.354-.014-2.708.006-4.06a4.547 4.547 0 0 0-.279-1.668 2.752 2.752 0 0 0-1.185-1.444 2.768 2.768 0 0 0-1.837-.358 2.892 2.892 0 0 0-1.618.8c-.44.431-.73.992-.826 1.6-.05.478-.067.958-.053 1.438-.005 2.052.001 4.104-.003 6.156-.004 1.772-.968 2.432-2.633 1.804a2.04 2.04 0 0 1-.371-.219 1.952 1.952 0 0 1-.369-1.561c-.009-2.27-.007-4.541-.01-6.811a3.153 3.153 0 0 0-.898-2.379 2.787 2.787 0 0 0-2.53-.776 2.788 2.788 0 0 0-2.039 1.683 4.542 4.542 0 0 0-.31 1.791c.017 2.096.007 4.192.006 6.288v1.223c-1.174 1.255-1.982 1.28-3.21.114V7.98c.977-.97 1.345-1.025 2.683-.42.363.308.336.786.566 1.31a4.971 4.971 0 0 1 2.657-1.758 4.582 4.582 0 0 1 3.083.312 5.444 5.444 0 0 1 2.193 2.362c.344.008.423-.28.564-.477a4.997 4.997 0 0 1 2.162-1.867 5.02 5.02 0 0 1 2.835-.38 5.162 5.162 0 0 1 2.576 1.084 5.134 5.134 0 0 1 1.628 2.264c.23.471.366.982.404 1.504.037 3.052.018 6.104.018 9.207Zm-37.257-6.595c0-.524.012-1.049-.002-1.572a6.36 6.36 0 0 1 1.791-4.026 6.404 6.404 0 0 1 3.985-1.907 6.773 6.773 0 0 1 3.858.834 6.738 6.738 0 0 1 2.73 2.84c.254.557.415 1.15.477 1.759.242 1.555.215 3.14-.082 4.685a6.459 6.459 0 0 1-1.522 2.892 6.514 6.514 0 0 1-8.978.598 5.801 5.801 0 0 1-2.267-4.793c.014-.436.002-.873.002-1.31h.008Zm6.407 4.75c.297-.037.59-.097.877-.179a3.1 3.1 0 0 0 1.523-.985 3.082 3.082 0 0 0 .708-1.666 19.98 19.98 0 0 0 .005-3.787 3.085 3.085 0 0 0-1.605-2.343 3.113 3.113 0 0 0-2.846-.053 3.243 3.243 0 0 0-1.807 2.847c-.042.783-.016 1.569-.01 2.354a3.389 3.389 0 0 0 .753 2.583 3.41 3.41 0 0 0 2.402 1.229Zm87.509-4.602c.02.74-.027 1.481-.141 2.214a6.613 6.613 0 0 1-2.24 3.757 6.657 6.657 0 0 1-4.103 1.547 6.393 6.393 0 0 1-4.491-1.732 6.345 6.345 0 0 1-1.996-4.365c.045-.96.037-1.924-.005-2.883a6.151 6.151 0 0 1 1.41-3.934 6.199 6.199 0 0 1 3.604-2.136 6.542 6.542 0 0 1 4.482.579 6.505 6.505 0 0 1 3.027 3.343c.102.287.187.58.254.877.194.897.262 1.817.199 2.733Zm-3.4-.13a11.68 11.68 0 0 1 .01-1.438 3.392 3.392 0 0 0-.892-2.108 3.413 3.413 0 0 0-2.032-1.066 3.286 3.286 0 0 0-2.233.785 3.264 3.264 0 0 0-1.122 2.078 19.673 19.673 0 0 0 .001 3.525c.047.827.42 1.602 1.04 2.155a3.143 3.143 0 0 0 4.427-.24 3.116 3.116 0 0 0 .799-2.254c.016-.478.003-.958.002-1.438Zm-47.057 1a3.197 3.197 0 0 0 .61 2.602 3.218 3.218 0 0 0 2.374 1.241 5.655 5.655 0 0 0 3.573-.563 3.1 3.1 0 0 1 1.257-.49c.784.133 1.087.725 1.257 1.422a1.801 1.801 0 0 1-.887 1.258 8.522 8.522 0 0 1-9.98-.976 5.327 5.327 0 0 1-1.542-3.506c-.042-1.132.013-2.268-.038-3.4a6.058 6.058 0 0 1 1.43-3.919 6.1 6.1 0 0 1 3.63-2.076 6.295 6.295 0 0 1 6.229 1.917 5.393 5.393 0 0 1 1.436 3.949c-.055 1.693-.717 2.388-2.42 2.427-1.885.043-3.772.007-5.657.02a2.994 2.994 0 0 0-1.272.095Zm-.065-2.176c2.02.056 4.043.011 6.06-.134a2.51 2.51 0 0 0-.872-2.998 3.219 3.219 0 0 0-4.995 1.196 3.188 3.188 0 0 0-.193 1.936ZM96.645 7.39c.607.467.533 1.01.885 1.64a4 4 0 0 1 .5-.742 4.909 4.909 0 0 1 6.295-.333 5.68 5.68 0 0 1 2.46 4.441c.094 2.836.025 5.677.021 8.516a.945.945 0 0 1-.071.25c-1.11 1.048-1.824 1.061-3.071.044a10.543 10.543 0 0 1-.078-2.203c-.013-1.79.009-3.582-.009-5.372a3.487 3.487 0 0 0-1.625-3.235 2.883 2.883 0 0 0-4.373 1.765 7.142 7.142 0 0 0-.204 1.816c.018 1.965.01 3.93.004 5.896.043.434.01.873-.098 1.296-1.224 1.052-1.884 1.05-3.108-.064V7.947a1.89 1.89 0 0 1 2.472-.558Zm13.686-6.352c1.304-.845 1.739-.835 3.085.139V6.96c1.529.429 3.08-.23 4.33.398a1.333 1.333 0 0 1 .401.976c.001.887-.346 1.292-1.251 1.32-1.093.034-2.189.008-3.203.008-.346.318-.254.642-.255.935-.007 2.052-.004 4.103-.003 6.154-.007.219-.001.437.02.654a1.708 1.708 0 0 0 1.702 1.672c.522.053 1.054-.003 1.578.04a1.336 1.336 0 0 1 1.273.777c.073.16.113.334.118.51a1.354 1.354 0 0 1-1.3 1.519 8.6 8.6 0 0 1-4.137-.504 3.904 3.904 0 0 1-1.743-1.348 3.874 3.874 0 0 1-.731-2.074 11.194 11.194 0 0 1-.047-1.308c-.003-4.8-.003-9.602 0-14.403a2.547 2.547 0 0 1 .163-1.248ZM27.1 30c.519-.294.726.019.948.184a15.44 15.44 0 0 0 8.606 2.842c3.64.137 7.282-.255 10.81-1.163a74.98 74.98 0 0 1 11.533-1.83 35.276 35.276 0 0 1 7.084.084 4.448 4.448 0 0 1 2.6.83c.075.151.13.312.163.479.083 1.24-.564 1.858-1.757 1.533a26.213 26.213 0 0 0-7.567-.702 66.66 66.66 0 0 0-10.83 1.183 43.815 43.815 0 0 1-10.98.912 18.069 18.069 0 0 1-9.274-2.95A2.897 2.897 0 0 1 27.101 30Zm68.06 4.63a.843.843 0 0 1-.812.63c-1.152-.825-.8-2.204-1.072-3.479-1.017 1.164-1.407 2.838-2.918 3.356a1.028 1.028 0 0 1-.936-.95 9.118 9.118 0 0 1 .948-5.441c.428-.249.703-.252 1.005.146a8.332 8.332 0 0 0-.807 4.875 13.008 13.008 0 0 0 2.86-5.134.665.665 0 0 1 .927.248c-.105 1.95.169 3.901.806 5.748Zm15.983-5.985c.295 1.15.448 2.33.458 3.516.787-1.194.919-2.696 2.291-3.292.918.243 1.014.989 1.039 1.666.056 1.523.017 3.05.017 4.558a.944.944 0 0 1-.67.471 1.742 1.742 0 0 1-.384-.303 1.459 1.459 0 0 1-.129-1.134c.144-1.357.182-2.722.113-4.084a23.14 23.14 0 0 0-2.12 4.369.987.987 0 0 1-.981.162 36.867 36.867 0 0 1-.609-5.494.77.77 0 0 1 .975-.435Zm-4.287.187c.386.682 1.268.804 1.788 1.464.608.772 1.298 1.448.867 2.546a3.279 3.279 0 0 1-2.654 2.266 1.938 1.938 0 0 1-1.834-.494 1.916 1.916 0 0 1-.521-1.82 7.942 7.942 0 0 1 .972-2.963 1.656 1.656 0 0 1 1.382-.998Zm-1.062 4.787a1.303 1.303 0 0 0 1.754.012 1.518 1.518 0 0 0 .758-1.867 11.325 11.325 0 0 0-1.582-1.384 3.802 3.802 0 0 0-.93 3.239Zm-10.867-3.048c.77-.745 1.754-.444 2.627-.9.201-.867-.197-1.93.423-2.819a.65.65 0 0 1 .767-.07c.386.827-.16 1.776.237 2.713.733-.219 1.559-.055 2.043-.703.577.17.807.434.743.955-.663.926-1.86.49-2.794 1.026a10.952 10.952 0 0 0 .202 3.941c-.197.413-.463.492-.945.392-.803-1.204-.216-2.728-.602-4.064-.857-.358-1.91.783-2.7-.47ZM83.37 28.85c.576.143.594 1.037 1.355.694.256.473.594.899.997 1.257A2.023 2.023 0 0 1 86 33.225a3.266 3.266 0 0 1-1.293 1.438 3.284 3.284 0 0 1-1.883.459 1.598 1.598 0 0 1-1.583-1.322 6.022 6.022 0 0 1 1.38-4.62 1.056 1.056 0 0 1 .75-.33Zm-.988 4.678c1.21.778 2.02.401 2.752-1.248-.178-1.012-1.183-1.243-1.826-2.018a5.068 5.068 0 0 0-.926 3.266Zm37.559-4.772a.76.76 0 0 1-.346.768c-1.727.171-1.78.193-2.516 1.054.087.433.478.458.797.552.714.212 1.458.34 2.148.606a1.412 1.412 0 0 1 1.027 1.03 1.402 1.402 0 0 1-.433 1.386 4.296 4.296 0 0 1-3.013 1.415 1.095 1.095 0 0 1-1.043-.465c-.168-.657.249-.942.74-1.163.385-.103.513.347 1.013.324.558-.182 1.401-.213 1.655-1.146-.257-.487-.691-.55-1.121-.649-.597-.138-1.186-.31-1.778-.47a1.66 1.66 0 0 1-1.265-1.12c.112-1.31 1.174-1.793 2.225-2.247 1.016-.44 1.163-.401 1.91.125Zm-43.749 6.128a1.503 1.503 0 0 1 .783-.923c.399-.158.518.326 1.086.255 1.114-.236 1.114-.236 1.631-1.209-1.106-.974-2.834-.533-3.924-1.617a1.437 1.437 0 0 1 .445-1.846 3.929 3.929 0 0 1 3.23-1.11.751.751 0 0 1-.141 1.108c-.902.118-1.978.018-2.584 1.148 1.184.844 2.817.506 3.835 1.582a1.96 1.96 0 0 1-1.148 2.675c-1.458.804-2.337.797-3.213-.063Zm11.777-9.354c.453.225.416.55.41.847-.035 1.824-.014 3.652-.148 5.47-.09.852.019 1.713.316 2.517-.192.57-.573.628-1.053.47a1.756 1.756 0 0 1-.454-1.315c-.012-2.3-.006-4.6.18-6.895.04-.51.158-.948.749-1.094Zm15.147 9.802a.624.624 0 0 1-.537-.43 51.331 51.331 0 0 1-.438-5.836.738.738 0 0 1 .405-.707c.537.03.779.385.806.918.024.478.003.957.014 1.435-.063 1.173.01 2.348.219 3.504.108.418.136.886-.469 1.116Zm.217-8.343c-.678.471-1.138.34-1.522-.132-.132-.445.047-.697.455-.89.528.07.814.446 1.067 1.022Z"/><path fill="#FEFEFE" d="M18.388 19.991c.274.382.546.766.823 1.146a3.27 3.27 0 0 0 4.417.896 3.194 3.194 0 0 0 1.435-1.991 3.174 3.174 0 0 0-.409-2.417c-.727-1.18-1.556-2.299-2.34-3.445a.359.359 0 0 0 0-.11l1.541-2.168 6.162 9.143c.32.486.762.88 1.282 1.142a3.254 3.254 0 0 0 3.944-.82 3.223 3.223 0 0 0 .1-4.011C33.478 14.56 31.585 11.784 29.704 9c-.066-.078-.102-.197-.24-.177l.01.007c.047-.271-.165-.429-.29-.616-.8-1.2-1.607-2.395-2.42-3.586a3.333 3.333 0 0 0-2.925-1.731 3.35 3.35 0 0 0-2.93 1.721 974.854 974.854 0 0 0-2.483 3.639c-.963-1.371-1.89-2.768-2.898-4.106a3.186 3.186 0 0 0-2.358-1.265 3.2 3.2 0 0 0-2.495.971A29.521 29.521 0 0 0 7.287 8.84l.008-.008-.197.188c-.09.13-.181.258-.27.388L1.49 17.29a3.23 3.23 0 0 0-.217 3.673 3.239 3.239 0 0 0 2.073 1.478 3.26 3.26 0 0 0 2.505-.468c.364-.242.675-.555.915-.92 2.09-3.02 4.131-6.07 6.193-9.108.593.566.816 1.416 1.484 1.925l.021.267c-.783 1.178-1.61 2.33-2.337 3.542a3.17 3.17 0 0 0 1.028 4.345 3.25 3.25 0 0 0 4.365-.821c.303-.394.58-.807.87-1.212Z"/><path fill="#29AAE0" d="M12.959 11.945c-2.063 3.037-4.104 6.089-6.194 9.107a3.24 3.24 0 0 1-2.12 1.41 3.258 3.258 0 0 1-3.372-1.5 3.227 3.227 0 0 1 .216-3.672l5.34-7.883c.088-.13.179-.259.269-.388.108-.02.194-.06.197-.189l-.008.01a2.894 2.894 0 0 1 3.652.605 10.27 10.27 0 0 1 2.02 2.5Z"/><path fill="#EBB230" d="M29.704 9c1.882 2.784 3.774 5.56 5.639 8.355a3.222 3.222 0 0 1-.1 4.012 3.254 3.254 0 0 1-3.944.82 3.307 3.307 0 0 1-1.281-1.142 5685.922 5685.922 0 0 1-6.163-9.143 10.192 10.192 0 0 1 1.7-2.15 3.038 3.038 0 0 1 3.92-.922l-.011-.007c.018.142.125.165.24.177Z"/><path fill="#30B57C" d="M29.474 8.83a3.038 3.038 0 0 0-3.92.922c-.66.637-1.232 1.36-1.698 2.15l-1.541 2.168-3.833-5.59-.056-.224 2.483-3.638a3.35 3.35 0 0 1 5.856.01 381.11 381.11 0 0 1 2.42 3.586c.125.187.337.345.289.616Z"/><path fill="#E27A92" d="m18.426 8.257.056.223c-.335.067-.426.374-.582.604-.974 1.43-1.935 2.869-2.906 4.3-.139.204-.204.508-.552.486-.668-.51-.89-1.358-1.484-1.925a10.259 10.259 0 0 0-2.02-2.5 2.888 2.888 0 0 0-3.65-.606 29.517 29.517 0 0 1 3.388-4.982 3.19 3.19 0 0 1 2.495-.972 3.199 3.199 0 0 1 2.358 1.266c1.007 1.338 1.935 2.735 2.897 4.106Z"/><path fill="#DC1F5A" d="M14.443 13.87c.347.022.412-.282.55-.486.973-1.431 1.933-2.87 2.907-4.3.157-.23.248-.537.582-.604l3.833 5.59a.353.353 0 0 1-.001.11l-3.915 5.66-3.936-5.703-.02-.267Z"/><path fill="#E27A92" d="m18.4 19.84 3.914-5.66c.784 1.146 1.613 2.265 2.34 3.445a3.178 3.178 0 0 1-1.026 4.407 3.27 3.27 0 0 1-4.417-.895c-.277-.38-.548-.764-.823-1.145a.317.317 0 0 1 .011-.152Z"/><path fill="#30B57D" d="M18.399 19.84a.318.318 0 0 0-.01.151c-.29.405-.567.818-.87 1.212a3.25 3.25 0 0 1-4.365.82 3.17 3.17 0 0 1-1.028-4.344c.727-1.212 1.555-2.363 2.337-3.542L18.4 19.84Z"/><path fill="#E27A92" d="M7.295 8.83c-.002.128-.09.17-.197.189l.197-.188Z"/><path fill="#30B57C" d="M29.704 9c-.115-.012-.222-.035-.24-.177.139-.02.174.099.24.177Z"/></svg>