<svg xmlns="http://www.w3.org/2000/svg" xml:space="preserve" id="katman_1" x="0" y="0" style="enable-background:new 0 0 337.9 340.7" version="1.1" viewBox="0 0 337.9 340.7"><style>.st0{fill:#ec671b}</style><path d="M0 0h337.9v340.7H0V0zm292.5 246.4v2.2h4.8v13.6h2.6v-13.6h4.9v-2.2h-12.3zm15.4 0v15.7h2.6v-12.9c1.8 4.3 3.4 8.6 5.1 12.9h1.7c1.7-4.3 3.3-8.6 5.1-12.9v12.9h2.6v-15.7h-4c-1.5 3.9-3 7.9-4.5 11.8-1.5-3.9-3.1-7.9-4.6-11.8h-4zM40.1 263.2c-6.6.3-13.2 3.3-17.1 8.7-3.4 4.6-4.7 10.4-4.7 16-.1 5.3 1 10.7 3.8 15.3 2.3 3.7 5.8 6.6 9.8 8.3 4.8 2 10.2 2.3 15.3 1.3 4.7-1 9.2-3.5 12.3-7.2 2.8-3.3 4.4-7.5 5-11.8.7-5 .5-10.1-.9-14.9-1.4-4.5-4.1-8.6-8-11.3-4.5-3.4-10.1-4.7-15.5-4.4zm45 6.7v-5.5H73.3v47.5H86v-31.5c.5-1.5 1.9-2.7 3.3-3.4 3.2-1.5 6.9-1.7 10.4-1.7v-11.8c-5.6-.5-11.1 2.2-14.6 6.4zm30.9-5.1c-4.3 1.4-8.1 4.2-10.7 7.9l8.4 4.8c2.4-3 5.9-5.1 9.8-5.4 2.7-.2 6-.1 8 2.1 1.4 1.6 1 3.8 1 5.8-6.4.8-12.9 1.8-18.9 4.4-3.4 1.5-6.7 3.6-8.7 6.8-2.2 3.6-2.5 8.2-1.2 12.2 1 3.3 3.4 6.1 6.6 7.5 3.6 1.7 7.7 1.6 11.5 1 3.8-.6 7.5-2.1 10.7-4.3.4 1.4.7 2.7 1.1 4.1h11.1c-.1-11 0-22-.1-33 .2-3.2-.4-6.7-2.4-9.3-2.6-3.5-7-5.2-11.2-5.9-5-.4-10.2-.3-15 1.3zm61.7-1c-4.4.9-8.3 3.4-11.9 6-.4-1.9-.8-3.7-1.1-5.6-3.4.5-6.9 1-10.3 1.4v46.2h12.4v-34c2.9-2.4 6.3-4.7 10.1-5.2 1.9-.2 4.2-.1 5.6 1.4 1.4 1.6 1.6 3.9 1.7 6v31.7h12.4v-33.8c0-2.3-.4-4.5-1.1-6.7-1-2.9-3.1-5.3-5.9-6.6-3.7-1.5-8-1.6-11.9-.8zm32.3 6.9c-3.8 5.2-5.1 11.8-5 18.1.1 5.8 1.3 11.8 5 16.4 2.9 3.7 7.4 6 12 6.5 3.4.3 7 .2 10-1.6 2.1-1.2 3.6-3.2 4.8-5.2.1 2 0 4 0 6-.1 2.6-.5 5.5-2.3 7.6-1.7 1.9-4.2 2.5-6.6 2.5-2.5 0-5.2-.1-7.4-1.5-1.1-.7-1.6-1.9-2-3.2-4.1.7-8.2 1.3-12.3 2 .7 3.8 3.4 7.1 6.8 8.9 5.3 2.9 11.5 3.3 17.4 2.7 5.1-.5 10.5-2 14.1-5.8 3.3-3.5 4.3-8.4 4.3-13v-47c-3.5 0-7-.1-10.5 0-.3 1.7-.6 3.5-.9 5.2-1.1-2.3-3.2-3.8-5.5-4.8-3-1.2-6.3-1.5-9.5-1.3-4.9.6-9.5 3.4-12.4 7.5zm51.8-.4c-3.4 4.1-4.9 9.5-5.3 14.7-.4 5.7.2 11.7 2.8 16.9 2 4.1 5.5 7.4 9.7 9.1 5.4 2.2 11.4 2.2 17 1 5.5-1.2 10.7-4.5 13.5-9.5-3.1-1.7-6.1-3.4-9.1-5.1-1.4 2-3 3.8-5.2 4.9-2.4 1.2-5.3 1.4-7.9 1s-5-1.8-6.4-4c-1.7-2.7-2.2-6.1-2.2-9.2H300c.4-4.2 0-8.4-1.2-12.5-1.3-4.4-4-8.4-7.8-10.9-4.7-3.1-10.6-3.7-16.1-3.1-5.2.5-10 2.8-13.1 6.7z" class="st0"/><path d="M271.5 274.6c1.5-1.7 3.8-2.6 6-2.8 2.9-.2 6 .6 7.9 2.8 1.7 1.9 2.3 4.6 2.4 7.1h-19c.2-2.4.9-5.1 2.7-7.1zm-46.3-2.2c2.9-.5 6.1.4 8.2 2.6 2.4 2.5 3.4 6 3.6 9.5.1 2.5 0 5-.4 7.5-.4 2.6-1.3 5.3-3.2 7.2-1.7 1.7-4.2 2.5-6.6 2.5-2.2.1-4.6-.6-6.1-2.3-2.1-2.1-2.8-5.2-3.1-8.1-.3-2.9-.4-5.9 0-8.8.4-2.6 1.2-5.2 2.9-7.2 1.2-1.6 2.8-2.6 4.7-2.9zm-185.7 1.5c3-.5 6.4 0 8.8 2.1 2.2 1.9 3.3 4.8 3.8 7.7.5 3.2.5 6.5-.1 9.7-.6 2.8-1.8 5.6-4.1 7.4-2.6 1.9-6 2.3-9.1 1.6-2.5-.5-4.7-2.1-6-4.4-1.8-3.2-2.2-7-2.2-10.7.1-3.3.7-6.7 2.6-9.5 1.4-2.1 3.8-3.5 6.3-3.9zm81.6 16.4c3.5-1.5 7.3-2.1 11.1-2.6v11.1c-3.2 2.8-7.2 5.1-11.5 5-1.5 0-2.9-.6-3.9-1.6-1.9-2.1-2.2-5.5-.7-8 1.1-1.9 3-3 5-3.9z" class="st0"/><path d="M337.8 0h.3v341H0v-.3h337.9c-.1-113.6-.1-227.2-.1-340.7z" class="st0"/><path d="M292.5 246.4h12.4v2.2H300v13.6h-2.6v-13.6h-4.8c-.1-.7-.1-1.5-.1-2.2zm15.4 0h4c1.5 3.9 3.1 7.9 4.6 11.8 1.5-3.9 3-7.9 4.5-11.8h4v15.7h-2.6v-12.9l-5.1 12.9h-1.7c-1.7-4.3-3.3-8.6-5.1-12.9-.1 4.3 0 8.6 0 12.9h-2.6v-15.7zM40.1 263.2c5.4-.3 11 1 15.5 4.2 3.9 2.7 6.6 6.8 8 11.3 1.5 4.8 1.6 10 .9 14.9-.7 4.3-2.3 8.5-5 11.8-3.1 3.8-7.5 6.3-12.3 7.2-5.1 1.1-10.5.7-15.3-1.3-4-1.6-7.5-4.5-9.8-8.3-2.8-4.5-3.9-10-3.8-15.3 0-5.6 1.3-11.4 4.7-16 3.9-5.3 10.5-8.3 17.1-8.5zm-.6 10.7c-2.5.3-4.9 1.8-6.4 3.9-1.9 2.8-2.4 6.2-2.6 9.5-.1 3.7.3 7.5 2.2 10.7 1.3 2.2 3.5 3.9 6 4.4 3.1.6 6.5.3 9.1-1.6 2.3-1.8 3.5-4.6 4.1-7.4.6-3.2.6-6.5.1-9.7-.5-2.8-1.6-5.7-3.8-7.7-2.3-2-5.6-2.5-8.7-2.1zm45.6-4c3.6-4.2 9.1-6.9 14.6-6.4v11.8c-3.5 0-7.2.2-10.4 1.7-1.4.7-2.8 1.9-3.3 3.4v31.5H73.3v-47.5h11.8v5.5zm30.9-5.1c4.8-1.5 10-1.7 15-1 4.2.7 8.5 2.3 11.2 5.9 2 2.6 2.6 6 2.4 9.3 0 11-.1 22 .1 33h-11.1c-.4-1.4-.7-2.7-1.1-4.1-3.2 2.1-6.9 3.6-10.7 4.3-3.8.6-7.9.7-11.5-1-3.1-1.4-5.6-4.2-6.6-7.5-1.2-4-1-8.6 1.2-12.2 2-3.2 5.3-5.3 8.7-6.8 6-2.6 12.5-3.6 18.9-4.4-.1-1.9.4-4.2-1-5.8-2-2.2-5.2-2.4-8-2.1-3.8.3-7.4 2.4-9.8 5.4l-8.4-4.8c2.6-4 6.4-6.8 10.7-8.2zm5.1 25.5c-1.9.8-3.9 2-5 3.9-1.5 2.4-1.2 5.8.7 8 1 1.1 2.4 1.7 3.9 1.6 4.3.1 8.4-2.2 11.5-5v-11.1c-3.8.5-7.6 1.2-11.1 2.6zm56.6-26.5c3.9-.8 8.2-.6 11.9 1.1 2.8 1.3 4.8 3.7 5.9 6.6.8 2.1 1.1 4.4 1.1 6.7V312h-12.4v-31.7c-.1-2.1-.3-4.4-1.7-6-1.4-1.5-3.7-1.7-5.6-1.4-3.9.5-7.2 2.7-10.1 5.2v34h-12.4v-46.2c3.4-.5 6.9-1 10.3-1.4.3 1.9.7 3.7 1.1 5.6 3.6-2.9 7.4-5.4 11.9-6.3zm32.3 6.9c2.9-4 7.5-6.9 12.5-7.3 3.2-.2 6.5.1 9.5 1.3 2.3.9 4.4 2.5 5.5 4.8.3-1.8.6-3.5.9-5.2 3.5-.1 7 0 10.5 0v47c-.1 4.6-1.1 9.5-4.3 13-3.6 3.9-9 5.3-14.1 5.8-5.9.6-12.1.2-17.4-2.7-3.4-1.8-6-5.1-6.8-8.9 4.1-.7 8.2-1.3 12.3-2 .3 1.2.9 2.4 2 3.2 2.2 1.4 4.9 1.5 7.4 1.5 2.4 0 5-.7 6.6-2.5 1.8-2.1 2.2-4.9 2.3-7.6v-6c-1.2 2-2.7 4-4.8 5.2-3 1.7-6.7 1.9-10 1.6-4.6-.5-9.1-2.8-12-6.5-3.6-4.6-4.9-10.6-5-16.4-.2-6.6 1.1-13.2 4.9-18.3zm15.2 1.7c-1.8.3-3.5 1.3-4.7 2.7-1.7 2-2.5 4.6-2.9 7.2-.4 2.9-.3 5.9 0 8.8s1 5.9 3.1 8.1c1.5 1.7 3.9 2.4 6.1 2.3 2.4.1 4.9-.7 6.6-2.5 1.9-1.9 2.7-4.6 3.2-7.2.4-2.5.5-5 .4-7.5-.2-3.4-1.2-7-3.6-9.5-2.1-2-5.3-2.9-8.2-2.4zm36.6-2.1c3.2-3.9 8-6.2 12.9-6.8 5.5-.6 11.4 0 16.1 3.1 3.9 2.5 6.5 6.5 7.8 10.9 1.2 4 1.6 8.3 1.2 12.5h-31.3c0 3.2.5 6.5 2.2 9.2 1.4 2.2 3.8 3.6 6.4 4s5.5.2 7.9-1c2.2-1.1 3.8-2.9 5.2-4.9 3 1.7 6.1 3.4 9.1 5.1-2.8 5-8 8.3-13.5 9.5-5.6 1.2-11.7 1.2-17-1-4.2-1.7-7.7-5-9.7-9.1-2.6-5.2-3.1-11.2-2.8-16.9.5-5.1 2-10.5 5.5-14.6zm9.7 4.3c-1.8 2-2.5 4.6-2.7 7.2h19c-.1-2.5-.6-5.2-2.4-7.1-2-2.2-5.1-3-7.9-2.8-2.3.1-4.5 1-6 2.7z" style="fill:#fff"/></svg>