<svg xmlns="http://www.w3.org/2000/svg" viewBox="0 0 102.02 25.9"><g fill="#A2A3A7"><path d="M78.52 6h-5.6a.85.85 0 0 0-.8.7l-2.3 14.4a.47.47 0 0 0 .5.5h2.9a.47.47 0 0 0 .5-.5l.6-4.1a.85.85 0 0 1 .8-.7h1.8c3.7 0 5.8-1.8 6.4-5.3a4.19 4.19 0 0 0-.7-3.6 5.33 5.33 0 0 0-4.1-1.4zm.6 5.3c-.3 2-1.8 2-3.3 2H75l.6-3.8a.46.46 0 0 1 .5-.4h.4c1 0 2 0 2.5.6a2 2 0 0 1 .12 1.65zM38.62 6H33a.85.85 0 0 0-.8.7l-2.3 14.4a.47.47 0 0 0 .5.5h2.7a.85.85 0 0 0 .8-.7l.6-3.9a.85.85 0 0 1 .8-.7h1.8c3.7 0 5.8-1.8 6.4-5.3a4.19 4.19 0 0 0-.7-3.6A5.9 5.9 0 0 0 38.62 6zm.6 5.3c-.3 2-1.8 2-3.3 2h-.8l.6-3.8a.46.46 0 0 1 .5-.4h.4c1 0 2 0 2.5.6a3.74 3.74 0 0 1 .1 1.65zm16.1-.05h-2.7a.66.66 0 0 0-.5.4l-.1.7-.2-.3a4 4 0 0 0-3.2-1.1 6.12 6.12 0 0 0-6 5.4 4.77 4.77 0 0 0 1 4.1 4.12 4.12 0 0 0 3.4 1.4 5.1 5.1 0 0 0 3.7-1.5l-.1.7a.47.47 0 0 0 .5.5h2.4a.85.85 0 0 0 .8-.7l1.4-9.2c.1-.1-.1-.4-.4-.4zm-3.7 5.2a3.1 3.1 0 0 1-3 2.6 2.48 2.48 0 0 1-1.8-.7 2.37 2.37 0 0 1-.4-1.9 3 3 0 0 1 3-2.6 2.48 2.48 0 0 1 1.8.7 3 3 0 0 1 .4 1.9zm43.6-5.2h-2.7a.66.66 0 0 0-.5.4l-.1.7-.2-.3a4 4 0 0 0-3.2-1.1 6.12 6.12 0 0 0-6 5.4 4.77 4.77 0 0 0 1 4.1 4.12 4.12 0 0 0 3.4 1.4 5.1 5.1 0 0 0 3.7-1.5l-.1.7a.47.47 0 0 0 .5.5h2.4a.85.85 0 0 0 .8-.7l1.4-9.2c.1-.1-.1-.4-.4-.4zm-3.7 5.2a3.1 3.1 0 0 1-3 2.6 2.48 2.48 0 0 1-1.8-.7 2.37 2.37 0 0 1-.4-1.9 3 3 0 0 1 3-2.6 2.48 2.48 0 0 1 1.8.7 2.47 2.47 0 0 1 .4 1.9zm-21.9-5.2h-2.7a.6.6 0 0 0-.6.3l-3.7 5.5-1.62-5.3a.86.86 0 0 0-.7-.6h-2.6a.44.44 0 0 0-.4.6l3 8.7-2.8 3.9a.45.45 0 0 0 .4.7h2.7a.6.6 0 0 0 .6-.3l9-12.9a.64.64 0 0 0-.58-.6zm28.8-4.8-2.3 14.6a.47.47 0 0 0 .5.5h2.3a.85.85 0 0 0 .8-.7L102 6.45a.47.47 0 0 0-.5-.5h-2.6c-.28.05-.48.3-.48.5z"/><path d="M19 6.85a5 5 0 0 0-1-4.4c-1.1-1.3-3.2-1.9-5.9-1.9H4.42a1.17 1.17 0 0 0-1.1.9l-3.2 20.3a.66.66 0 0 0 .7.8h4.7l-.3 2.1a.6.6 0 0 0 .6.7h4a.82.82 0 0 0 .9-.8v-.2l.8-4.8v-.3a1 1 0 0 1 .9-.8H13c3.9 0 6.9-1.6 7.8-6.1.4-1.9.2-3.5-.8-4.6a2.19 2.19 0 0 0-1-.9" opacity=".68"/><path d="M19 6.85a5 5 0 0 0-1-4.4c-1.1-1.3-3.2-1.9-5.9-1.9H4.42a1.17 1.17 0 0 0-1.1.9l-3.2 20.3a.66.66 0 0 0 .7.8h4.7L6.72 15v.2a1.09 1.09 0 0 1 1.1-.9h2.3c4.4 0 7.9-1.8 8.9-7a.45.45 0 0 1 0-.5" opacity=".7"/><path d="M8 6.85a1.28 1.28 0 0 1 .5-.7.6.6 0 0 1 .4-.1h6a12.75 12.75 0 0 1 2 .1c.2 0 .3.1.5.1s.3.1.5.1.2 0 .2.1a2 2 0 0 1 .8.4 5 5 0 0 0-1-4.4c-1.1-1.3-3.2-1.9-5.9-1.9H4.32a1.17 1.17 0 0 0-1.1.9L0 21.75a.66.66 0 0 0 .7.8h4.7L6.62 15z"/></g></svg>