<svg xmlns="http://www.w3.org/2000/svg" width="152" height="42" fill="none" viewBox="0 0 152 42"><g clip-path="url(#a)"><path fill="#004480" d="M136.729 29.78h3.915V15.983a15.3 15.3 0 0 1 3.845-.428c2.169 0 3.633.71 3.633 3.345v10.88h3.877V18.793c0-4.983-2.738-6.941-7.44-6.941a25.025 25.025 0 0 0-7.83 1.139v16.788ZM129.756 21c0 3.346-.749 5.483-4.236 5.483-3.486 0-4.235-2.137-4.235-5.483 0-3.346.781-5.423 4.235-5.423 3.455 0 4.236 2.099 4.236 5.423Zm-4.236 9.18c5.515 0 8.135-3.627 8.135-9.18 0-5.764-2.419-9.148-8.135-9.148-5.482 0-8.183 3.595-8.183 9.148 0 5.803 2.451 9.18 8.183 9.18Zm-20.748-6.653c0 5.016 2.739 6.621 6.546 6.621a11.584 11.584 0 0 0 4.381-.786l-.607-3.698a9.222 9.222 0 0 1-3.796.78c-1.567 0-2.598-.71-2.598-2.879v-7.652h6.334V12.21h-6.344V7.584h-3.916v15.943ZM97.794 21c0 3.346-.743 5.483-4.235 5.483-3.493 0-4.236-2.137-4.236-5.483 0-3.346.787-5.423 4.236-5.423 3.448 0 4.235 2.099 4.235 5.423Zm-4.208 9.18c5.52 0 8.134-3.627 8.134-9.18 0-5.764-2.419-9.148-8.134-9.148-5.477 0-8.183 3.595-8.183 9.148 0 5.803 2.456 9.18 8.183 9.18Zm-26.54-.4h3.915V15.983c1.258-.31 2.55-.454 3.845-.428 2.17 0 3.628.71 3.628 3.345v10.88h3.877V18.901c0-5.233-2.95-7.05-7.331-7.05-1.357-.027-2.71.14-4.019.5V4.878h-3.915V29.78ZM48.68 37.339h3.915v-7.657a8.188 8.188 0 0 0 2.955.499c5.374 0 8.433-3.449 8.433-9.43 0-5.765-2.712-8.9-8.823-8.9a19.963 19.963 0 0 0-6.508 1.085V37.34h.027ZM60.034 21c0 3.634-.96 5.483-4.664 5.483a5.289 5.289 0 0 1-2.776-.57v-9.967a8.137 8.137 0 0 1 2.744-.39c3.519 0 4.696 1.42 4.696 5.423V21Z"/><path fill="url(#b)" fill-rule="evenodd" d="M12.211 28.836c.098.109.207.217.31.32l.325.314-5.824 7.05c-.33-.293-.656-.597-.97-.911a18.588 18.588 0 0 1-.906-.949l7.05-5.824h.015Zm2.435 2.028-4.338 8.064a20.056 20.056 0 0 1-2.207-1.475l5.797-7.131c.244.179.494.341.748.499v.043Zm-3.796-3.796c.152.25.32.5.5.743l-7.1 5.764a20.343 20.343 0 0 1-1.474-2.201l8.069-4.338.005.032Zm5.835 4.788-2.684 8.726a20.784 20.784 0 0 1-2.446-1.014l4.295-8.086c.275.127.551.24.83.342l.005.032Zm-6.827-6.86c.101.283.215.56.342.83l-8.086 4.3a19.603 19.603 0 0 1-1.014-2.45l8.758-2.68Zm9.013 7.397-.917 9.11a21.26 21.26 0 0 1-2.603-.542l2.641-8.741c.288.07.58.124.879.173Zm-9.582-9.582c.043.293.103.586.173.879L.693 26.325c-.227-.854-.4-1.721-.515-2.597l9.11-.917Zm-.136-2.25v.9l-9.11.884a20.605 20.605 0 0 1 0-2.652l9.11.868Zm11.974 11.962.878 9.116c-.883.054-1.769.054-2.652 0l.879-9.116c.298.017.596.017.895 0Zm2.24-.303 2.64 8.769a21.26 21.26 0 0 1-2.603.542l-.916-9.11c.293-.05.59-.104.878-.174v-.027ZM9.461 18.31c-.07.293-.13.586-.173.884l-9.11-.922c.115-.874.287-1.74.514-2.592l8.77 2.636v-.006Zm16.046 13.172 4.295 8.086a21.46 21.46 0 0 1-2.451 1.014l-2.674-8.758c.275-.101.552-.215.83-.342ZM10.216 16.136a10.05 10.05 0 0 0-.347.83l-8.747-2.712c.288-.838.63-1.657 1.025-2.451l8.069 4.338v-.005Zm17.239 14.186 5.797 7.11a21.68 21.68 0 0 1-2.207 1.474l-4.333-8.042c.255-.157.499-.32.743-.499v-.043ZM11.349 14.216a9.347 9.347 0 0 0-.499.743l-8.063-4.338c.445-.764.938-1.5 1.475-2.202l7.087 5.797ZM36.213 34.66c-.293.33-.591.65-.906.965-.314.315-.64.618-.97.911l-5.825-7.066.326-.314.309-.32 7.066 5.824ZM7.022 5.47l5.824 7.049-.325.314a8.486 8.486 0 0 0-.31.32L5.162 7.33c.288-.325.592-.65.907-.965.314-.315.64-.618.97-.906l-.016.011Zm31.56 25.899a20.257 20.257 0 0 1-1.474 2.206l-7.093-5.797c.178-.243.347-.493.498-.742l8.07 4.338v-.005ZM10.315 3.099l4.338 8.064a13.81 13.81 0 0 0-.748.499l-5.8-7.087c.703-.54 1.44-1.033 2.207-1.476Zm29.944 24.576a19.602 19.602 0 0 1-1.014 2.452l-8.085-4.3c.123-.272.237-.548.341-.83l8.758 2.678ZM14.023 1.413l2.668 8.763a9.748 9.748 0 0 0-.83.342l-4.29-8.09a21.394 21.394 0 0 1 2.452-1.015ZM41.18 23.728a20.358 20.358 0 0 1-.542 2.597l-8.742-2.635c.07-.293.13-.586.174-.879l9.11.917ZM17.954.497l.917 9.11c-.298.049-.591.108-.879.173l-2.64-8.741a21.224 21.224 0 0 1 2.602-.542Zm23.362 19.18c.06.88.06 1.765 0 2.646l-9.11-.873v-.9l9.11-.873ZM22.006.36l-.88 9.116h-.894L19.353.36a21.628 21.628 0 0 1 2.652 0Zm18.659 15.32c.237.852.418 1.72.542 2.597l-9.11.922a9.754 9.754 0 0 0-.174-.884l8.742-2.636ZM26.023 1.038 23.366 9.78a15.646 15.646 0 0 0-.878-.173l.916-9.11c.878.115 1.747.285 2.603.51l.016.032Zm3.796 1.42-4.31 8.064a9.22 9.22 0 0 0-.83-.347l2.673-8.758a21.46 21.46 0 0 1 2.451 1.014l.016.028Zm9.42 9.425c.39.795.73 1.613 1.014 2.451L31.5 17.047c-.103-.277-.222-.542-.347-.83l8.086-4.333Zm-6.003-7.32-5.808 7.093a13.856 13.856 0 0 0-.748-.5l4.338-8.068c.767.442 1.505.935 2.207 1.475h.01Zm3.85 3.839c.538.7 1.03 1.433 1.475 2.196l-8.058 4.338c-.158-.255-.32-.504-.5-.748l7.083-5.802v.016Zm-2.75-2.934c.331.288.651.591.971.906.32.314.613.629.906.965l-7.05 5.83a5.334 5.334 0 0 0-.309-.326l-.325-.314 5.824-7.05-.017-.01Z" clip-rule="evenodd"/></g><defs><linearGradient id="b" x1="3.728" x2="37.618" y1="9.149" y2="32.881" gradientUnits="userSpaceOnUse"><stop offset=".19" stop-color="#71D7FC"/><stop offset=".29" stop-color="#67CAF1"/><stop offset=".47" stop-color="#4EA9D5"/><stop offset=".7" stop-color="#2574A9"/><stop offset=".89" stop-color="#004480"/></linearGradient><clipPath id="a"><path fill="#fff" d="M0 .32h152v41.36H0z"/></clipPath></defs></svg>