<svg xmlns="http://www.w3.org/2000/svg" width="40" height="40" fill="none" viewBox="0 0 40 40"><rect width="36" height="36" x="2" y="2" fill="#FF5913" rx="18"/><path fill="#fff" d="M21.703 18.681H32v1.978C32 27.714 27.054 32 20.548 32 13.245 32 8 26.66 8 20.033 8 13.341 13.344 8 20.183 8c2.354 0 4.512.61 6.314 1.643l-2.479 4.506c-1.04-.617-2.368-1.006-3.869-1.006-3.917 0-6.838 2.868-6.838 6.923 0 3.923 2.789 6.791 7.303 6.791 3.087 0 5.112-1.351 5.942-3.56h-7.562l2.71-4.616Z"/><rect width="36" height="36" x="2" y="2" stroke="#382F6C" stroke-width="4" rx="18"/></svg>