<svg xmlns="http://www.w3.org/2000/svg" width="151" height="42" fill="none" viewBox="0 0 151 42"><path fill="#000" d="M97.259 27.372V12.565a.568.568 0 0 1 .387-.073h12.562a5.67 5.67 0 0 1 2.482.48 2.89 2.89 0 0 1 1.111.886c.292.385.484.837.56 1.315.132.583.139 1.188.021 1.775a4.208 4.208 0 0 1-.707 1.625c-.092.128-.206.24-.315.366-.039.153.034.24.164.327a4.617 4.617 0 0 1 1.889 2.87 4.656 4.656 0 0 1-.607 3.393c-.334.494-.772.91-1.281 1.215a4.034 4.034 0 0 1-1.669.554c-.392.06-.789.09-1.186.09-4.335.008-8.669.01-13.004.006-.122 0-.245-.013-.407-.022Zm5.465-4.098c.073.024.148.04.223.05 2.052 0 4.104.01 6.155-.012.815-.008 1.015-.308.873-1.172a1.626 1.626 0 0 0-1.082-.393c-1.927.009-3.854.004-5.781.007a.453.453 0 0 0-.388.098v1.422Zm-.006-7.053v1.37a.443.443 0 0 0 .366.099c.669 0 1.338.002 2.007-.001 1.066-.006 2.132-.006 3.197-.027a.646.646 0 0 0 .497-.198.668.668 0 0 0 .186-.506.651.651 0 0 0-.128-.54.632.632 0 0 0-.497-.234 4.416 4.416 0 0 0-.712-.04c-1.373-.002-2.745 0-4.117.007a1.809 1.809 0 0 0-.799.07Zm-26.4 1.224c-.211.158-.43.046-.638.047-1.464.005-2.928-.004-4.392.002a.456.456 0 0 1-.492-.27.684.684 0 0 0-.468-.376 16.052 16.052 0 0 0-5.977-.115c-.275.044-.503.185-.487.518.016.347.28.392.55.44 1.555.171 3.118.262 4.683.27 1.53.052 3.053.245 4.548.576 1 .183 1.913.696 2.593 1.46.608.814.88 1.836.759 2.85a4.1 4.1 0 0 1-.436 1.804 4.054 4.054 0 0 1-1.185 1.421 6.916 6.916 0 0 1-2.888 1.146c-2.341.39-4.72.496-7.086.318a15.42 15.42 0 0 1-4.078-.693 4.447 4.447 0 0 1-2.302-1.651 4.525 4.525 0 0 1-.853-2.72.376.376 0 0 1 .08-.296.573.573 0 0 1 .356-.046c1.52-.002 3.041.003 4.562-.006a.54.54 0 0 1 .6.37 1.147 1.147 0 0 0 .85.562c.976.221 1.977.31 2.976.261 1.11.067 2.225.003 3.32-.19.088-.022.174-.053.26-.081a.454.454 0 0 0 .342-.46.496.496 0 0 0-.34-.5 4.43 4.43 0 0 0-1.236-.21c-1.74-.194-3.495-.088-5.232-.29a14.813 14.813 0 0 1-3.78-.796 3.982 3.982 0 0 1-1.885-1.493 4.047 4.047 0 0 1 .057-4.616 3.98 3.98 0 0 1 1.92-1.446 14.957 14.957 0 0 1 5.324-.96c1.6-.08 3.203.008 4.785.261a7.784 7.784 0 0 1 3.645 1.409c.5.389.905.89 1.18 1.465.275.575.414 1.207.404 1.845a.825.825 0 0 1-.039.19Zm57.121-4.875a.53.53 0 0 1 .377-.077c3.766 0 7.532 0 11.298.003a5.276 5.276 0 0 1 2.223.413 5.327 5.327 0 0 1 1.853 1.307 4.773 4.773 0 0 1 1.361 3.443 7.887 7.887 0 0 1-.208 2.515 5.511 5.511 0 0 1-1.971 2.719c-.082.06-.163.123-.241.19a.386.386 0 0 0-.056.095l2.525 4.119a.944.944 0 0 1-.646.09c-1.803.007-3.607.001-5.41.01a.57.57 0 0 1-.591-.34c-.527-.972-1.087-1.925-1.638-2.883a.483.483 0 0 0-.421-.255c-.952-.003-1.905.002-2.857.006-.03 0-.06.03-.132.066v3.361h-5.466V12.57Zm5.491 6.57c.054.03.073.052.093.052 1.746-.002 3.492.004 5.238-.016a.79.79 0 0 0 .754-.382 1.04 1.04 0 0 0 .05-1.148 1.023 1.023 0 0 0-1.031-.484c-1.611-.009-3.222 0-4.833 0a.308.308 0 0 0-.271.082v1.895Zm-16.982 2.692c.043.349.075.7.132 1.046.041.246.247.227.431.227l9.19-.002a.761.761 0 0 1 .467.064c0 .342.007.682-.001 1.021-.024.951-.065 1.902-.078 2.853-.005.345-.206.353-.45.353-3.075-.002-6.149-.002-9.224-.002h-5.928v-14.86h15.542c.129.254.005.466.008.679.019 1.077.016 2.155.034 3.232.007.36-.22.338-.455.338l-7.964-.001c-.432 0-.863-.002-1.294.002-.144.001-.298-.024-.402.09v1.158a.624.624 0 0 0 .471.097c3.04.002 6.081.007 9.121-.006.442-.002.55.138.526.587-.047.857-.022 1.719.008 2.577.012.331-.075.457-.409.456-3.097-.008-6.195-.01-9.292-.006a.543.543 0 0 0-.433.097Zm-45.434 5.526c.086-.411.236-.805.444-1.169.587-1.496 1.212-2.977 1.826-4.462.732-1.768 1.47-3.534 2.198-5.304.5-1.212.994-2.427 1.472-3.648a.37.37 0 0 1 .398-.285c2.53.001 5.06 0 7.59-.003a.368.368 0 0 1 .387.261 4000.318 4000.318 0 0 0 5.893 14.359c.02.06.034.12.042.182-.084.141-.207.107-.316.107-1.758.001-3.517-.003-5.275.005a.474.474 0 0 1-.347-.083.484.484 0 0 1-.194-.303c-.21-.651-.479-1.282-.712-1.926a.488.488 0 0 0-.522-.375c-1.838.013-3.676.013-5.514.001-.334-.002-.458.187-.554.45-.23.63-.465 1.259-.69 1.89a.436.436 0 0 1-.445.343c-1.827-.004-3.653-.002-5.48-.003a1.306 1.306 0 0 1-.2-.037Zm10.259-10.806c-.107-.049-.207-.018-.233.047-.522 1.3-.891 2.66-1.532 3.913a.251.251 0 0 0 .02.27h3.294c-.55-1.447-1.121-2.82-1.55-4.23ZM60.768 36.067H58.8l-.408.936h-.545l1.678-3.744h.523l1.683 3.744h-.556l-.407-.936Zm-.185-.428-.8-1.834-.798 1.834h1.598Zm4.884-2.379v3.743h-.434l-2.223-2.791v2.79h-.529V33.26h.434l2.222 2.791V33.26h.53Zm5.222 3.278v.465H68V33.26h2.614v.465H68.53v1.15h1.857v.454H68.53v1.209h2.159Zm4.291.465-.005-2.727-1.339 2.272h-.243l-1.339-2.256v2.71h-.508V33.26h.434l1.545 2.63 1.524-2.63h.434l.005 3.743h-.508Zm4.619-1.613a.95.95 0 0 1 .185.602.874.874 0 0 1-.362.749 1.79 1.79 0 0 1-1.056.262H76.6V33.26h1.661c.346-.022.69.068.982.256a.83.83 0 0 1 .346.712.88.88 0 0 1-.497.834.95.95 0 0 1 .508.329Zm-2.471-1.697v1.198h1.085c.219.013.437-.04.627-.153a.558.558 0 0 0 .22-.446.566.566 0 0 0-.22-.447 1.092 1.092 0 0 0-.627-.152h-1.085Zm1.894 2.727a.52.52 0 0 0 .228-.47c0-.418-.302-.626-.905-.626h-1.217v1.246h1.217c.235.015.47-.037.677-.15Zm4.058.583-.799-1.15c-.099.007-.176.01-.233.01h-.915v1.14h-.53v-3.744h1.445c.407-.023.808.1 1.133.348a1.179 1.179 0 0 1 .412.957c.008.263-.066.52-.211.738-.15.21-.36.365-.604.444l.879 1.257h-.577Zm-.28-1.813a.863.863 0 0 0 .195-.964.862.862 0 0 0-.195-.285 1.186 1.186 0 0 0-.768-.216h-.9v1.684h.9c.273.019.545-.059.768-.22Zm4.01.877h-1.968l-.407.936h-.545l1.677-3.743h.524l1.682 3.743h-.555l-.408-.936Zm-.185-.428-.799-1.834-.799 1.834h1.598Zm2.299 1.158a1.819 1.819 0 0 1-.701-.684 2.021 2.021 0 0 1 0-1.963 1.81 1.81 0 0 1 .704-.685 2.043 2.043 0 0 1 1.005-.248 2.08 2.08 0 0 1 .793.147c.236.095.446.244.614.436l-.344.337a1.38 1.38 0 0 0-1.042-.444 1.49 1.49 0 0 0-.746.187 1.35 1.35 0 0 0-.521.516 1.532 1.532 0 0 0 0 1.47c.123.218.303.396.521.516.229.127.486.191.746.188a1.37 1.37 0 0 0 1.042-.45l.344.337a1.64 1.64 0 0 1-.616.439 2.067 2.067 0 0 1-.796.15 2.01 2.01 0 0 1-1.003-.25Zm5.86-.259v.465h-2.688V33.26h2.614v.465h-2.085v1.15h1.858v.454h-1.858v1.209h2.16Zm3.334.465-.8-1.15c-.098.007-.176.01-.232.01h-.915v1.14h-.53v-3.744h1.445c.406-.023.808.1 1.132.348a1.179 1.179 0 0 1 .413.957c.008.263-.066.52-.212.738a1.19 1.19 0 0 1-.603.444l.879 1.257h-.577Zm-.28-1.813a.864.864 0 0 0 .195-.964.862.862 0 0 0-.196-.285 1.186 1.186 0 0 0-.767-.216h-.9v1.684h.9c.273.019.544-.059.767-.22Zm9.634 1.813-.799-1.15c-.099.007-.177.01-.233.01h-.915v1.14h-.529v-3.744h1.444c.406-.023.808.1 1.132.348a1.178 1.178 0 0 1 .413.957c.008.263-.066.52-.212.738a1.19 1.19 0 0 1-.603.444l.879 1.257h-.577Zm-.281-1.813a.851.851 0 0 0 .265-.624.88.88 0 0 0-.265-.625 1.183 1.183 0 0 0-.767-.216h-.899v1.684h.899c.273.019.545-.059.768-.22h-.001Zm2.313 1.607a1.831 1.831 0 0 1-.707-.687 1.994 1.994 0 0 1 0-1.957 1.83 1.83 0 0 1 .707-.687 2.168 2.168 0 0 1 2.016 0c.292.158.536.395.703.684a2.015 2.015 0 0 1 0 1.963 1.805 1.805 0 0 1-.703.684 2.17 2.17 0 0 1-2.016 0Zm1.743-.414c.214-.122.392-.3.514-.516a1.533 1.533 0 0 0 0-1.47 1.371 1.371 0 0 0-.514-.517 1.441 1.441 0 0 0-.733-.187 1.475 1.475 0 0 0-.738.187c-.216.12-.395.3-.518.516a1.534 1.534 0 0 0 0 1.47c.123.217.302.396.518.517.226.126.481.19.738.187.257.004.51-.06.733-.187Zm-6.7-1.251c0 .108-.008.216-.024.324a1.87 1.87 0 0 1-.23.657 1.904 1.904 0 0 1-.308.393h-.002a1.855 1.855 0 0 1-.394.291 1.956 1.956 0 0 1-.868.244 2.138 2.138 0 0 1-.137.004 2.043 2.043 0 0 1-1.011-.248 1.971 1.971 0 0 1-.109-.066 1.218 1.218 0 0 1-.101-.069l-.004-.003a1.818 1.818 0 0 1-.426-.443l-.034-.052c-.012-.017-.022-.035-.033-.054a2.143 2.143 0 0 1-.156-.343.78.78 0 0 1-.028-.095.516.516 0 0 1-.016-.057c-.009-.03-.014-.062-.021-.093-.006-.036-.013-.072-.017-.108l-.005-.034a2.09 2.09 0 0 1-.01-.115 1.834 1.834 0 0 1 .002-.283 2.212 2.212 0 0 1 .055-.351l.006-.023.035-.118c.041-.117.092-.23.155-.337.168-.29.413-.528.707-.687l.028-.016.029-.014a1.825 1.825 0 0 1 .491-.172c.064-.013.13-.023.197-.032a2.018 2.018 0 0 1 .403-.011 1.997 1.997 0 0 1 1.231.505l.01.01.055.059-.328.33a1.48 1.48 0 0 0-1.074-.432h-.031a1.468 1.468 0 0 0-.96.343l-.011.008-.046.043-.011.012a1.004 1.004 0 0 0-.122.136l-.024.033a.338.338 0 0 0-.034.049 1.436 1.436 0 0 0-.129.244c-.006.014-.012.027-.016.041a.972.972 0 0 0-.041.13 1.515 1.515 0 0 0-.044.55.6.6 0 0 0 .008.072 1.168 1.168 0 0 0 .083.321.384.384 0 0 0 .027.065 1.352 1.352 0 0 0 .582.643 1.43 1.43 0 0 0 .738.187l.101-.002a1.428 1.428 0 0 0 .793-.293c.143-.111.262-.25.351-.409a1.34 1.34 0 0 0 .156-.41h-1.146v-.475h1.702c.004.049.006.099.006.15Zm9.121 1.486a1.692 1.692 0 0 1-.413-1.23V33.26h.529v2.107c0 .802.348 1.203 1.043 1.203a1 1 0 0 0 .778-.297 1.31 1.31 0 0 0 .269-.906V33.26h.514v2.128a1.697 1.697 0 0 1-.413 1.233 1.777 1.777 0 0 1-2.307-.003Zm6.381-3.011a1.31 1.31 0 0 1 .413.957 1.32 1.32 0 0 1-.413.958 1.702 1.702 0 0 1-1.132.347h-.915v1.134h-.53v-3.744h1.445c.406-.023.808.1 1.132.348Zm-.381 1.58a.863.863 0 0 0 0-1.246 1.183 1.183 0 0 0-.767-.216h-.899v1.679h.899a1.18 1.18 0 0 0 .767-.217Zm3.701 1.61a1.817 1.817 0 0 1-.701-.684 2.027 2.027 0 0 1 0-1.963c.168-.29.412-.526.704-.685a2.044 2.044 0 0 1 1.005-.248c.272-.003.541.047.794.147.235.095.445.244.614.436l-.344.337a1.387 1.387 0 0 0-1.043-.444 1.49 1.49 0 0 0-.746.187c-.217.12-.398.299-.521.516a1.534 1.534 0 0 0 0 1.47c.123.218.304.396.521.516.229.127.486.191.746.188a1.37 1.37 0 0 0 1.043-.45l.344.337c-.17.193-.381.343-.617.439a2.066 2.066 0 0 1-.796.15c-.35.005-.695-.08-1.003-.25Zm3.754 0a1.829 1.829 0 0 1-.706-.687 1.995 1.995 0 0 1 0-1.957 1.83 1.83 0 0 1 .706-.687 2.17 2.17 0 0 1 2.016 0c.292.158.536.395.704.684a2.026 2.026 0 0 1 0 1.963 1.814 1.814 0 0 1-.704.684 2.167 2.167 0 0 1-2.016 0Zm1.744-.414c.214-.122.391-.3.513-.516a1.534 1.534 0 0 0 0-1.47 1.368 1.368 0 0 0-.513-.517 1.446 1.446 0 0 0-.733-.187 1.47 1.47 0 0 0-.738.187c-.217.12-.396.3-.519.516a1.534 1.534 0 0 0 0 1.47c.123.217.302.396.519.517.225.126.48.19.738.187.256.004.509-.06.733-.187Zm5.473.62-.005-2.727-1.339 2.272h-.243l-1.339-2.256v2.71h-.508V33.26h.434l1.545 2.63 1.524-2.63h.434l.005 3.743h-.508Zm4.196-3.396a1.31 1.31 0 0 1 .412.957 1.319 1.319 0 0 1-.412.958 1.705 1.705 0 0 1-1.133.347h-.915v1.134h-.529v-3.744h1.444c.407-.023.808.1 1.133.348Zm-.381 1.58a.86.86 0 0 0 .264-.623.858.858 0 0 0-.264-.623 1.187 1.187 0 0 0-.767-.216h-.9v1.679h.9c.272.019.543-.058.767-.217Zm3.746.88h-1.968l-.407.936h-.545l1.677-3.743h.524l1.682 3.743h-.555l-.408-.936Zm-.185-.428-.799-1.834-.799 1.834h1.598Zm4.884-2.379v3.743h-.434l-2.223-2.791v2.79h-.529V33.26h.434l2.222 2.791V33.26h.53Zm2.529 2.449v1.294h-.524v-1.305l-1.471-2.438h.566l1.185 1.973 1.191-1.973h.524l-1.471 2.449ZM40.274 16.92a2.82 2.82 0 0 0-.898.041c-.678.109-1.358.213-2.03.355-.733.154-1.468.304-2.188.525-.909.278-1.818.552-2.713.873-.768.268-1.522.576-2.258.925-.652.303-1.284.647-1.895 1.027a9.211 9.211 0 0 0-3.041 3.044 9.202 9.202 0 0 0-1.174 3.806 12.3 12.3 0 0 0 .16 3.913 5.916 5.916 0 0 0 1.878 3.437 4.584 4.584 0 0 0 2.915 1.017c.447.04.898-.006 1.329-.136a.101.101 0 0 1 .136.06 1.251 1.251 0 0 1-.33.378 39.107 39.107 0 0 1-4.37 3.673c-.603.44-1.222.857-1.833 1.285a.285.285 0 0 1-.297.014l-4.702-2.013c-.549-.235-1.097-.473-1.66-.716.09-.25.214-.485.367-.702a13.85 13.85 0 0 0 1.268-3.464 9.786 9.786 0 0 0 .147-3.398 6.748 6.748 0 0 0-.764-2.274 9.258 9.258 0 0 0-2.115-2.67 15.166 15.166 0 0 0-2.34-1.681 18.457 18.457 0 0 0-4.632-1.945.761.761 0 0 1-.105-.05 26.294 26.294 0 0 1 9.765-8.88.95.95 0 0 0-.581.139c-1.05.467-2.11.917-3.141 1.424a24.6 24.6 0 0 0-2.15 1.224 23.812 23.812 0 0 0-4.612 4.323 26.723 26.723 0 0 0-1.754 2.178 1.59 1.59 0 0 0-.39.671c.598.248 1.201.432 1.803.616 1.454.391 2.87.912 4.232 1.558a9.277 9.277 0 0 1 3.948 3.748c.076.136.225.241.184.477-4.434 2.145-9.151 3.715-13.525 6.17A50.732 50.732 0 0 0 .6 3.402h20.83c-.585 1.445-1.055 2.911-1.655 4.333.251-.235.467-.505.642-.801a38.795 38.795 0 0 1 3.567-4.595A6.498 6.498 0 0 1 25.911.914c.368-.175.485-.144.733.174.705.9 1.422 1.792 2.127 2.693a.825.825 0 0 0 .603.247c1.931.3 3.86.612 5.797.87.815.166 1.6.463 2.323.878 3.232 1.542 6.457 3.099 9.687 4.646a.466.466 0 0 1 .302.415 11.227 11.227 0 0 1-.273 3.612 30.287 30.287 0 0 1-2.088 6.044 62.794 62.794 0 0 1-2.297 4.59c-.79 1.438-1.646 2.836-2.517 4.225a9.06 9.06 0 0 1-1.129 1.557 55.704 55.704 0 0 0 5.475-14.302l-1.623-.084c-.985 5.777-3.842 10.598-7.2 15.224a.278.278 0 0 1 .008-.341c.71-1.458 1.292-2.97 1.9-4.471a85.529 85.529 0 0 0 1.608-4.3c.37-1.041.669-2.107.897-3.189.079-.65.099-1.307.06-1.962a1.103 1.103 0 0 0-.03-.52Zm-6.352-9.716c.09.14 3.937 2.814 4.082 2.835a.265.265 0 0 0 .04-.25 20.268 20.268 0 0 1-.361-2.242c-.047-.33-.165-.418-.469-.418-1.024 0-2.049.04-3.073-.026-.09-.006-.18-.005-.219.101Z"/></svg>