<svg width="216" height="48" viewBox="0 0 216 48" fill="none" xmlns="http://www.w3.org/2000/svg">
<g clip-path="url(#clip0_1383_1327)">
<path d="M0.203369 0H112.255V47.6727C111.987 47.6912 111.719 47.7259 111.451 47.7259C74.6501 47.7283 37.8491 47.7291 1.04809 47.7282H0.203394L0.203369 0ZM79.4101 25.0755L79.1639 25.367L79.3097 25.4355L79.3985 25.0535L79.5387 25.0755H79.4101ZM78.3045 8.91189C78.0947 9.10408 78.0677 9.29488 78.1847 9.46702L78.2855 8.88957L78.6734 9.0716L78.5994 8.44929L78.3045 8.91189ZM97.625 17.8046C98.1531 18.1903 98.0736 18.668 97.876 19.1994C96.4567 23.0165 95.0447 26.8363 93.6401 30.6588C93.5333 30.9483 93.4469 31.2452 93.3402 31.5721H97.3431L100.165 23.9666L100.314 23.9946L103.213 31.5601H107.335C107.199 31.1952 107.091 30.892 106.973 30.5924C105.488 26.801 103.998 23.011 102.505 19.2224C102.42 19.0286 102.375 18.8194 102.373 18.6077C102.371 18.396 102.413 18.1861 102.494 17.9908C103.728 14.7382 104.935 11.4754 106.149 8.21499C106.372 7.61363 106.588 7.00902 106.828 6.34736H102.792L100.315 13.5706C99.8852 12.595 99.4866 11.7732 99.1591 10.9241C98.8083 10.0771 98.5219 9.20475 98.3023 8.31462C98.1642 7.49254 98.0758 6.6629 98.0376 5.83018C97.9209 5.76168 97.7444 5.72027 97.7052 5.62332C97.6557 5.50365 97.5794 5.39686 97.4823 5.31121C97.3852 5.22555 97.2697 5.16332 97.1448 5.12917C96.9892 5.06926 96.5042 5.09912 96.7948 4.65436C96.7514 5.00707 96.4552 4.91987 96.2413 4.95585C96.1948 4.96366 96.1286 4.85478 96.1145 4.8412C95.5325 5.14023 96.2239 5.93329 95.4092 6.15781L94.7491 5.19466L95.1864 4.96456V3.98538C95.0252 4.04348 94.9081 4.09293 94.7867 4.12737C94.6575 4.16407 94.5241 4.18651 94.3926 4.21518C94.3576 4.23816 94.3246 4.26404 94.2939 4.29238C94.0466 4.14987 93.9489 4.42402 93.7958 4.46541C93.1441 4.64172 93.0432 4.65569 92.9516 5.11415C92.6764 6.09903 92.5587 7.12117 92.6028 8.14279C92.6006 8.31442 92.6331 8.4848 92.6984 8.64355C92.7637 8.80229 92.8604 8.94615 92.9827 9.0666C93.2653 9.31432 93.5072 9.60843 93.7613 9.87625L94.908 9.94864C94.4167 10.6665 95.1613 10.8556 95.25 11.312L94.7713 11.6768C95.4224 11.5505 95.6437 11.8718 95.7097 12.3019C95.7727 12.7777 95.8105 13.2564 95.823 13.7362C95.8401 14.1031 95.8264 14.4715 95.8264 14.9266L96.5766 14.6116C96.9833 15.3647 97.2105 16.2016 97.2405 17.057C97.3226 17.0707 97.4004 17.1035 97.4676 17.1526C97.5348 17.2018 97.5896 17.266 97.6275 17.3401C97.6655 17.4142 97.6856 17.496 97.6862 17.5793C97.6868 17.6625 97.6679 17.7448 97.6311 17.8195L97.4627 18.1671L97.571 18.2137L97.625 17.8046ZM79.7447 21.7649V21.1485L79.581 21.1773L79.7697 21.7425L80.0062 22.0902L80.0934 21.6277L80.2853 21.6537L80.1171 23.2696C80.1582 23.5228 80.2176 23.7657 80.2341 24.0114C80.2505 24.9817 80.3169 25.9505 80.4331 26.914C80.5198 27.6864 80.7905 28.4267 81.2224 29.0729C81.8287 29.7974 82.5686 30.3987 83.4018 30.8439C84.2601 31.3072 85.223 31.5426 86.1982 31.5275C87.1735 31.5125 88.1286 31.2476 88.9723 30.7581C89.816 30.2686 90.52 29.5709 91.017 28.7317C91.5141 27.8925 91.7876 26.9397 91.8114 25.9646C91.8424 21.1328 91.8548 16.3002 91.8032 11.4688C91.8109 10.3489 91.4735 9.25389 90.837 8.33244C90.2005 7.41099 89.2958 6.70782 88.2457 6.31852C87.2098 5.86564 86.0614 5.73603 84.9506 5.94654C83.8398 6.15704 82.8184 6.69788 82.0201 7.49835C81.4031 8.08877 80.9154 8.8008 80.5877 9.58938C80.2601 10.3779 80.0996 11.2258 80.1165 12.0796C80.1377 14.8986 80.0815 17.7188 80.214 20.5365C80.2521 20.7216 80.2507 20.9126 80.2099 21.0971C80.0779 21.335 79.9221 21.5587 79.7447 21.7649ZM40.3086 23.3279C40.4207 23.4586 40.5168 23.6022 40.595 23.7556C40.9972 24.8437 41.3819 25.9382 41.7766 27.0291C42.3254 28.546 42.878 30.0615 43.4191 31.5504H46.9578V6.05978H43.3785V20.4427C43.2319 20.3268 43.1235 20.1695 43.0675 19.9912C42.4312 18.2126 41.7724 16.4414 41.1737 14.6503C40.5804 13.3242 40.1851 11.9181 40.0004 10.4771C39.9972 10.3775 39.9647 10.2287 39.8961 10.1893C39.2463 9.81617 39.2962 9.09007 39.0356 8.52319C39.0188 8.47833 39.0174 8.42912 39.0317 8.38341L39.6151 8.26125L39.5917 8.09733H38.9078L38.1123 5.96246C37.6451 6.22895 37.2796 5.82634 36.82 5.89467C36.3137 5.95101 35.8046 5.97798 35.2952 5.97547C34.9554 5.98614 34.6149 5.97748 34.2868 5.97748C34.2585 6.08961 34.2377 6.20358 34.2248 6.31852C34.2218 7.5887 34.251 8.85974 34.2137 10.1289C34.177 11.3816 34.0736 12.6325 34.0005 13.8842C33.9957 13.965 34.0278 14.0633 33.9921 14.1234C33.9349 14.2192 33.7602 14.3008 33.7702 14.3687C33.7872 14.4852 33.9643 14.5804 33.9769 14.6951C34.0719 15.5668 34.184 16.4397 34.2122 17.3148C34.2514 18.5297 34.2237 19.7467 34.221 20.9629C34.2203 21.2772 34.2886 21.5958 33.8899 21.7868C33.7203 21.8731 33.5275 21.9033 33.3396 21.873C33.1517 21.8426 32.9783 21.7533 32.8444 21.6179C32.5353 21.3658 32.2498 21.0849 31.9015 20.769V21.5392L29.9213 22.3755L27.0506 6.06809H22.074L20.471 15.1295C19.9056 14.1512 19.5375 13.0715 19.3874 11.9515C19.2221 12.8992 19.4074 13.8746 19.9086 14.6957C20.1539 15.0673 20.311 15.4901 20.3677 15.9317C20.4243 16.3734 20.3792 16.8221 20.2356 17.2436C20.1289 17.6318 20.0441 18.0258 19.9683 18.339C19.4779 18.471 19 17.7112 18.5957 18.4722H17.0266C16.7438 18.9016 16.1374 18.8195 15.6608 19.01C15.8585 19.2831 16.0266 19.5154 16.196 19.7478L16.7953 19.1102C16.7704 19.5175 16.8037 19.9262 16.8942 20.3241C17.0851 20.6466 17.3197 20.941 17.5915 21.199C16.8943 21.057 16.2424 20.7466 15.6926 20.2949C15.1428 19.8432 14.7119 19.2639 14.4373 18.6075C13.6646 18.1723 12.961 17.6244 12.3497 16.9819L12.7621 16.3039L12.1299 16.5727L10.959 15.8428C11.0382 15.4848 11.0769 15.1191 11.0744 14.7525C10.9911 14.0902 10.7955 13.4424 10.7004 12.7809C10.5812 11.9527 10.5105 11.1172 10.4307 10.2837C10.393 10.1236 10.4143 9.95535 10.4906 9.80966C10.5669 9.66398 10.6932 9.55063 10.8463 9.49045C11.306 9.30582 12.3558 9.51844 12.5392 9.95675C12.8243 10.6715 13.0272 11.4163 13.1439 12.1768C13.1507 12.2039 13.1641 12.2288 13.183 12.2493C13.7771 12.414 14.4082 12.3858 14.9852 12.1687C15.6097 12.0506 16.2397 11.9621 16.9346 11.8498C16.7966 10.5301 16.3797 9.25483 15.7114 8.10845C15.3444 7.60814 14.8969 7.17213 14.3872 6.81817C13.6876 6.33819 12.8894 6.02088 12.0512 5.88936C11.213 5.75785 10.3561 5.81544 9.54305 6.05808C8.74182 6.22584 7.9961 6.59373 7.37535 7.12737C6.7546 7.66101 6.27902 8.34308 5.99293 9.11005C5.37341 10.4294 5.15651 11.902 5.36939 13.344C5.58227 14.7859 6.21547 16.1331 7.18981 17.2171C8.24242 18.3774 9.3727 19.4675 10.4684 20.5889C10.891 20.9822 11.2921 21.3981 11.67 21.8346C11.9725 22.22 11.8827 22.3805 11.3177 22.7625C11.2145 22.414 11.7365 21.8458 10.9318 21.7366C10.9143 22.0313 10.8729 22.3199 10.8845 22.6064C10.929 23.7075 11.0134 24.8075 11.0315 25.9088C10.9899 26.2582 10.9039 26.6008 10.7756 26.9284L11.1973 27.4065L12.1174 27.6647L12.089 27.9015C11.6777 27.9015 11.2655 27.9196 10.8553 27.8982C9.61082 27.8329 9.26795 27.5748 8.94587 26.3458C8.76989 25.6742 8.69157 24.9772 8.55759 24.2271L4.9902 24.8117C4.89146 25.9406 5.10159 27.0752 5.59809 28.0938C6.09458 29.1125 6.85876 29.977 7.80881 30.5948C8.83204 31.2354 10.0133 31.5785 11.2205 31.5859C12.4277 31.5933 13.6131 31.2646 14.6441 30.6366L14.8603 30.8431C14.8666 30.8109 14.8646 30.7777 14.8547 30.7465C14.8447 30.7153 14.8271 30.687 14.8035 30.6643C14.7822 30.6281 14.7664 30.589 14.7565 30.5482C17.6531 27.9537 17.6398 24.8729 16.3744 21.3996L19.3041 23.0279L17.9008 31.5341H21.6603C21.7763 30.9703 21.9011 30.4903 21.9705 30.0024C22.1338 28.8539 22.2766 27.7023 22.4148 26.5503C22.4596 26.177 22.6199 25.9129 23.0139 25.9234C24.2203 25.9557 25.4259 26.0143 26.641 26.0631L27.6024 31.5611H31.518C31.4643 31.2272 31.4359 30.9325 31.3675 30.6473C31.2642 29.5212 30.9693 28.421 30.4954 27.3943C30.2243 27.0697 30.0281 26.6893 29.9207 26.2802C29.8547 25.8444 29.7477 25.4147 29.644 24.9111L30.4037 24.4905L29.9826 22.7419L31.545 22.0925L31.823 22.5507C32.4008 21.3829 33.021 22.6087 33.491 22.52C33.5584 22.8335 33.6809 23.1325 33.8529 23.4031C33.991 23.5484 34.0963 23.7217 34.1618 23.9111C34.2272 24.1005 34.2513 24.3017 34.2323 24.5013C34.2156 25.7713 34.2454 27.0422 34.2103 28.3114C34.1612 28.7575 34.0748 29.1986 33.9519 29.6301C34.5133 30.1278 34.0216 30.9097 34.2076 31.5479H37.7484C37.7792 31.4841 37.8016 31.4166 37.815 31.347C37.6694 30.2072 37.8594 29.0497 38.3617 28.0162C38.4654 27.7616 38.5159 27.4883 38.5102 27.2134C38.5044 26.9385 38.4425 26.6676 38.3283 26.4175L37.9329 26.6249C37.9329 24.701 37.9328 22.8389 37.9351 20.9768C37.9351 20.9579 37.9684 20.9391 38.0143 20.8903L38.6254 20.7335C38.8246 21.2869 39.3328 21.7385 38.7575 22.4784L38.2986 21.4088C37.7045 22.2058 38.3403 22.7285 38.607 23.4223L39.4566 22.3085L40.1578 22.4405L40.3298 23.349C40.2375 23.3917 40.1024 23.4121 40.065 23.4836C40.0283 23.5536 40.0909 23.6756 40.1099 23.7748L40.2116 23.7639L40.3086 23.3279ZM62.6908 17.2717C62.6908 16.7579 62.6982 16.2729 62.6895 15.7882C62.6612 14.2229 62.7272 12.6477 62.5734 11.0944C62.4284 9.71219 61.7725 8.43388 60.7342 7.50997C59.6959 6.58606 58.3501 6.08318 56.9604 6.09974C55.2023 6.09682 53.4442 6.10322 51.686 6.09533C51.3479 6.09382 51.0099 6.04525 50.631 6.01513C50.5278 6.31064 50.3126 6.55378 50.0317 6.69201C49.7509 6.83024 49.427 6.85246 49.1298 6.75399C48.9944 7.12298 49.0186 7.67847 48.3936 7.41695L48.4521 6.43047C48.2376 6.57898 48.1066 6.73344 47.9554 6.75659C47.7567 6.73861 47.5627 6.68507 47.3829 6.59848C47.3546 7.06112 47.3031 7.43352 47.3154 7.80365C47.3393 8.52713 47.399 9.24942 47.4438 9.97217C47.4504 10.0795 47.4186 10.2119 47.47 10.2898C47.5648 10.4672 47.6177 10.6641 47.6247 10.8651C47.6316 11.0662 47.5925 11.2661 47.5103 11.4497C47.4262 11.7685 47.3512 12.1217 47.7184 12.3881C48.0089 11.7035 47.7957 10.8972 48.3512 10.3343L48.9993 10.7495L49.5784 10.2019H50.3513C50.2324 9.64005 50.0011 9.10069 50.53 8.51328C50.623 8.79115 50.6904 9.07695 50.7313 9.36709C50.7458 9.75007 50.79 10.1275 50.8216 10.506C50.9075 11.1337 50.8106 11.7729 50.5426 12.3471C50.2725 12.8202 50.1222 13.3524 50.1051 13.897C50.0879 14.4416 50.2044 14.9821 50.4442 15.4713C50.7429 16.0331 50.8903 16.663 50.8717 17.299C50.8677 21.7552 50.867 26.2114 50.8696 30.6676V31.6012H51.748C53.2356 31.6012 54.724 31.627 56.2106 31.5905C56.9629 31.5578 57.7124 31.4792 58.4551 31.3551C59.0716 31.2574 59.6601 31.0292 60.1812 30.6855C60.7024 30.3419 61.144 29.8908 61.4766 29.3626C62.3364 28.1376 62.7839 26.6705 62.7542 25.1742C62.7334 23.2839 62.745 21.393 62.6964 19.5035C62.6696 19.3238 62.7081 19.1405 62.8048 18.9868C62.9015 18.8331 63.0501 18.719 63.2237 18.6654C63.1139 18.3039 63.1491 17.914 63.3217 17.578C63.4944 17.242 63.791 16.9863 64.1487 16.865C64.3809 16.7741 64.547 16.6187 64.4337 16.3223L62.6908 17.2717ZM65.7911 31.4969C65.8895 31.5302 65.9907 31.5543 66.0935 31.5688C68.4208 31.5711 70.7484 31.5933 73.0753 31.5614C73.8121 31.5712 74.5379 31.3814 75.1757 31.0122C75.8135 30.6431 76.3395 30.1083 76.698 29.4644C77.0968 28.7927 77.41 28.0737 77.6301 27.3241C78.04 25.7488 78.0937 24.1019 77.7873 22.5032C77.7231 21.778 77.4937 21.0773 77.1166 20.4546C76.7395 19.8319 76.2248 19.3038 75.6119 18.911C75.4014 18.7513 75.2039 18.5746 74.8716 18.2988C75.01 18.2388 75.1436 18.168 75.271 18.0872C76.4245 17.1631 77.1757 15.8286 77.3675 14.3631C77.4921 13.4869 77.4692 12.5896 77.5102 11.7017C77.5567 11.4049 77.5621 11.103 77.526 10.8047C77.3914 10.3514 77.2294 9.90675 77.041 9.47312C76.8186 8.81636 76.4464 8.22043 75.9538 7.73246C75.4612 7.24449 74.8617 6.87789 74.2028 6.66177C73.3335 6.3725 72.4294 6.2008 71.5145 6.1512C69.7591 6.07014 67.9976 6.12006 66.2385 6.12016C66.0832 6.12016 65.9279 6.15199 65.6768 6.17954V22.196C64.762 22.0013 64.6554 21.1231 64.0663 20.6189C64.0944 21.051 64.2463 21.4658 64.5039 21.8138C64.7614 22.1618 65.1137 22.4283 65.5187 22.5814C65.805 23.1186 65.9686 23.5014 66.1976 23.84C66.6887 24.6406 67.0146 25.5314 67.1561 26.4599L65.7909 26.8326L65.7911 31.4969ZM14.4112 35.8198H12.8584V39.1903L12.7388 39.2132L11.0105 35.8084H9.49428V42.4583H10.9905V39.0731L11.1034 39.0405L12.8267 42.4692H14.4113L14.4112 35.8198ZM29.1169 39.5193C29.2445 39.4047 29.3494 39.3207 29.4424 39.2252C29.7165 38.9604 29.9074 38.6215 29.9917 38.2499C30.0761 37.8782 30.0503 37.4901 29.9175 37.1329C29.8233 36.7894 29.6265 36.4828 29.3534 36.2542C29.0802 36.0255 28.7438 35.8858 28.3891 35.8535C27.569 35.8028 26.7469 35.7961 25.9262 35.8334V42.48H27.4255V39.8313L27.5796 39.8024L28.6824 42.478H30.2908L29.1169 39.5193ZM34.8514 42.4656H36.43L34.6589 35.8246H32.901L31.1391 42.469H32.6646L33.0081 41.4222H34.5579L34.8514 42.4656ZM53.7393 42.4912L55.7446 35.8109H54.1041L53.0107 40.0003L51.8481 35.8298H50.2454L52.2903 42.4912H53.7393ZM58.6842 41.0635V39.8347H59.9355V38.4692L58.694 38.404V37.18H60.1658V35.8149H57.14V42.4688H60.1572V41.0634L58.6842 41.0635ZM24.0932 42.5125V41.0456H22.6439V39.8881L23.8842 39.8209V38.4352H22.6244V37.2H24.0701V35.8353H21.063V42.4686C21.2538 42.4853 21.4092 42.51 21.5648 42.5107C22.3985 42.5145 23.2322 42.5125 24.0933 42.5125H24.0932ZM41.086 41.0302C39.4574 41.1116 38.8465 40.5526 38.8712 39.0683C38.8945 37.6642 39.5326 37.1239 41.1082 37.2352V35.7461C40.5442 35.5413 39.9288 35.5261 39.3553 35.7027C38.7818 35.8794 38.2817 36.2384 37.9307 36.7251C37.4576 37.4525 37.2101 38.3035 37.2192 39.1713C37.2283 40.039 37.4937 40.8847 37.982 41.602C38.3212 42.0809 38.816 42.4272 39.3821 42.582C39.9481 42.7368 40.5503 42.6905 41.086 42.4509V41.0302ZM45.747 37.2819V35.8257H42.1368V37.2605L43.1615 37.3692V42.4608H44.7223V37.3322L45.747 37.2819ZM16.9408 37.3181V42.471H18.542V37.3448L19.5227 37.2581V35.8116H15.9546V37.3181H16.9408ZM48.7885 42.4777V35.8222H47.3414V42.4777H48.7885ZM7.38026 42.4791V35.8207H5.92952V42.4791H7.38026ZM19.734 5.37319L19.5562 5.33244C19.4422 6.85564 18.6395 8.31404 19.1476 9.88606L19.734 5.37319ZM103.835 18.9941L105.56 18.6607L104.613 17.9692C104.309 18.2376 103.756 18.2908 103.835 18.9941ZM53.6778 2.9206C53.8039 3.58405 53.4697 4.14173 53.9109 4.57185L54.6038 3.62822L53.6778 2.9206ZM38.9601 24.1664L39.2425 24.3656C39.2171 24.4568 39.2004 24.5502 39.1925 24.6446C39.2079 24.7896 39.2332 24.9334 39.2682 25.075C39.5447 24.2203 39.4333 23.9879 38.7123 23.7586L38.381 24.8736L38.4861 24.9459L38.9601 24.1664ZM78.5258 17.0558V19.4851L78.983 18.8737C78.2505 18.4442 78.8296 17.746 78.5258 17.0558H78.5258ZM78.5562 20.6329L78.3692 20.629C78.3077 21.3216 78.3711 22.0195 78.5562 22.6897V20.6329ZM13.1559 16.3348L13.6046 15.9846L13.5536 15.8658L12.6631 16.0625L13.3591 17.0516L13.4895 16.9568L13.1559 16.3348ZM33.4924 18.4108C33.2244 18.7795 33.0153 19.0824 33.351 19.4945C33.9063 19.2046 33.8603 18.8668 33.4924 18.4109L33.4924 18.4108ZM78.5744 24.552L78.4436 24.5521C78.4436 24.7428 78.4366 24.9338 78.4454 25.1241C78.4561 25.3543 78.4955 25.584 78.4927 25.8136C78.4772 25.9581 78.4469 26.1007 78.4022 26.239L78.5745 26.2597L78.5744 24.552ZM36.3002 3.6932L36.0995 3.81717L36.8399 5.10734C37.1318 4.31021 36.414 4.15677 36.3002 3.6932ZM36.346 2.54L36.1928 2.48353L35.8689 3.10814C35.9975 3.15825 36.1243 3.21509 36.2565 3.25243C36.2808 3.25931 36.3275 3.18735 36.3826 3.13348L36.346 2.54ZM63.4758 19.1456C63.076 19.6339 63.3107 19.8732 63.7872 20.0121L63.4758 19.1456ZM14.3346 17.6607L14.4232 17.644L14.3657 16.6803L14.1998 16.7041L14.3346 17.6607ZM78.6183 9.69041L78.2015 10.9809L78.6183 11.1964V9.69041ZM39.6865 7.10364L39.4831 7.11065V7.7652L39.7173 7.75819L39.6865 7.10364ZM47.9193 26.5998L47.9682 26.8096L48.5112 26.7042L48.4544 26.4611L47.9193 26.5998ZM33.7667 10.2444L33.5506 10.257C33.5739 10.5221 33.2431 10.8467 33.8417 11.1324L33.7667 10.2444ZM39.4426 6.73396L39.6475 6.71834L39.5914 5.93082L39.3996 5.94533L39.4426 6.73396ZM39.0142 25.3043L38.8795 26.0915C39.3856 25.9249 39.4569 25.7454 39.0142 25.3043ZM30.3602 25.5763C30.0406 26.0658 30.2356 26.2501 30.5827 26.4788L30.3602 25.5763ZM80.0182 29.2324L80.0762 28.5821C79.6335 28.756 79.6833 28.9228 80.0182 29.2324ZM14.2762 14.8996L14.1967 14.8664L13.986 15.4339H14.0772L14.2762 14.8996ZM31.5429 19.7572L31.3889 19.7462L31.5011 20.2631L31.6537 20.234L31.5429 19.7572ZM96.8333 19.924L96.6859 19.9292V20.6818L96.7876 20.6832L96.8333 19.924ZM39.005 30.2023L38.8585 30.3474L39.1155 30.6461L39.328 30.4456L39.005 30.2023ZM78.5419 27.6666L78.4305 27.6576C78.3952 27.7375 78.3738 27.8228 78.3673 27.9099C78.39 28.0014 78.4262 28.0891 78.4748 28.1699L78.5861 28.1358L78.5419 27.6666ZM10.6157 25.1893L10.3714 25.0939L10.3044 25.7703L10.6157 25.1893ZM94.1437 10.335L94.0709 10.1163L93.3235 10.4075L93.3786 10.5723L94.1437 10.335ZM39.0417 32.8134L39.2292 32.9323L39.4749 32.4662L39.3416 32.3905L39.0417 32.8134ZM95.7073 20.0562L95.8306 20.0192L95.6696 19.4816L95.5464 19.5186L95.7073 20.0562ZM105.625 14.3932C105.676 14.3297 105.72 14.2612 105.758 14.1889C105.685 14.1239 105.608 14.0651 105.525 14.0133C105.484 14.0719 105.396 14.1526 105.411 14.1848C105.446 14.2581 105.531 14.3076 105.625 14.3932H105.625ZM78.6369 23.4183L78.4994 23.4044L78.4175 24.0799L78.5728 24.0962L78.6369 23.4183ZM10.1442 2.79524L9.98034 2.75098L9.94772 3.09873L10.0596 3.11826L10.1442 2.79524ZM105.819 17.7749L105.878 17.9275C105.971 17.9155 106.117 17.9337 106.144 17.8849C106.183 17.741 106.198 17.5916 106.187 17.4429L105.819 17.7749ZM79.7338 13.6188L79.6505 13.6198V14.0263L79.7338 14.025V13.6188ZM78.6631 29.1918L78.7466 29.192V28.9356L78.6631 28.9355V29.1918ZM64.2713 15.2314L64.1727 15.3746L64.5327 15.6713C64.5229 15.4892 64.546 15.3937 64.5092 15.3551C64.4375 15.3008 64.357 15.259 64.2713 15.2314ZM33.6491 24.5487L33.8236 24.6587L33.9806 24.2179L33.8307 24.1629L33.6491 24.5487ZM65.7072 24.8665L65.8732 24.8371L65.7989 24.5139L65.7072 24.5294V24.8665ZM39.2204 31.3744L39.3555 31.246L39.1345 30.9848L38.9786 31.1333L39.2204 31.3744ZM106.403 20.7334L106.574 20.7308L106.537 20.4075L106.425 20.4106L106.403 20.7334ZM11.4588 10.9871L11.5547 10.951L11.4296 10.5833L11.3061 10.6263L11.4588 10.9871ZM14.0953 15.7464L13.981 15.9361C14.0222 15.9604 14.0874 16.0144 14.1003 16.0039C14.152 15.9544 14.1983 15.8993 14.2383 15.8399L14.0953 15.7464ZM96.2848 16.0564L96.3223 15.9625L96.0949 15.8272L95.9961 16.0148L96.2848 16.0564ZM9.95728 5.06419C10.0597 4.97601 10.1326 4.93331 10.1269 4.91439C10.101 4.8554 10.0668 4.8004 10.0253 4.75108L9.95728 5.06419ZM78.4828 13.4048C78.5197 13.3819 78.5784 13.3659 78.5883 13.3344C78.6013 13.2934 78.5757 13.2402 78.5667 13.1922C78.5142 13.226 78.4644 13.2641 78.4179 13.3059C78.4121 13.3117 78.4594 13.3703 78.4827 13.4048H78.4828ZM34.0131 21.4296C33.8912 21.3861 33.8181 21.3338 33.7672 21.3502C33.7269 21.3632 33.7138 21.4605 33.6887 21.5204C33.7343 21.5366 33.7862 21.5746 33.8241 21.5639C33.8781 21.5485 33.9219 21.4973 34.013 21.4296H34.0131ZM108.364 19.981L108.457 20.0699C108.469 20.0492 108.495 20.0182 108.489 20.0095C108.462 19.9769 108.433 19.9467 108.401 19.9194L108.364 19.981ZM11.5504 13.7111L11.5189 13.6052C11.5014 13.6141 11.4685 13.624 11.469 13.6317C11.4735 13.6679 11.4809 13.7036 11.4911 13.7386L11.5504 13.7111ZM39.095 26.9825C39.0762 27.0249 39.0666 27.0707 39.0669 27.117C39.0732 27.1434 39.1317 27.1574 39.1669 27.177C39.1797 27.135 39.2116 27.0862 39.1999 27.0528C39.1886 27.0209 39.1319 27.0051 39.0948 26.9824L39.095 26.9825ZM12.0201 12.3013C12.0013 12.2632 11.9886 12.199 11.9624 12.193C11.9212 12.1835 11.871 12.2132 11.8246 12.2263C11.8475 12.264 11.8627 12.3215 11.8954 12.3342C11.9276 12.3469 11.9775 12.3144 12.02 12.3013H12.0201ZM32.3816 24.6124C32.2979 24.7187 32.2244 24.773 32.2318 24.812C32.2405 24.8458 32.256 24.8774 32.2774 24.9049C32.2988 24.9324 32.3256 24.9553 32.3563 24.972C32.3892 24.9881 32.5083 24.9156 32.5054 24.9043C32.4718 24.8039 32.4304 24.7063 32.3815 24.6124H32.3816ZM33.3544 11.8913C33.3171 11.9208 33.2562 11.9456 33.2488 11.9814C33.2409 12.0193 33.2838 12.0678 33.3045 12.1117L33.448 11.9897L33.3544 11.8913ZM78.6693 19.8621L78.5131 19.797L78.4781 20.1996L78.5672 20.2124L78.6693 19.8621ZM78.5174 14.2313L78.6282 14.2191L78.5886 13.8915L78.4851 13.9028L78.5174 14.2313ZM47.5765 13.1956L47.4514 13.2334L47.5116 13.5025L47.5991 13.4866L47.5765 13.1956ZM93.192 10.0758L93.3693 10.0226C93.3407 9.96223 93.3259 9.88317 93.2785 9.84831C93.2493 9.82699 93.1703 9.87324 93.1136 9.88917L93.192 10.0758ZM63.5345 21.3228L63.3663 21.3086L63.3967 21.657L63.49 21.6588L63.5345 21.3228ZM13.8846 13.3227L13.8949 13.4265C13.9725 13.413 14.0503 13.4004 14.1271 13.3834L14.1263 13.3254C14.0458 13.3225 13.9652 13.3227 13.8846 13.3227ZM32.5015 29.2501L32.452 29.124C32.4349 29.1403 32.4058 29.155 32.4032 29.1733C32.4009 29.2139 32.4027 29.2547 32.4084 29.295L32.5015 29.2501Z" fill="white"/>
<path d="M0.203783 0V47.7281H1.04846C37.8495 47.7281 74.6505 47.7273 111.451 47.7258C111.72 47.7258 111.988 47.6911 112.256 47.6726C112.189 47.7743 112.414 48.0166 112.093 47.9988C111.904 47.9884 111.714 47.9969 111.525 47.9969H0.041372C0.041372 32.2411 0.044748 16.4853 0.0514851 0.729549C0.0516492 0.492262 -0.135857 0.179803 0.203783 0Z" fill="white"/>
<path d="M24.0935 42.5126C23.2324 42.5126 22.3987 42.5146 21.565 42.5107C21.4095 42.51 21.2541 42.4853 21.0632 42.4686V35.8354H24.0703V37.2001H22.6246V38.4353H23.8844V39.821L22.6442 39.8882V41.0457H24.0935V42.5126Z" fill="#251B29"/>
<path d="M45.7472 37.2819L44.7225 37.3321V42.4608H43.1617V37.3692L42.137 37.2605V35.8257H45.7472V37.2819Z" fill="#251B29"/>
<path d="M34.8517 42.4656L34.5582 41.4223H33.0084L32.6649 42.4691H31.1394L32.9013 35.8247H34.6592L36.4303 42.4656H34.8517ZM34.2635 40.1418L33.7865 37.6903L33.7054 37.7073L33.2914 40.1418H34.2635Z" fill="#251B29"/>
<path d="M34.2632 40.1418H33.291L33.705 37.7073L33.7861 37.6904L34.2632 40.1418Z" fill="white"/>
<path d="M48.7884 42.4777H47.3413V35.8223H48.7884V42.4777Z" fill="#251B29"/>
<path d="M7.38067 42.4789H5.92993V35.8206H7.38067V42.4789Z" fill="#251B29"/>
<path d="M58.685 41.0635H60.1578V42.4687H57.1406V35.8149H60.1665V37.18H58.6948V38.404L59.9363 38.4693V39.8348H58.6851L58.685 41.0635Z" fill="#251B29"/>
<path d="M16.9412 37.3181H15.9548V35.8115H19.523V37.258L18.5423 37.3447V42.4709H16.9411L16.9412 37.3181Z" fill="#251B29"/>
<path d="M53.7391 42.4912H52.29L50.2451 35.8297H51.8478L53.0105 40.0003L54.1038 35.8108H55.7444L53.7391 42.4912Z" fill="#251B29"/>
<path d="M29.1169 39.5194L30.2909 42.478H28.6825L27.5797 39.8024L27.4256 39.8314V42.4801H25.9263V35.8335C26.747 35.7962 27.5692 35.8029 28.3892 35.8537C28.7439 35.8859 29.0804 36.0256 29.3535 36.2543C29.6266 36.4829 29.8234 36.7895 29.9176 37.133C30.0504 37.4902 30.0763 37.8783 29.9919 38.25C29.9075 38.6216 29.7166 38.9605 29.4425 39.2253C29.3494 39.3208 29.2445 39.4048 29.1169 39.5194ZM27.4748 38.6053C28.2204 38.5518 28.4562 38.3719 28.4476 37.8953C28.4381 37.3743 28.144 37.1593 27.4748 37.1946V38.6053Z" fill="#251B29"/>
<path d="M27.4749 38.6051V37.1944C28.144 37.1591 28.4381 37.3741 28.4477 37.8951C28.4563 38.3717 28.2205 38.5516 27.4749 38.6051Z" fill="white"/>
<path d="M14.4116 35.8198V42.4691H12.827L11.1038 39.0404L10.9908 39.0731V42.4583H9.49463V35.8083H11.0108L12.7391 39.2132L12.8588 39.1902V35.8198H14.4116Z" fill="#251B29"/>
<path d="M41.0866 41.0302V42.451C40.5508 42.6905 39.9487 42.7369 39.3826 42.582C38.8166 42.4272 38.3218 42.0809 37.9825 41.6021C37.4942 40.8847 37.2289 40.039 37.2197 39.1713C37.2106 38.3036 37.4581 37.4526 37.9313 36.7251C38.2822 36.2384 38.7824 35.8795 39.3559 35.7028C39.9293 35.5261 40.5448 35.5413 41.1088 35.7461V37.2353C39.5332 37.124 38.8951 37.6643 38.8717 39.0684C38.847 40.5526 39.458 41.1117 41.0866 41.0302Z" fill="#251B29"/>
<path d="M39.0417 32.8135L39.3416 32.3906L39.475 32.4663L39.2293 32.9324L39.0417 32.8135Z" fill="white"/>
<path d="M78.5746 24.5522V26.2599L78.4023 26.2392C78.447 26.1009 78.4774 25.9584 78.4929 25.8139C78.4956 25.5843 78.4562 25.3545 78.4456 25.1244C78.4368 24.9341 78.4438 24.7431 78.4438 24.5524L78.5746 24.5522Z" fill="white"/>
<path d="M62.6915 17.2718L64.4344 16.3223C64.5476 16.6187 64.3816 16.7742 64.1494 16.8652C63.7917 16.9864 63.4951 17.242 63.3224 17.578C63.1498 17.914 63.1146 18.3039 63.2244 18.6654C63.0508 18.719 62.9022 18.8331 62.8055 18.9868C62.7088 19.1405 62.6703 19.3238 62.6971 19.5035C62.7457 21.393 62.7341 23.2839 62.7549 25.1742C62.7846 26.6705 62.3371 28.1376 61.4773 29.3626C61.1447 29.8908 60.7031 30.3419 60.182 30.6855C59.6608 31.0292 59.0723 31.2574 58.4558 31.3551C57.7131 31.4792 56.9636 31.5578 56.2113 31.5905C54.7246 31.627 53.2364 31.6013 51.7487 31.6012H50.8703V30.6676C50.8703 26.2114 50.871 21.7552 50.8724 17.299C50.891 16.663 50.7436 16.0331 50.4449 15.4713C50.2051 14.9821 50.0886 14.4416 50.1058 13.897C50.123 13.3524 50.2732 12.8203 50.5433 12.3472C50.8113 11.773 50.9082 11.1338 50.8223 10.5061C50.7907 10.1276 50.7465 9.75008 50.732 9.3671C50.6911 9.07696 50.6237 8.79116 50.5307 8.51329C50.0019 9.1007 50.2331 9.64017 50.352 10.202H49.5791L49 10.7496L48.3519 10.3344C47.7964 10.8972 48.0096 11.7035 47.719 12.3881C47.3519 12.1218 47.4269 11.7687 47.511 11.4498C47.5932 11.2662 47.6323 11.0662 47.6254 10.8651C47.6184 10.6641 47.5655 10.4673 47.4707 10.2898C47.4194 10.2119 47.4512 10.0795 47.4445 9.97218C47.3997 9.24943 47.34 8.52721 47.3161 7.80376C47.3038 7.43356 47.3553 7.06114 47.3836 6.5985C47.5634 6.68508 47.7573 6.73873 47.9561 6.7567C48.1073 6.73355 48.2383 6.57899 48.4528 6.43048L48.3943 7.41706C49.0193 7.67858 48.9951 7.12309 49.1306 6.7541C49.4277 6.85257 49.7516 6.83025 50.0324 6.69202C50.3133 6.55379 50.5285 6.31065 50.6317 6.01514C51.0107 6.04526 51.3487 6.09396 51.6868 6.09544C53.4448 6.10333 55.2029 6.09683 56.9611 6.09975C58.3508 6.08319 59.6966 6.58618 60.7349 7.51008C61.7732 8.43399 62.4291 9.7122 62.5741 11.0944C62.7279 12.6477 62.6619 14.2229 62.6902 15.7883C62.6989 16.273 62.6915 16.758 62.6915 17.2718ZM54.7038 28.032C55.3785 28.032 55.8899 28.0491 56.3997 28.0282C56.7816 28.0292 57.156 27.9223 57.4799 27.7201C57.8039 27.5178 58.0642 27.2283 58.2309 26.8847C58.4386 26.5375 58.5791 26.1544 58.645 25.7552C58.7573 24.4412 58.8062 23.1215 58.8638 21.8033C58.9052 21.605 58.9052 21.4002 58.8637 21.2019C58.8222 21.0036 58.7401 20.816 58.6226 20.651C58.5414 20.5587 58.5829 20.327 58.62 20.1719C58.6533 20.0326 58.8234 19.9094 58.8215 19.7807C58.783 17.2177 58.7251 14.655 58.6786 12.092C58.6656 11.7529 58.5783 11.4209 58.4228 11.1193C58.2672 10.8177 58.0473 10.5539 57.7786 10.3467C57.5334 10.097 57.2172 9.92923 56.873 9.86615C56.5288 9.80306 56.1736 9.84774 55.8559 9.99421L56.6071 10.3366L55.9234 10.6504L55.5539 9.96598L55.224 10.2436L54.6798 9.87966C54.9451 10.7541 54.3887 11.6109 55.182 12.2292C55.1629 12.3076 55.135 12.3837 55.0987 12.4558C54.8812 12.7077 54.7503 13.0228 54.7256 13.3547C54.7008 13.6866 54.7833 14.0176 54.961 14.299C54.9869 14.3384 54.9524 14.4211 54.9388 14.4821C54.8501 14.7518 54.7896 15.0302 54.7582 15.3124C54.7443 17.9593 54.7431 20.6063 54.7544 23.2533C54.7554 23.5864 54.8525 23.9203 54.844 24.2523C54.8124 25.4814 54.7551 26.71 54.7039 28.0321L54.7038 28.032Z" fill="#251B29"/>
<path d="M47.9197 26.5999L48.4547 26.4612L48.5115 26.7044L47.9685 26.8096L47.9197 26.5999Z" fill="white"/>
<path d="M65.7911 31.4971V26.8328L67.1563 26.46C67.0147 25.5315 66.6888 24.6407 66.1978 23.8401C65.9688 23.5015 65.8052 23.1187 65.5189 22.5815C65.1139 22.4283 64.7616 22.1619 64.504 21.8139C64.2465 21.4659 64.0945 21.0511 64.0664 20.6191C64.6556 21.1233 64.7621 22.0015 65.6769 22.1962V6.17962C65.928 6.15208 66.0834 6.12024 66.2387 6.12024C67.9977 6.12024 69.7592 6.07022 71.5146 6.15128C72.4295 6.20088 73.3336 6.37258 74.203 6.66185C74.8618 6.87797 75.4613 7.24457 75.9539 7.73254C76.4465 8.22051 76.8188 8.81644 77.0411 9.47321C77.2296 9.90683 77.3915 10.3515 77.5261 10.8047C77.5622 11.103 77.5569 11.4049 77.5103 11.7018C77.4693 12.5897 77.4923 13.4869 77.3676 14.3632C77.1758 15.8287 76.4246 17.1633 75.2712 18.0874C75.1438 18.1682 75.0102 18.2389 74.8718 18.2989C75.2041 18.5747 75.4017 18.7515 75.612 18.9112C76.2249 19.304 76.7396 19.832 77.1167 20.4547C77.4938 21.0774 77.7232 21.7782 77.7873 22.5034C78.0937 24.1021 78.04 25.749 77.6301 27.3243C77.41 28.0739 77.0968 28.7929 76.698 29.4646C76.3395 30.1084 75.8134 30.6433 75.1757 31.0124C74.5379 31.3816 73.8121 31.5713 73.0753 31.5615C70.7484 31.5935 68.4208 31.5713 66.0935 31.5689C65.9906 31.5545 65.8894 31.5304 65.7911 31.4971ZM72.4169 20.7956C72.3951 20.7368 72.3734 20.678 72.3978 20.7441L72.4463 20.7733C72.8725 21.1983 72.2179 21.3034 72.2804 21.6467L71.1747 21.3252L71.029 20.2704H69.7139V28.0023C70.2843 28.0023 70.7964 27.9881 71.3075 28.0052C71.8106 28.0419 72.3117 27.9099 72.7314 27.6299C73.151 27.35 73.4655 26.9381 73.6249 26.4595C74.0478 25.431 74.1563 24.3002 73.9366 23.2101C73.9189 23.1358 73.8961 23.0629 73.8683 22.9919L73.7922 23.0558L73.4519 22.7102L73.5419 22.6226L73.7301 22.8555C73.7897 22.4124 73.6906 21.9625 73.4502 21.5855C73.2099 21.2084 72.8438 20.9286 72.4169 20.7956ZM70.9358 15.2499L71.1662 14.5434L71.3509 14.5761L71.2932 15.814H69.6774L69.7265 16.6023H70.9665L71.4746 16.0123L72.1767 16.4022C72.4394 16.2255 72.6731 16.0095 72.8699 15.7615C73.3424 14.9872 73.6103 14.1054 73.6482 13.1991C73.6861 12.2927 73.4929 11.3916 73.0866 10.5805C73.0008 10.364 72.8579 10.1749 72.6729 10.0333C72.488 9.89178 72.2681 9.80314 72.0367 9.7769C71.2668 9.73011 70.492 9.76448 69.7238 9.76448V12.1931C70.2877 12.4513 70.8274 12.6935 71.3627 12.945C71.5799 13.1103 71.7601 13.3193 71.8919 13.5583C72.0236 13.7974 72.1039 14.0613 72.1276 14.3332C71.5062 14.7185 71.1431 14.1422 70.7009 13.9242C70.2117 13.683 70.058 13.6805 69.6583 14.1656L70.2741 14.3806C69.9085 14.631 69.4994 14.7692 69.7176 15.1487L70.9358 15.2499Z" fill="#251B29"/>
<path d="M79.7451 21.7648C79.9225 21.5586 80.0783 21.3349 80.2103 21.097C80.2511 20.9125 80.2525 20.7215 80.2144 20.5364C80.0819 17.7187 80.1381 14.8985 80.1169 12.0795C80.1 11.2257 80.2605 10.3777 80.5881 9.58918C80.9158 8.80061 81.4035 8.08867 82.0205 7.49826C82.8188 6.69778 83.8402 6.15684 84.951 5.94634C86.0618 5.73584 87.2102 5.86555 88.2461 6.31842C89.2962 6.70772 90.2009 7.41089 90.8374 8.33234C91.4739 9.2538 91.8113 10.3488 91.8036 11.4687C91.8551 16.3002 91.8427 21.1327 91.8118 25.9645C91.788 26.9396 91.5145 27.8923 91.0175 28.7315C90.5204 29.5707 89.8164 30.2684 88.9727 30.7579C88.129 31.2474 87.1739 31.5124 86.1986 31.5274C85.2234 31.5425 84.2606 31.3071 83.4022 30.8438C82.569 30.3986 81.8291 29.7973 81.2228 29.0728C80.7909 28.4266 80.5202 27.6863 80.4335 26.9139C80.3174 25.9504 80.2509 24.9815 80.2345 24.0112C80.218 23.7655 80.1586 23.5226 80.1175 23.2694L80.2857 21.6536L80.0937 21.6275L80.0066 22.0901L79.7701 21.7423L79.7451 21.7648ZM87.4678 26.9869C87.927 26.7132 87.6098 26.4902 87.4201 26.259L87.2028 25.7622L86.6842 26.1871C86.4558 26.0569 86.2011 25.9794 85.9388 25.9606C85.6766 25.9417 85.4134 25.9818 85.1687 26.078C85.0505 26.1209 84.9236 26.1342 84.799 26.1167C84.6745 26.0991 84.5562 26.0512 84.4545 25.9773C84.3356 25.8474 84.4323 25.5048 84.4654 25.2603C84.4784 25.1643 84.5766 25.0798 84.6718 24.9359L85.6654 25.4717C86.2321 25.102 85.8459 24.8271 85.6187 24.5541C85.159 24.8901 84.7516 24.5571 84.2041 24.6093L85.0984 23.5222C85.4024 23.5744 85.7149 23.5447 86.0037 23.4364C86.2926 23.3281 86.5474 23.1449 86.7422 22.9057L86.6504 23.5166L87.967 22.2893C87.967 21.4815 87.9615 20.6183 87.968 19.7551C87.9888 16.9999 88.0238 14.2448 88.0322 11.4897C88.0582 11.0257 87.9201 10.5675 87.6421 10.1952C87.364 9.82287 86.9638 9.5603 86.5116 9.4535C86.1931 9.37853 85.8614 9.38056 85.5438 9.45941C85.2263 9.53826 84.9321 9.69164 84.6857 9.90689C84.4393 10.1221 84.2477 10.3931 84.1269 10.6971C84.0061 11.0012 83.9595 11.3297 83.991 11.6554C83.9739 16.3285 83.9671 21.0019 84.0062 25.6748C84.0697 26.2319 84.2447 26.7705 84.5208 27.2585C84.684 27.615 85.0123 27.6817 85.4087 27.4188C85.1514 27.0705 84.3331 27.2253 84.634 26.5824L85.8481 26.5237L86.6964 26.9728C86.9476 27.3013 87.2036 27.3696 87.4678 26.9869ZM87.7824 25.8978L88.0176 25.877C88.0424 25.0031 88.0002 24.1287 87.8913 23.2614L87.4084 23.8001C87.5129 24.0847 87.5797 24.3817 87.6069 24.6837C87.6492 25.0901 87.722 25.4933 87.7824 25.8978Z" fill="#251B29"/>
<path d="M80.0182 29.2326C79.6833 28.923 79.6335 28.7562 80.0763 28.5823L80.0182 29.2326Z" fill="white"/>
<path d="M40.3297 23.349L40.1576 22.4405L39.4564 22.3086L38.6069 23.4223C38.3401 22.7285 37.7043 22.2059 38.2985 21.4088L38.7574 22.4785C39.3327 21.7386 38.8245 21.2869 38.6253 20.7335L38.0142 20.8903C37.9683 20.9392 37.935 20.958 37.935 20.9768C37.9327 22.8389 37.9328 24.7011 37.9328 26.625L38.3282 26.4175C38.4424 26.6676 38.5043 26.9385 38.51 27.2134C38.5158 27.4884 38.4653 27.7616 38.3616 28.0163C37.8593 29.0497 37.6693 30.2072 37.8149 31.347C37.8014 31.4166 37.779 31.4842 37.7483 31.548H34.2075C34.0215 30.9098 34.5132 30.1279 33.9518 29.6302C34.0747 29.1986 34.1611 28.7575 34.2102 28.3115C34.2454 27.0422 34.2155 25.7713 34.2322 24.5013C34.2512 24.3018 34.2271 24.1005 34.1616 23.911C34.0962 23.7216 33.9908 23.5484 33.8527 23.4032C33.6808 23.1325 33.5583 22.8335 33.4908 22.52C33.0209 22.6088 32.4007 21.3829 31.8228 22.5507L31.5449 22.0926L29.9825 22.7419L30.4035 24.4905L29.6439 24.9111C29.7476 25.4148 29.8545 25.8443 29.9206 26.2801C30.028 26.6892 30.2242 27.0697 30.4952 27.3944C30.9691 28.4211 31.2641 29.5212 31.3674 30.6473C31.4358 30.9324 31.4642 31.2271 31.5179 31.5611H27.6022L26.6409 26.0631C25.4257 26.0144 24.2201 25.9557 23.0138 25.9235C22.6198 25.9129 22.4594 26.1771 22.4147 26.5504C22.2765 27.7023 22.1336 28.8539 21.9703 30.0025C21.901 30.4903 21.7762 30.9703 21.6601 31.5342H17.9006L19.304 23.0278L16.3742 21.3997C17.6397 24.8729 17.653 27.9536 14.7564 30.5483C14.7663 30.5891 14.7821 30.6281 14.8033 30.6643C14.827 30.687 14.8446 30.7153 14.8545 30.7465C14.8645 30.7778 14.8664 30.811 14.8602 30.8432L14.6439 30.6366C13.613 31.2646 12.4275 31.5933 11.2204 31.5859C10.0132 31.5785 8.83192 31.2354 7.80869 30.5948C6.85864 29.9771 6.09446 29.1126 5.59796 28.0939C5.10147 27.0752 4.89134 25.9406 4.99007 24.8117L8.55746 24.2271C8.69138 24.9771 8.76976 25.6742 8.94574 26.3458C9.26783 27.5749 9.61069 27.8329 10.8552 27.8981C11.2653 27.9196 11.6776 27.9015 12.0889 27.9015L12.1172 27.6647L11.1972 27.4065L10.7755 26.9285C10.9038 26.6009 10.9898 26.2582 11.0314 25.9088C11.0133 24.8076 10.9289 23.7076 10.8844 22.6064C10.8728 22.3199 10.9142 22.0313 10.9317 21.7366C11.7363 21.8458 11.2143 22.4141 11.3176 22.7625C11.8826 22.3806 11.9723 22.2201 11.6698 21.8346C11.292 21.3981 10.8909 20.9823 10.4683 20.5889C9.37258 19.4676 8.24228 18.3775 7.18966 17.2171C6.21532 16.1331 5.58214 14.7859 5.36927 13.344C5.15639 11.9021 5.37326 10.4294 5.99278 9.11009C6.27887 8.34311 6.75445 7.66105 7.3752 7.12741C7.99595 6.59377 8.74167 6.22588 9.5429 6.05812C10.3559 5.81548 11.2129 5.75778 12.0511 5.8893C12.8893 6.02081 13.6875 6.33823 14.3871 6.8182C14.8968 7.17217 15.3442 7.60818 15.7113 8.10848C16.3795 9.25487 16.7965 10.5301 16.9345 11.8499C16.2396 11.9621 15.6095 12.0507 14.9851 12.1688C14.4081 12.3858 13.777 12.4141 13.1829 12.2494C13.164 12.2289 13.1506 12.2039 13.1438 12.1769C13.0271 11.4163 12.8242 10.6715 12.539 9.95679C12.3557 9.51847 11.3059 9.30586 10.8461 9.49048C10.6931 9.55067 10.5668 9.66391 10.4905 9.8096C10.4142 9.95528 10.3929 10.1236 10.4306 10.2837C10.5103 11.1172 10.581 11.9527 10.7003 12.781C10.7954 13.4425 10.991 14.0901 11.0743 14.7525C11.0768 15.1192 11.0381 15.4849 10.9588 15.8428L12.1298 16.5727L12.762 16.3039L12.3496 16.9819C12.9609 17.6244 13.6645 18.1722 14.4372 18.6074C14.7117 19.2639 15.1427 19.8432 15.6925 20.2949C16.2422 20.7466 16.8941 21.057 17.5914 21.199C17.3196 20.941 17.0849 20.6466 16.894 20.3242C16.8036 19.9263 16.7703 19.5175 16.7952 19.1102C16.4978 19.4265 16.3469 19.5871 16.1952 19.7476C16.0264 19.5153 15.8583 19.2832 15.6606 19.0101C16.1373 18.8195 16.7437 18.9016 17.0265 18.4723H18.5956C18.9999 17.7112 19.4777 18.4711 19.9682 18.339C20.044 18.0259 20.1289 17.6318 20.2355 17.2437C20.379 16.8222 20.4242 16.3734 20.3675 15.9318C20.3108 15.4901 20.1538 15.0673 19.9084 14.6958C19.4073 13.8747 19.222 12.8991 19.3873 11.9515C19.5373 13.0714 19.9055 14.1511 20.4709 15.1294L22.0738 6.06813H27.0504L29.9212 22.3755L31.9014 21.5393V20.7691C32.2497 21.0849 32.5352 21.3658 32.8443 21.618C32.9782 21.7533 33.1516 21.8426 33.3395 21.873C33.5274 21.9033 33.7201 21.8732 33.8898 21.7869C34.2884 21.5958 34.2201 21.2773 34.2208 20.9629C34.2235 19.7468 34.2512 18.5297 34.2121 17.3149C34.1839 16.4398 34.0718 15.5668 33.9768 14.6952C33.9643 14.5804 33.7872 14.4851 33.77 14.3686C33.7601 14.3007 33.9348 14.2194 33.9919 14.1234C34.0277 14.0633 33.9956 13.9649 34.0003 13.8841C34.0735 12.6324 34.1769 11.3817 34.2136 10.1289C34.2508 8.85979 34.2216 7.58874 34.2246 6.31855C34.2376 6.20361 34.2583 6.08964 34.2867 5.97751C34.6148 5.97751 34.9552 5.98617 35.295 5.97551C35.8045 5.97801 36.3136 5.95105 36.8199 5.8947C37.2795 5.82631 37.645 6.22898 38.1122 5.96249L38.9077 8.09737H39.5915L39.6149 8.26128L39.0316 8.38344C39.0173 8.42916 39.0186 8.47837 39.0354 8.52322C39.2961 9.09009 39.2462 9.8162 39.8959 10.1893C39.9646 10.2287 39.997 10.3776 40.0003 10.4772C40.185 11.9181 40.5802 13.3241 41.1735 14.6502C41.7723 16.4413 42.4311 18.2126 43.0674 19.9912C43.1234 20.1695 43.2317 20.3268 43.3784 20.4427V6.05982H46.9579V31.5504H43.4193C42.8782 30.0615 42.3255 28.5461 41.7767 27.0291C41.382 25.9382 40.9973 24.8437 40.5951 23.7556C40.517 23.6022 40.4209 23.4586 40.3088 23.3279L40.3297 23.349ZM24.6477 13.084L24.4883 13.0925C24.1405 15.3262 23.7894 17.5594 23.4518 19.7947C23.411 19.9768 23.4388 20.1677 23.53 20.3306C23.6987 20.5017 23.8147 20.7178 23.8639 20.9531C23.9131 21.1884 23.8935 21.4328 23.8075 21.6572L24.2833 21.6313L24.8482 22.4298C25.1238 21.9487 25.3912 21.5483 25.5869 21.1156C25.7168 20.8518 25.773 20.5579 25.7495 20.2648C25.4 17.8686 25.0192 15.477 24.6477 13.084ZM10.2543 9.60193C9.88979 9.91195 9.59703 10.2975 9.39626 10.7318C9.19548 11.1661 9.09148 11.639 9.09148 12.1175C9.09148 12.596 9.19548 13.0688 9.39626 13.5031C9.59703 13.9374 9.88979 14.323 10.2543 14.633V9.60193ZM18.3482 20.3506C18.39 21.0948 17.9632 21.2343 17.4314 21.2478C18.0038 21.964 18.3944 22.1077 18.6322 21.6651C18.7892 21.3732 18.945 21.4037 19.1596 21.3533C19.3692 21.2739 19.5712 21.1756 19.7629 21.0594L18.3482 20.3506ZM38.7004 18.6139L38.491 18.6759C38.5691 19.3635 38.8349 20.0164 39.2594 20.563L39.411 20.5056L38.7004 18.6139ZM38.0514 19.449L37.8722 19.4852L38.0059 20.1235L38.1626 20.0918L38.0514 19.449ZM27.3971 26.3651L27.5877 26.2482L27.3302 25.8614L27.1789 25.9559L27.3971 26.3651ZM11.6799 23.5094C11.7333 23.1045 11.7333 23.1044 11.3786 23.0908L11.6799 23.5094Z" fill="#251B29"/>
<path d="M39.2202 31.3743L38.9785 31.1332L39.1344 30.9846L39.3553 31.2458L39.2202 31.3743Z" fill="white"/>
<path d="M39.0049 30.2024L39.3279 30.4456L39.1154 30.6461L38.8584 30.3474L39.0049 30.2024Z" fill="white"/>
<path d="M32.5021 29.2501L32.4089 29.295C32.4032 29.2547 32.4015 29.2139 32.4038 29.1733C32.4064 29.155 32.4355 29.1403 32.4525 29.124L32.5021 29.2501Z" fill="white"/>
<path d="M78.6638 29.1919V28.9355L78.7473 28.9356V29.1921L78.6638 29.1919Z" fill="white"/>
<path d="M78.5419 27.6667L78.5862 28.1358L78.4749 28.17C78.4263 28.0892 78.3901 28.0016 78.3674 27.91C78.3739 27.8229 78.3953 27.7376 78.4306 27.6577L78.5419 27.6667Z" fill="white"/>
<path d="M39.095 26.9824C39.1318 27.0052 39.1885 27.0211 39.1997 27.0529C39.2114 27.0863 39.1795 27.1349 39.1667 27.177C39.1316 27.1574 39.073 27.1434 39.0667 27.117C39.0664 27.0706 39.0761 27.0248 39.095 26.9824Z" fill="white"/>
<path d="M27.3974 26.3651L27.1792 25.9559L27.3306 25.8613L27.5881 26.2481L27.3974 26.3651Z" fill="white"/>
<path d="M30.3603 25.5762L30.5828 26.4788C30.2356 26.2501 30.0407 26.0657 30.3603 25.5762Z" fill="white"/>
<path d="M39.0146 25.3042C39.4572 25.7453 39.386 25.9248 38.8799 26.0915L39.0146 25.3042Z" fill="white"/>
<path d="M10.6158 25.1893L10.3044 25.7705L10.3715 25.094L10.6158 25.1893Z" fill="white"/>
<path d="M79.3989 25.0537L79.3102 25.4357L79.1643 25.3672L79.4105 25.0758L79.3989 25.0537Z" fill="white"/>
<path d="M79.4108 25.0757H79.5394L79.3992 25.0537L79.4108 25.0757Z" fill="white"/>
<path d="M32.3818 24.6123C32.4307 24.7062 32.4721 24.8037 32.5056 24.9041C32.5085 24.9154 32.3894 24.9879 32.3565 24.9718C32.3259 24.955 32.299 24.9322 32.2776 24.9047C32.2562 24.8772 32.2406 24.8455 32.232 24.8118C32.2246 24.7728 32.2982 24.7186 32.3818 24.6123Z" fill="white"/>
<path d="M65.7078 24.8664V24.5294L65.7995 24.5139L65.8738 24.837L65.7078 24.8664Z" fill="white"/>
<path d="M33.6492 24.5489L33.8307 24.1631L33.9806 24.2181L33.8236 24.6588L33.6492 24.5489Z" fill="white"/>
<path d="M38.96 24.1666L38.4859 24.946L38.3809 24.8737L38.7121 23.7588C39.4331 23.9881 39.5445 24.2205 39.268 25.0752C39.233 24.9336 39.2077 24.7898 39.1924 24.6447C39.2003 24.5504 39.217 24.4569 39.2424 24.3657L38.96 24.1666Z" fill="white"/>
<path d="M78.6371 23.4183L78.573 24.0962L78.4177 24.0799L78.4996 23.4045L78.6371 23.4183Z" fill="white"/>
<path d="M40.3086 23.3279L40.2114 23.7638L40.1097 23.7748C40.0907 23.6756 40.0281 23.5536 40.0648 23.4835C40.1022 23.412 40.2373 23.3917 40.3296 23.3489L40.3086 23.3279Z" fill="white"/>
<path d="M11.68 23.5095L11.3787 23.0908C11.7334 23.1045 11.7334 23.1045 11.68 23.5095Z" fill="white"/>
<path d="M34.0136 21.4297C33.9225 21.4974 33.8787 21.5486 33.8246 21.5639C33.7867 21.5747 33.7348 21.5367 33.6892 21.5205C33.7144 21.4606 33.7274 21.3633 33.7678 21.3503C33.8186 21.3338 33.8917 21.3862 34.0136 21.4297Z" fill="white"/>
<path d="M63.5344 21.3231L63.4899 21.659L63.3966 21.6572L63.3662 21.3088L63.5344 21.3231Z" fill="white"/>
<path d="M79.7695 21.7424L79.5808 21.1772L79.7445 21.1484V21.7648L79.7695 21.7424Z" fill="white"/>
<path d="M78.5562 20.6331V22.6898C78.3711 22.0197 78.3077 21.3217 78.3692 20.6292L78.5562 20.6331Z" fill="white"/>
<path d="M31.5433 19.7574L31.6542 20.2343L31.5016 20.2632L31.3894 19.7463L31.5433 19.7574Z" fill="white"/>
<path d="M63.476 19.1458L63.7874 20.0123C63.3109 19.8733 63.0761 19.634 63.476 19.1458Z" fill="white"/>
<path d="M33.4931 18.4109C33.861 18.8668 33.907 19.2046 33.3517 19.4945C33.016 19.0824 33.2251 18.7796 33.4931 18.4109Z" fill="white"/>
<path d="M19.7346 5.37317L19.1482 9.88604C18.6401 8.31402 19.4428 6.85572 19.5567 5.33252L19.7346 5.37317Z" fill="white"/>
<path d="M94.3934 4.21525C94.525 4.18657 94.6583 4.16414 94.7876 4.12744C94.909 4.09299 95.0261 4.04344 95.1873 3.98535V4.96453L94.7499 5.19462L95.41 6.15778C96.2247 5.93325 95.5334 5.1402 96.1153 4.84116C96.1294 4.85475 96.1956 4.96372 96.2421 4.95591C96.456 4.91994 96.7523 5.0071 96.7956 4.65442C96.5051 5.09919 96.99 5.06923 97.1456 5.12914C97.2705 5.16329 97.386 5.22562 97.4831 5.31128C97.5803 5.39693 97.6565 5.50361 97.706 5.62328C97.7452 5.72007 97.9217 5.76174 98.0384 5.83025C98.0766 6.66297 98.165 7.4926 98.3031 8.31468C98.5227 9.20481 98.8091 10.077 99.1599 10.9241C99.4874 11.7732 99.886 12.5949 100.316 13.5705L102.793 6.34732H106.829C106.588 7.00898 106.373 7.6136 106.149 8.21495C104.936 11.4753 103.729 14.7383 102.495 17.9909C102.413 18.1862 102.372 18.3961 102.374 18.6078C102.376 18.8195 102.421 19.0287 102.506 19.2225C104.007 23.0077 105.497 26.7976 106.974 30.5924C107.091 30.8919 107.2 31.1952 107.336 31.5601H103.214L100.315 23.9947L100.166 23.9665L97.3439 31.5721H93.341C93.4477 31.2453 93.5342 30.9483 93.6409 30.6588C95.0497 26.8378 96.4617 23.018 97.8769 19.1993C98.0744 18.668 98.1539 18.1903 97.6259 17.8046L97.632 17.8193C97.6689 17.7447 97.6877 17.6625 97.6871 17.5792C97.6865 17.496 97.6664 17.414 97.6285 17.3399C97.5905 17.2658 97.5357 17.2016 97.4685 17.1525C97.4013 17.1033 97.3236 17.0706 97.2414 17.0569C97.2114 16.2015 96.9842 15.3646 96.5776 14.6115L95.8273 14.9265C95.8273 14.4714 95.841 14.1031 95.824 13.7361C95.8115 13.2564 95.7736 12.7776 95.7106 12.3019C95.6446 11.8718 95.4233 11.5504 94.7722 11.6768L95.2509 11.312C95.1622 10.8555 94.4177 10.6663 94.909 9.94851L93.7622 9.87611C93.5081 9.6083 93.2663 9.31423 92.9836 9.06656C92.8614 8.94611 92.7647 8.80216 92.6994 8.64341C92.6341 8.48467 92.6016 8.31439 92.6037 8.14276C92.5597 7.12113 92.6774 6.09899 92.9525 5.11412C93.0442 4.65561 93.145 4.64157 93.7968 4.46528C93.9498 4.42389 94.0475 4.14974 94.2948 4.29225L94.4729 4.34372L94.3934 4.21525Z" fill="#251B29"/>
<path d="M106.403 20.7333L106.425 20.4105L106.537 20.4075L106.574 20.7306L106.403 20.7333Z" fill="white"/>
<path d="M18.3479 20.3506L19.7626 21.0594C19.5709 21.1756 19.369 21.2739 19.1594 21.3533C18.9448 21.4037 18.789 21.3732 18.632 21.6651C18.3941 22.1076 18.0035 21.9639 17.4312 21.2478C17.963 21.2343 18.3897 21.0948 18.3479 20.3506Z" fill="white"/>
<path d="M72.4177 20.7955C72.8445 20.9285 73.2105 21.2082 73.4509 21.5852C73.6912 21.9622 73.7904 22.4121 73.7307 22.8552L73.5425 22.6223L73.4525 22.7099L73.7928 23.0554L73.8689 22.9916C73.8967 23.0626 73.9196 23.1355 73.9372 23.2097C74.1569 24.2999 74.0485 25.4307 73.6256 26.4592C73.4661 26.9378 73.1517 27.3497 72.732 27.6296C72.3123 27.9095 71.8113 28.0416 71.3081 28.0049C70.7971 27.9878 70.2849 28.002 69.7146 28.002V20.27H71.0297L71.1753 21.3249L72.2811 21.6464C72.2186 21.3031 72.8732 21.198 72.447 20.773L72.4177 20.7955ZM73.5522 25.3389L73.692 25.2944L73.6129 24.5217L72.9883 24.6407L73.5522 25.3389ZM71.0734 26.9739L71.091 27.0184C71.1456 26.9991 71.2008 26.9809 71.2538 26.9578L71.2393 26.8963L71.0734 26.9739ZM71.1844 25.8656L71.0123 25.8084V26.2068L71.1158 26.215L71.1844 25.8656ZM72.5786 26.7402L72.5439 26.6753C72.5288 26.6936 72.4973 26.7188 72.5016 26.729C72.518 26.7579 72.5382 26.7843 72.5619 26.8076L72.5786 26.7402Z" fill="white"/>
<path d="M71.073 26.9741L71.239 26.8965L71.2535 26.958C71.2004 26.9809 71.1453 26.9992 71.0906 27.0185L71.073 26.9741Z" fill="white"/>
<path d="M72.4467 20.7732L72.3982 20.744C72.3738 20.678 72.3956 20.7367 72.4173 20.7956L72.4467 20.7732Z" fill="white"/>
<path d="M96.8336 19.9241L96.788 20.6834L96.6863 20.6819V19.9294L96.8336 19.9241Z" fill="white"/>
<path d="M108.364 19.9809L108.401 19.9194C108.433 19.9467 108.462 19.9768 108.489 20.0095C108.495 20.0181 108.469 20.0492 108.457 20.0699L108.364 19.9809Z" fill="white"/>
<path d="M78.6689 19.8621L78.5669 20.2123L78.4778 20.1995L78.5127 19.7969L78.6689 19.8621Z" fill="white"/>
<path d="M95.7073 20.0562L95.5464 19.5186L95.6696 19.4817L95.8306 20.0193L95.7073 20.0562Z" fill="white"/>
<path d="M38.0515 19.4492L38.1627 20.092L38.0061 20.1237L37.8723 19.4854L38.0515 19.4492Z" fill="white"/>
<path d="M38.7009 18.6138L39.4115 20.5055L39.2599 20.5629C38.8354 20.0163 38.5696 19.3635 38.4915 18.6759L38.7009 18.6138Z" fill="white"/>
<path d="M103.835 18.9942C103.756 18.2909 104.309 18.2377 104.613 17.9692L105.56 18.6607L103.835 18.9942Z" fill="white"/>
<path d="M97.6256 17.8044L97.5717 18.2136L97.4634 18.167L97.6318 17.8193L97.6256 17.8044Z" fill="white"/>
<path d="M105.819 17.775L106.188 17.4429C106.198 17.5915 106.184 17.741 106.145 17.8848C106.117 17.9337 105.971 17.9155 105.879 17.9275L105.819 17.775Z" fill="white"/>
<path d="M78.5259 17.0559C78.8297 17.7461 78.2505 18.4443 78.983 18.8738L78.5259 19.4851V17.0559Z" fill="white"/>
<path d="M14.3348 17.6607L14.2 16.7043L14.3659 16.6804L14.4233 17.644L14.3348 17.6607Z" fill="white"/>
<path d="M13.1564 16.3346L13.49 16.9566L13.3596 17.0515L12.6636 16.0624L13.554 15.8657L13.6051 15.9845L13.1564 16.3346Z" fill="white"/>
<path d="M96.2846 16.0563L95.9958 16.0148L96.0946 15.8271L96.3221 15.9624L96.2846 16.0563Z" fill="white"/>
<path d="M14.0955 15.7463L14.2384 15.8399C14.1984 15.8993 14.1522 15.9542 14.1004 16.0038C14.0876 16.0142 14.0223 15.9603 13.9812 15.936L14.0955 15.7463Z" fill="white"/>
<path d="M64.2715 15.2314C64.3572 15.259 64.4376 15.3008 64.5094 15.3551C64.5461 15.3937 64.5231 15.4891 64.5329 15.6713L64.1729 15.3746L64.2715 15.2314Z" fill="white"/>
<path d="M14.2763 14.8996L14.0773 15.4339H13.9861L14.1968 14.8665L14.2763 14.8996Z" fill="white"/>
<path d="M105.625 14.3933C105.531 14.3077 105.446 14.2582 105.411 14.1849C105.396 14.1527 105.484 14.072 105.525 14.0134C105.608 14.0652 105.685 14.1239 105.758 14.189C105.72 14.2613 105.676 14.3298 105.625 14.3933Z" fill="white"/>
<path d="M78.5174 14.2312L78.4851 13.9026L78.5885 13.8914L78.6282 14.219L78.5174 14.2312Z" fill="white"/>
<path d="M79.734 13.6189V14.0251L79.6506 14.0264V13.6199L79.734 13.6189Z" fill="white"/>
<path d="M11.5502 13.7112L11.4912 13.7385C11.4809 13.7036 11.4735 13.6679 11.469 13.6318C11.4685 13.624 11.5014 13.6141 11.5189 13.6052L11.5502 13.7112Z" fill="white"/>
<path d="M13.885 13.3228C13.9656 13.3228 14.0462 13.3226 14.1267 13.3255L14.1275 13.3834C14.0507 13.4004 13.9729 13.413 13.8953 13.4265L13.885 13.3228Z" fill="white"/>
<path d="M47.5769 13.1956L47.5995 13.4866L47.5121 13.5024L47.4519 13.2333L47.5769 13.1956Z" fill="white"/>
<path d="M78.4824 13.405L78.4177 13.3061C78.4642 13.2643 78.514 13.2263 78.5665 13.1924C78.5755 13.2404 78.6011 13.2936 78.5881 13.3347C78.5782 13.3661 78.5196 13.3821 78.4824 13.405Z" fill="white"/>
<path d="M24.6479 13.084C25.0194 15.477 25.4001 17.8686 25.7496 20.2648C25.7732 20.5579 25.717 20.8519 25.587 21.1156C25.3914 21.5483 25.124 21.9487 24.8483 22.4298L24.2835 21.6313L23.8076 21.6572C23.8936 21.4328 23.9132 21.1884 23.864 20.9531C23.8148 20.7179 23.6989 20.5018 23.5301 20.3306C23.439 20.1677 23.4111 19.9769 23.4519 19.7947C23.7895 17.5595 24.1407 15.3262 24.4884 13.0925L24.6479 13.084ZM24.6593 20.6995C24.8185 21.0753 24.8948 21.2753 25.2863 21.0262L24.6593 20.6995Z" fill="white"/>
<path d="M12.0201 12.3016C11.9777 12.3145 11.9278 12.3469 11.8955 12.3343C11.8628 12.3215 11.8476 12.2641 11.8247 12.2263C11.8711 12.2132 11.9213 12.1835 11.9625 12.193C11.9887 12.1991 12.0014 12.2633 12.0201 12.3016Z" fill="white"/>
<path d="M33.3546 11.8914L33.448 11.9898L33.3045 12.1117C33.2838 12.0679 33.2409 12.0194 33.2488 11.9815C33.2562 11.9457 33.3171 11.921 33.3546 11.8914Z" fill="white"/>
<path d="M11.4591 10.9872L11.3064 10.6264L11.4299 10.5833L11.555 10.951L11.4591 10.9872Z" fill="white"/>
<path d="M33.7667 10.2446L33.8418 11.1326C33.2431 10.8469 33.574 10.5223 33.5507 10.2572L33.7667 10.2446Z" fill="white"/>
<path d="M94.1437 10.3352L93.3787 10.5724L93.3235 10.4077L94.071 10.1165L94.1437 10.3352Z" fill="white"/>
<path d="M93.1921 10.0758L93.1138 9.88917C93.1704 9.87324 93.2494 9.82692 93.2786 9.84832C93.326 9.88313 93.3409 9.96214 93.3694 10.0225L93.1921 10.0758Z" fill="white"/>
<path d="M54.7036 28.032C54.7549 26.7099 54.8121 25.4813 54.8438 24.2521C54.8524 23.9201 54.7552 23.5862 54.7543 23.2531C54.7463 20.6061 54.7476 17.9592 54.7581 15.3122C54.7894 15.03 54.85 14.7518 54.9387 14.482C54.9523 14.421 54.9868 14.3383 54.9609 14.2988C54.7832 14.0174 54.7006 13.6864 54.7254 13.3545C54.7502 13.0226 54.881 12.7075 55.0986 12.4556C55.1348 12.3835 55.1628 12.3076 55.1819 12.2291C54.3886 11.6109 54.945 10.7539 54.6797 9.87948L55.2238 10.2435L55.5538 9.96579L55.9233 10.6503L56.6069 10.3364L55.8557 9.99413C56.1735 9.84766 56.5287 9.80288 56.8729 9.86596C57.217 9.92905 57.5333 10.0969 57.7784 10.3466C58.0472 10.5538 58.2671 10.8175 58.4226 11.1191C58.5782 11.4207 58.6655 11.7528 58.6785 12.0919C58.725 14.6548 58.7829 17.2175 58.8214 19.7806C58.8233 19.9092 58.6532 20.0325 58.6199 20.1718C58.5828 20.327 58.5413 20.5586 58.6225 20.6508C58.74 20.8158 58.8221 21.0034 58.8636 21.2017C58.9051 21.4 58.9051 21.6049 58.8637 21.8032C58.8061 23.1214 58.7572 24.4411 58.6448 25.755C58.579 26.1542 58.4385 26.5374 58.2308 26.8845C58.064 27.2281 57.8037 27.5177 57.4798 27.72C57.1559 27.9223 56.7815 28.029 56.3996 28.028C55.8897 28.049 55.3783 28.032 54.7036 28.032ZM58.3769 18.6332L58.2162 18.6259L58.4344 19.4278L58.3769 18.6332ZM55.247 19.3858L55.4942 19.4899L55.6868 19.0854C55.5991 19.0517 55.4447 18.9751 55.4341 18.9913C55.3614 19.1177 55.2988 19.2496 55.247 19.3858ZM56.2854 24.5186L56.1812 24.3987L55.8516 24.7113L55.9452 24.8207L56.2854 24.5186ZM56.9169 17.4439L57.0224 17.447V16.9645L56.9413 16.9619L56.9169 17.4439ZM58.4403 15.7497C58.5191 15.6761 58.6061 15.6318 58.613 15.5774C58.6192 15.5283 58.5473 15.4431 58.4916 15.4222C58.4582 15.4096 58.3534 15.4841 58.3464 15.5295C58.3376 15.5867 58.3959 15.6543 58.4403 15.7497H58.4403ZM56.3359 12.021C56.3011 12.01 56.2651 12.0033 56.2286 12.0012C56.2094 12.0025 56.1919 12.0289 56.1736 12.044C56.1959 12.0664 56.2304 12.1115 56.2386 12.1072C56.2746 12.0826 56.3072 12.0537 56.3359 12.021ZM55.5058 11.1305C55.5024 11.1121 55.5045 11.0834 55.4941 11.0778C55.4731 11.0719 55.4512 11.0703 55.4296 11.0733L55.4438 11.151L55.5058 11.1305Z" fill="white"/>
<path d="M70.9359 15.2498L69.7178 15.1486C69.4996 14.7691 69.9087 14.6309 70.2743 14.3805L69.6585 14.1656C70.0582 13.6805 70.2119 13.6829 70.7011 13.9241C71.1433 14.1421 71.5064 14.7185 72.1279 14.3327C72.1041 14.0609 72.0237 13.797 71.892 13.558C71.7603 13.3191 71.5801 13.1102 71.3629 12.9449C70.8277 12.6933 70.288 12.4512 69.724 12.1931V9.76439C70.4922 9.76439 71.267 9.72996 72.0369 9.77681C72.2683 9.80305 72.4882 9.89169 72.6731 10.0332C72.8581 10.1748 73.0011 10.364 73.0868 10.5806C73.4931 11.3916 73.6863 12.2926 73.6484 13.199C73.6105 14.1053 73.3427 14.9871 72.8701 15.7614C72.6734 16.0094 72.4396 16.2256 72.1769 16.4022L71.4748 16.0122L70.9667 16.6022H69.7267L69.6775 15.814H71.2933L71.3511 14.5762L71.1664 14.5433L70.9359 15.2498Z" fill="white"/>
<path d="M78.6182 9.69043V11.1965L78.2014 10.981L78.6182 9.69043Z" fill="white"/>
<path d="M10.2543 9.60181V14.6329C9.88985 14.3228 9.5971 13.9373 9.39632 13.503C9.19555 13.0686 9.09155 12.5959 9.09155 12.1174C9.09155 11.6389 9.19555 11.166 9.39632 10.7317C9.5971 10.2973 9.88985 9.91183 10.2543 9.60181Z" fill="white"/>
<path d="M86.6961 26.973L85.8478 26.5239L84.6336 26.5826C84.3327 27.2255 85.151 27.0706 85.4083 27.4189C85.012 27.6818 84.6836 27.6152 84.5205 27.2587C84.2443 26.7707 84.0693 26.232 84.0059 25.6749C83.9667 21.002 83.9735 16.3286 83.9907 11.6555C83.9592 11.3298 84.0058 11.0014 84.1266 10.6973C84.2474 10.3932 84.4389 10.1223 84.6853 9.90708C84.9318 9.69184 85.2259 9.53846 85.5435 9.4596C85.861 9.38075 86.1928 9.37872 86.5113 9.45369C86.9635 9.56049 87.3637 9.82296 87.6417 10.1953C87.9198 10.5676 88.0579 11.0259 88.0319 11.4898C88.0235 14.245 87.9884 17 87.9677 19.7552C87.9611 20.6183 87.9667 21.4816 87.9667 22.2895L86.6501 23.5168L86.7418 22.9059C86.5471 23.1451 86.2922 23.3283 86.0034 23.4366C85.7145 23.5449 85.4021 23.5745 85.098 23.5223L84.2038 24.6095C84.7512 24.5573 85.1587 24.8903 85.6184 24.5543C85.8455 24.8273 86.2317 25.1021 85.6651 25.4718L84.6715 24.9361C84.5763 25.08 84.4781 25.1645 84.4651 25.2605C84.432 25.5051 84.3353 25.8476 84.4542 25.9775C84.5559 26.0514 84.6742 26.0992 84.7987 26.1168C84.9232 26.1343 85.0501 26.1211 85.1683 26.0782C85.413 25.982 85.6762 25.9419 85.9385 25.9608C86.2007 25.9796 86.4555 26.057 86.6839 26.1872L87.2024 25.7623L87.4197 26.2591L87.309 26.3587C86.8239 26.2266 86.7791 26.2722 86.7915 26.8855L86.6961 26.973ZM86.9552 21.6701C86.5821 21.015 86.2722 21.7132 85.8374 21.6311C86.4663 22.196 86.4908 22.1953 86.9552 21.6701ZM85.4806 22.222L85.5525 22.1304C85.5322 22.1235 85.5004 22.1051 85.4934 22.1119C85.466 22.1423 85.4412 22.1749 85.4191 22.2094L85.4806 22.222ZM86.8812 17.261L86.9939 17.3069L87.0618 17.0683L86.9771 17.0397L86.8812 17.261ZM85.4773 17.697C85.3828 17.8 85.3219 17.8431 85.3287 17.8631C85.3583 17.9315 85.3948 17.9967 85.4376 18.0577L85.4773 17.697Z" fill="white"/>
<path d="M87.4679 26.987C87.2037 27.3698 86.9477 27.3015 86.6965 26.9729L86.7919 26.8855L87.3935 26.9017C87.4187 26.9298 87.4435 26.9583 87.4679 26.987Z" fill="white"/>
<path d="M72.5779 26.7403L72.5611 26.8077C72.5375 26.7844 72.5172 26.7579 72.5009 26.7291C72.4966 26.7188 72.528 26.6937 72.5431 26.6753L72.5779 26.7403Z" fill="white"/>
<path d="M87.4201 26.2593C87.6098 26.4906 87.927 26.7135 87.4679 26.9872C87.4434 26.9585 87.4186 26.93 87.3934 26.9019L87.3093 26.3589L87.4201 26.2593Z" fill="white"/>
<path d="M87.3095 26.3587L87.3935 26.9017L86.792 26.8855C86.7796 26.2723 86.8244 26.2266 87.3095 26.3587Z" fill="white"/>
<path d="M71.1843 25.8655L71.1157 26.2149L71.0122 26.2068V25.8083L71.1843 25.8655Z" fill="white"/>
<path d="M73.5515 25.339L72.9875 24.6409L73.6121 24.5217L73.6912 25.2944L73.5515 25.339Z" fill="white"/>
<path d="M56.2854 24.5186L55.9451 24.8207L55.8516 24.7113L56.1812 24.3987L56.2854 24.5186Z" fill="white"/>
<path d="M87.7819 25.8979C87.7215 25.4934 87.6487 25.0902 87.6064 24.6838C87.5792 24.3819 87.5125 24.0848 87.408 23.8002L87.8909 23.2615C87.9997 24.1288 88.042 25.0033 88.0172 25.8771L87.7819 25.8979Z" fill="white"/>
<path d="M85.4804 22.2219L85.4189 22.2093C85.4411 22.1749 85.4659 22.1423 85.4933 22.1118C85.5002 22.105 85.532 22.1235 85.5524 22.1303L85.4804 22.2219Z" fill="white"/>
<path d="M86.9556 21.6701C86.4912 22.1952 86.4668 22.196 85.8379 21.6311C86.2726 21.7132 86.5826 21.015 86.9556 21.6701Z" fill="white"/>
<path d="M24.6592 20.6995L25.2862 21.0262C24.8946 21.2753 24.8183 21.0753 24.6592 20.6995Z" fill="white"/>
<path d="M55.2468 19.3858C55.2987 19.2495 55.3614 19.1176 55.4341 18.9912C55.4446 18.975 55.5989 19.0516 55.6867 19.0853L55.4942 19.4898L55.2468 19.3858Z" fill="white"/>
<path d="M58.3769 18.633L58.4345 19.4277L58.2163 18.6257L58.3769 18.633Z" fill="white"/>
<path d="M85.4775 17.697L85.4378 18.0577C85.395 17.9967 85.3585 17.9315 85.3289 17.8631C85.3221 17.8431 85.3829 17.8 85.4775 17.697Z" fill="white"/>
<path d="M86.8816 17.2608L86.9775 17.0396L87.0623 17.0683L86.9944 17.3069L86.8816 17.2608Z" fill="white"/>
<path d="M56.917 17.4439L56.9414 16.9619L57.0225 16.9645V17.447L56.917 17.4439Z" fill="white"/>
<path d="M58.44 15.7497C58.3956 15.6543 58.3373 15.5867 58.3461 15.5295C58.3531 15.4841 58.4579 15.4097 58.4913 15.4223C58.547 15.4432 58.6189 15.5284 58.6127 15.5775C58.6058 15.6318 58.5188 15.6761 58.44 15.7497Z" fill="white"/>
<path d="M56.336 12.0209C56.3073 12.0537 56.2746 12.0826 56.2387 12.1072C56.2305 12.1115 56.196 12.0664 56.1736 12.044C56.1919 12.0289 56.2095 12.0025 56.2287 12.0012C56.2651 12.0033 56.3012 12.01 56.336 12.0209Z" fill="white"/>
<path d="M55.5057 11.1304L55.4437 11.151L55.4294 11.0733C55.451 11.0703 55.473 11.0718 55.494 11.0778C55.5044 11.0834 55.5022 11.1121 55.5057 11.1304Z" fill="white"/>
<path d="M78.2855 8.88965L78.1847 9.4671C78.0676 9.29496 78.0946 9.10417 78.3044 8.91198L78.2855 8.88965Z" fill="white"/>
<path d="M78.3046 8.91206L78.5996 8.44946L78.6735 9.07187L78.2856 8.88974L78.3046 8.91206Z" fill="white"/>
<path d="M39.6866 7.10376L39.7174 7.75821L39.4832 7.76532V7.11077L39.6866 7.10376Z" fill="white"/>
<path d="M39.4429 6.73395L39.3999 5.94533L39.5917 5.93091L39.6478 6.71833L39.4429 6.73395Z" fill="white"/>
<path d="M9.95752 5.06433L10.0255 4.75122C10.067 4.80054 10.1012 4.85554 10.1271 4.91453C10.1328 4.93345 10.0599 4.97615 9.95752 5.06433Z" fill="white"/>
<path d="M94.3931 4.21533L94.4725 4.3439L94.2944 4.29233C94.3252 4.26401 94.3582 4.23828 94.3931 4.21533Z" fill="white"/>
<path d="M36.3003 3.69312C36.4141 4.15668 37.1318 4.31015 36.8399 5.10735L36.0996 3.81718L36.3003 3.69312Z" fill="white"/>
<path d="M53.6778 2.92065L54.6038 3.62837L53.9109 4.572C53.4697 4.14189 53.8039 3.5841 53.6778 2.92065Z" fill="white"/>
<path d="M10.1444 2.79533L10.0599 3.11835L9.948 3.09883L9.98062 2.75098L10.1444 2.79533Z" fill="white"/>
<path d="M36.3459 2.54012L36.3826 3.13359C36.3275 3.18746 36.2809 3.25942 36.2565 3.25254C36.1242 3.2152 35.9975 3.15846 35.8689 3.10836L36.1928 2.48364L36.3459 2.54012Z" fill="white"/>
</g>
<defs>
<clipPath id="clip0_1383_1327">
<rect width="112.271" height="47.9999" fill="white"/>
</clipPath>
</defs>
</svg>
