<svg xmlns="http://www.w3.org/2000/svg" width="114" height="48" fill="none" viewBox="0 0 114 48"><g clip-path="url(#a)"><path fill="#BE1B1B" d="M1.003 0h112.052v47.673c-.268.018-.536.053-.804.053-36.801.002-73.602.003-110.403.002h-.845V0ZM80.21 25.076l-.246.291.146.069.088-.383.14.023h-.128ZM79.104 8.912c-.21.192-.236.383-.12.555l.101-.577.388.182-.074-.623-.295.463Zm19.321 8.893c.528.385.449.863.251 1.394a3081.05 3081.05 0 0 0-4.236 11.46c-.107.29-.193.586-.3.913h4.003l2.822-7.605.149.028 2.899 7.565h4.122c-.136-.365-.244-.668-.362-.968a6598.494 6598.494 0 0 0-4.468-11.37 1.568 1.568 0 0 1-.011-1.231c1.234-3.253 2.441-6.516 3.655-9.776.223-.601.438-1.206.679-1.868h-4.036l-2.477 7.224c-.43-.976-.828-1.798-1.156-2.647-.35-.847-.637-1.72-.857-2.61a20.73 20.73 0 0 1-.264-2.484c-.117-.068-.294-.11-.333-.207a.848.848 0 0 0-.56-.494c-.156-.06-.64-.03-.35-.475-.044.353-.34.266-.554.302-.046.008-.112-.101-.127-.115-.582.3.11 1.092-.705 1.317l-.66-.963.437-.23v-.98c-.16.058-.278.108-.4.142-.129.037-.262.06-.394.088a.777.777 0 0 0-.098.077c-.247-.142-.345.132-.498.173-.652.177-.753.19-.845.65a9.705 9.705 0 0 0-.348 3.028 1.275 1.275 0 0 0 .38.924c.282.247.524.541.778.81l1.147.072c-.491.717.253.907.342 1.363l-.479.365c.651-.127.873.195.939.625.063.476.1.954.113 1.434.017.367.003.736.003 1.19l.75-.314c.407.753.634 1.59.664 2.445a.534.534 0 0 1 .391.763l-.168.347.108.047.054-.41Zm-17.88 3.96v-.617l-.164.03.189.564.236.348.087-.462.192.026-.168 1.616c.041.253.1.496.117.741.016.97.083 1.94.199 2.903a4.86 4.86 0 0 0 .79 2.159 7.373 7.373 0 0 0 2.179 1.77 5.702 5.702 0 0 0 8.41-4.878c.03-4.832.043-9.665-.009-14.496a5.454 5.454 0 0 0-3.557-5.15 5.616 5.616 0 0 0-6.226 1.18 6.172 6.172 0 0 0-1.904 4.58c.022 2.82-.035 5.64.098 8.457.038.186.037.377-.004.561a3.992 3.992 0 0 1-.465.668Zm-39.436 1.563c.112.13.208.274.286.428.402 1.088.787 2.182 1.181 3.273.55 1.517 1.102 3.032 1.643 4.521h3.539V6.06h-3.58v14.383a.932.932 0 0 1-.31-.452c-.637-1.778-1.296-3.55-1.894-5.34a14.834 14.834 0 0 1-1.174-4.174c-.003-.1-.035-.248-.104-.288-.65-.373-.6-1.099-.86-1.666a.215.215 0 0 1-.004-.14l.583-.122-.023-.164h-.684l-.796-2.135c-.467.267-.832-.136-1.292-.067-.506.056-1.015.083-1.525.08-.34.011-.68.002-1.008.002a2.36 2.36 0 0 0-.062.342c-.003 1.27.026 2.54-.011 3.81-.037 1.253-.14 2.504-.214 3.755-.004.081.028.18-.008.24-.057.095-.232.177-.222.245.017.116.194.211.207.326.095.872.207 1.745.235 2.62.04 1.215.012 2.432.009 3.648 0 .314.068.633-.331.824a.899.899 0 0 1-1.046-.17c-.309-.251-.594-.532-.943-.848v.77l-1.98.836-2.87-16.307h-4.977L21.27 15.13a8.646 8.646 0 0 1-1.084-3.179 3.96 3.96 0 0 0 .521 2.745 2.917 2.917 0 0 1 .328 2.548c-.107.388-.192.782-.268 1.095-.49.132-.968-.628-1.372.133h-1.57c-.282.43-.889.348-1.365.538l.535.738.6-.638c-.026.407.008.816.098 1.214.191.323.426.617.697.875a4.363 4.363 0 0 1-3.154-2.591 8.931 8.931 0 0 1-2.087-1.626l.412-.678-.632.269-1.171-.73c.08-.358.118-.724.115-1.09-.083-.663-.279-1.31-.374-1.972-.119-.828-.19-1.664-.27-2.497a.684.684 0 0 1 .416-.794c.46-.184 1.51.028 1.693.467.285.714.488 1.46.605 2.22.007.027.02.052.039.072a2.91 2.91 0 0 0 1.802-.08c.625-.118 1.255-.207 1.95-.32a9.363 9.363 0 0 0-1.224-3.74 5.617 5.617 0 0 0-1.324-1.29 5.688 5.688 0 0 0-4.844-.76 4.85 4.85 0 0 0-3.55 3.051 7.414 7.414 0 0 0 1.197 8.107c1.052 1.16 2.183 2.25 3.278 3.372.423.393.824.81 1.202 1.246.302.385.213.546-.352.927-.104-.348.418-.916-.386-1.025-.018.294-.06.583-.047.87.044 1.1.128 2.2.146 3.302-.041.35-.127.692-.255 1.02l.421.478.92.258-.028.236c-.411 0-.824.019-1.234-.003-1.244-.065-1.587-.323-1.91-1.552-.175-.672-.253-1.369-.387-2.119l-3.568.585a6.249 6.249 0 0 0 2.819 5.783 6.504 6.504 0 0 0 6.835.042l.216.206a.197.197 0 0 0-.057-.179.43.43 0 0 1-.047-.116c2.897-2.594 2.884-5.675 1.618-9.148l2.93 1.628-1.403 8.506h3.76c.115-.564.24-1.044.31-1.532.163-1.148.306-2.3.444-3.452.044-.373.205-.637.599-.627 1.206.033 2.412.091 3.627.14l.961 5.498h3.916c-.054-.334-.082-.628-.15-.914a9.926 9.926 0 0 0-.873-3.253 2.878 2.878 0 0 1-.574-1.114c-.066-.436-.173-.865-.277-1.369l.76-.42-.421-1.75 1.562-.648.278.458c.578-1.168 1.198.058 1.668-.031.067.314.19.613.362.883a1.402 1.402 0 0 1 .38 1.098c-.017 1.27.012 2.541-.023 3.81a8.004 8.004 0 0 1-.258 1.32c.561.497.07 1.279.256 1.917h3.54a.822.822 0 0 0 .067-.201 5.908 5.908 0 0 1 .547-3.33 2.018 2.018 0 0 0-.034-1.6l-.395.208c0-1.924 0-3.786.002-5.648 0-.02.033-.038.08-.087l.61-.157c.2.554.708 1.005.133 1.745l-.46-1.07c-.594.798.042 1.32.309 2.014l.85-1.114.7.133.173.908c-.093.043-.228.063-.265.135-.037.07.026.192.045.29l.102-.01.097-.436Zm22.382-6.056c0-.514.007-1-.002-1.484-.028-1.565.038-3.14-.116-4.694A5.577 5.577 0 0 0 57.76 6.1c-1.758-.003-3.516.003-5.274-.005-.338-.001-.676-.05-1.055-.08a1.193 1.193 0 0 1-1.501.739c-.136.369-.111.924-.736.663l.058-.987c-.214.149-.345.303-.497.327a1.666 1.666 0 0 1-.572-.159c-.028.463-.08.836-.068 1.206.024.723.084 1.445.129 2.168.006.107-.026.24.026.318a1.318 1.318 0 0 1 .04 1.16c-.084.319-.159.672.208.938.29-.684.078-1.49.633-2.054l.648.415.58-.547h.772c-.119-.562-.35-1.101.179-1.689.093.278.16.564.201.854.015.383.059.76.09 1.139a3.296 3.296 0 0 1-.279 1.841 3.339 3.339 0 0 0-.098 3.124 3.67 3.67 0 0 1 .428 1.828 8510.78 8510.78 0 0 0-.002 13.369v.933h.878c1.488 0 2.976.026 4.462-.01a18.488 18.488 0 0 0 2.245-.236 4.38 4.38 0 0 0 3.021-1.992 7.047 7.047 0 0 0 1.278-4.189c-.02-1.89-.01-3.781-.058-5.67a.76.76 0 0 1 .528-.839 1.455 1.455 0 0 1 .925-1.8c.232-.09.398-.246.285-.543l-1.743.95Zm3.1 14.225c.098.033.2.057.302.072 2.328.002 4.655.024 6.982-.008a4.084 4.084 0 0 0 3.623-2.097c.399-.671.712-1.39.932-2.14.41-1.575.464-3.222.157-4.82a4.764 4.764 0 0 0-2.175-3.593c-.21-.16-.408-.336-.74-.612a2.9 2.9 0 0 0 .399-.212 5.724 5.724 0 0 0 2.096-3.724c.125-.876.102-1.773.143-2.661a3.26 3.26 0 0 0 .016-.897 11.697 11.697 0 0 0-.485-1.332 4.467 4.467 0 0 0-2.838-2.811 10.23 10.23 0 0 0-2.689-.51c-1.755-.082-3.516-.032-5.275-.032-.156 0-.311.032-.562.06v16.016c-.915-.195-1.022-1.073-1.61-1.577a2.254 2.254 0 0 0 1.452 1.962c.286.538.45.92.679 1.259.49.8.816 1.691.958 2.62l-1.365.373v4.664Zm-51.38 4.323h-1.553v3.37l-.12.023-1.728-3.405h-1.516v6.65h1.496v-3.385l.113-.032 1.724 3.428h1.584v-6.65Zm14.706 3.7c.127-.115.232-.2.325-.295a1.96 1.96 0 0 0 .475-2.092 1.75 1.75 0 0 0-1.528-1.28 23.26 23.26 0 0 0-2.463-.02v6.647h1.5v-2.649l.154-.029 1.102 2.676h1.609l-1.174-2.959Zm5.734 2.946h1.579l-1.771-6.641H33.7l-1.762 6.644h1.526l.343-1.047h1.55l.293 1.044Zm18.888.025 2.005-6.68h-1.64L53.811 40l-1.163-4.171h-1.603l2.045 6.661h1.45Zm4.945-1.428v-1.228h1.252v-1.366l-1.242-.065V37.18h1.472v-1.365H57.94v6.654h3.017v-1.406h-1.473Zm-34.59 1.45v-1.467h-1.45v-1.158l1.24-.067v-1.386h-1.26V37.2h1.446v-1.365h-3.007v6.634c.19.016.346.041.502.042.833.003 1.667.002 2.528.002Zm16.992-1.483c-1.629.082-2.24-.477-2.215-1.962.023-1.404.662-1.944 2.237-1.833v-1.489a2.758 2.758 0 0 0-3.177.98 4.402 4.402 0 0 0 .05 4.876 2.535 2.535 0 0 0 3.105.849v-1.42Zm4.66-3.748v-1.456h-3.61v1.434l1.025.11v5.09h1.561v-5.128l1.025-.05Zm-28.805.036v5.153h1.6v-5.126l.982-.087v-1.446h-3.569v1.506h.987Zm31.848 5.16v-6.656H48.14v6.656h1.448Zm-41.409.001v-6.658H6.73v6.658h1.45ZM20.534 5.373l-.178-.04c-.114 1.523-.917 2.981-.409 4.553l.587-4.513Zm84.101 13.621 1.725-.333-.947-.692c-.304.269-.857.322-.778 1.025ZM54.478 2.921c.126.663-.208 1.22.233 1.65l.693-.943-.926-.707ZM39.76 24.166l.282.2a1.509 1.509 0 0 0-.05.279c.016.145.041.288.076.43.277-.855.165-1.087-.556-1.316l-.331 1.115.105.072.474-.78Zm39.566-7.11v2.429l.457-.611c-.733-.43-.153-1.128-.457-1.818Zm.03 3.577-.187-.004a5.81 5.81 0 0 0 .187 2.06v-2.056Zm-65.4-4.298.449-.35-.051-.12-.891.197.696.99.13-.095-.333-.622Zm20.336 2.076c-.268.368-.477.671-.141 1.083.555-.29.51-.627.141-1.083Zm45.082 6.141h-.13c0 .19-.007.382.001.572.011.23.05.46.048.69a2.118 2.118 0 0 1-.09.425l.171.02v-1.707ZM37.1 3.693l-.2.124.74 1.29c.292-.797-.426-.95-.54-1.414Zm.046-1.153-.153-.056-.324.624c.129.05.255.107.387.144.025.007.072-.065.127-.119l-.037-.593Zm27.13 16.606c-.4.488-.165.727.311.866l-.311-.866ZM15.135 17.66l.088-.017-.057-.964-.166.024.134.957Zm64.283-7.97-.417 1.29.417.215V9.69ZM40.486 7.103l-.203.007v.654l.234-.007-.03-.654ZM48.72 26.6l.05.21.542-.106-.057-.243-.535.139ZM34.567 10.244l-.216.013c.023.265-.308.59.29.875l-.074-.888Zm5.676-3.51.204-.016-.056-.787-.191.014.043.789Zm-.429 18.57-.135.788c.507-.167.578-.347.135-.788Zm-8.654.272c-.32.49-.125.674.223.903l-.223-.903Zm49.658 3.656.058-.65c-.443.174-.393.34-.058.65ZM15.076 14.9l-.08-.034-.21.568h.091l.2-.534Zm17.267 4.857-.154-.01.112.516.153-.029-.111-.477Zm65.29.167-.147.005v.753l.102.001.045-.759ZM39.805 30.202l-.147.145.258.3.212-.201-.323-.244Zm39.537-2.535-.112-.01a.765.765 0 0 0-.063.253c.023.091.06.18.108.26l.111-.034-.044-.47Zm-67.926-2.478-.245-.095-.067.676.312-.58Zm83.528-14.854-.073-.219-.748.292.056.164.765-.237ZM39.842 32.813l.187.12.246-.467-.133-.075-.3.422Zm56.665-12.757.123-.037-.16-.537-.124.037.161.537Zm9.918-5.663c.051-.063.095-.132.133-.204a1.717 1.717 0 0 0-.233-.176c-.041.059-.129.14-.114.172.035.073.12.123.213.208h.001Zm-26.988 9.025-.138-.014-.082.676.156.016.064-.678ZM10.944 2.795l-.164-.044-.032.348.112.02.084-.324Zm95.675 14.98.059.152c.093-.011.238.007.266-.042.039-.144.054-.293.043-.442l-.368.332Zm-26.085-4.156h-.084v.407l.084-.001v-.406Zm-1.07 15.573h.082v-.256h-.083v.256ZM65.07 15.232l-.098.143.36.296c-.01-.182.013-.277-.024-.316a.802.802 0 0 0-.238-.124Zm-30.62 9.316.175.11.157-.441-.15-.055-.182.386Zm32.058.317.166-.029-.074-.323-.092.015v.337ZM40.02 31.374l.135-.128-.22-.261-.156.148.241.241Zm67.183-10.64.171-.003-.037-.324-.113.004-.021.322Zm-94.944-9.747.096-.036-.126-.368-.123.043.153.361Zm2.636 4.76-.114.19c.041.023.106.077.12.067a.997.997 0 0 0 .137-.164l-.143-.094Zm82.19.31.037-.094-.227-.136-.099.188.289.041ZM10.757 5.063c.103-.088.175-.13.17-.15a.675.675 0 0 0-.102-.163l-.068.313Zm68.526 8.34c.037-.022.095-.038.105-.07.013-.04-.012-.094-.021-.142a1.164 1.164 0 0 0-.15.114c-.005.006.042.064.066.099Zm-44.47 8.026c-.122-.044-.195-.096-.246-.08-.04.013-.053.11-.078.17.045.017.097.055.135.044.054-.015.098-.067.189-.134Zm74.351-1.449.093.089c.012-.02.038-.052.032-.06a.728.728 0 0 0-.088-.09l-.037.061ZM12.35 13.71l-.031-.106c-.018.01-.05.019-.05.027a.672.672 0 0 0 .022.107l.06-.028Zm27.545 13.272a.328.328 0 0 0-.028.134c.006.026.065.04.1.06.013-.042.044-.09.033-.124-.011-.032-.068-.048-.105-.07ZM12.82 12.3c-.019-.038-.031-.102-.058-.108-.04-.01-.091.02-.138.033.023.038.039.095.071.108.032.013.082-.02.125-.033Zm20.361 12.311c-.083.107-.157.161-.15.2a.254.254 0 0 0 .125.16c.033.016.152-.056.15-.068a2.008 2.008 0 0 0-.125-.292Zm.973-12.72c-.037.029-.098.054-.105.09-.008.037.035.086.055.13l.144-.122-.094-.099Zm45.315 7.97-.156-.065-.035.403.09.012.101-.35Zm-.152-5.63.111-.013-.04-.327-.103.01.032.33Zm-30.94-1.036-.126.037.06.27.088-.016-.023-.291Zm45.615-3.12.177-.053c-.028-.06-.043-.14-.09-.175-.03-.021-.109.025-.165.041l.078.187ZM64.335 21.323l-.169-.014.03.348.094.002.044-.336Zm-49.65-8 .01.104c.077-.014.155-.027.232-.044v-.058c-.081-.002-.162-.002-.242-.002ZM33.3 29.25l-.05-.126c-.016.016-.045.031-.048.05a.62.62 0 0 0 .005.121l.093-.045Z"/><path fill="#FDFBFB" d="M1.004 0v47.728h.845c36.8 0 73.602 0 110.403-.002.268 0 .536-.035.804-.053-.067.101.158.344-.163.326-.189-.01-.378-.002-.568-.002H.841C.841 32.24.845 16.485.851.73c0-.238-.187-.55.153-.73Z"/><path fill="#FDFBFB" d="M24.893 42.513c-.86 0-1.694.002-2.528-.002-.155-.001-.31-.026-.502-.042v-6.634h3.007V37.2h-1.445v1.235h1.26v1.386l-1.24.067v1.158h1.448v1.467Zm21.654-5.231-1.024.05v5.129h-1.561v-5.092l-1.025-.108v-1.435h3.61v1.456Zm-10.895 5.184-.294-1.044h-1.55l-.343 1.047H31.94l1.762-6.644h1.757l1.771 6.64h-1.578Zm-.588-2.324-.477-2.452-.082.017-.413 2.435h.972Z"/><path fill="#BE1B1B" d="M35.063 40.142h-.972l.414-2.435.081-.017.477 2.452Z"/><path fill="#FDFBFB" d="M49.589 42.478H48.14v-6.656h1.448v6.656Zm-41.409.001H6.73V35.82h1.45v6.658Zm51.305-1.416h1.473v1.406H57.94v-6.654h3.026v1.365h-1.472v1.224l1.241.065v1.366h-1.251v1.228Zm-41.744-3.745h-.986v-1.506h3.568v1.446l-.98.087v5.126H17.74v-5.153Zm36.799 5.173h-1.45l-2.045-6.661h1.603L53.81 40l1.093-4.19h1.64l-2.005 6.681ZM29.917 39.52l1.174 2.958h-1.608l-1.103-2.676-.154.03v2.648h-1.5v-6.646a22.737 22.737 0 0 1 2.463.02 1.748 1.748 0 0 1 1.529 1.279 1.96 1.96 0 0 1-.475 2.092c-.093.096-.198.18-.326.294Zm-1.642-.915c.745-.053.981-.233.973-.71-.01-.52-.304-.736-.973-.7v1.41Z"/><path fill="#BE1B1B" d="M28.275 38.605v-1.41c.669-.036.963.18.973.7.008.477-.228.657-.973.71Z"/><path fill="#FDFBFB" d="M15.212 35.82v6.65h-1.585l-1.723-3.43-.113.033v3.385h-1.496v-6.65h1.516l1.728 3.405.12-.023v-3.37h1.553Zm26.674 5.21v1.42a2.535 2.535 0 0 1-3.104-.848 4.402 4.402 0 0 1-.05-4.877 2.757 2.757 0 0 1 3.177-.979v1.49c-1.576-.112-2.214.428-2.237 1.832-.025 1.485.586 2.044 2.215 1.962Zm-2.044-8.217.3-.422.133.075-.246.466-.187-.119Zm39.533-8.261v1.708l-.173-.02a2.1 2.1 0 0 0 .09-.426c.004-.23-.036-.46-.046-.69-.01-.19-.002-.381-.002-.572h.13Zm-15.883-7.28 1.742-.95c.114.297-.052.452-.285.543a1.455 1.455 0 0 0-.925 1.8.76.76 0 0 0-.527.838c.049 1.89.037 3.78.058 5.671a7.048 7.048 0 0 1-1.278 4.189 4.38 4.38 0 0 1-3.021 1.992 18.37 18.37 0 0 1-2.245.235c-1.486.037-2.975.011-4.462.011h-.879v-.933l.002-13.37a3.665 3.665 0 0 0-.427-1.827 3.336 3.336 0 0 1 .098-3.124 3.296 3.296 0 0 0 .28-1.841c-.032-.379-.077-.756-.091-1.139a4.811 4.811 0 0 0-.201-.854c-.53.588-.298 1.127-.18 1.689h-.772l-.579.547-.648-.415c-.556.563-.342 1.37-.633 2.054-.367-.266-.292-.62-.208-.938a1.32 1.32 0 0 0-.04-1.16c-.052-.078-.02-.21-.027-.318-.044-.723-.104-1.445-.128-2.168-.012-.37.04-.743.068-1.206.18.087.373.14.572.159.151-.024.282-.178.497-.327l-.059.987c.625.261.601-.294.736-.663a1.193 1.193 0 0 0 1.502-.739c.379.03.717.079 1.055.08 1.758.008 3.516.002 5.274.005a5.577 5.577 0 0 1 5.613 4.994c.154 1.554.088 3.129.116 4.694.009.485.002.97.002 1.484Zm-7.988 10.76c.675 0 1.186.017 1.696-.004a2.03 2.03 0 0 0 1.83-1.143 3.22 3.22 0 0 0 .415-1.13c.112-1.314.161-2.634.219-3.952a1.468 1.468 0 0 0-.241-1.152c-.082-.092-.04-.324-.003-.48.033-.139.203-.262.201-.39-.038-2.563-.096-5.126-.142-7.69a2.315 2.315 0 0 0-.9-1.744 1.698 1.698 0 0 0-1.923-.353l.751.342-.684.314-.37-.684-.33.277-.543-.363c.265.874-.291 1.73.502 2.35-.02.077-.047.154-.083.226a1.553 1.553 0 0 0-.138 1.843c.026.04-.009.122-.022.183-.089.27-.15.548-.18.83a830.785 830.785 0 0 0-.005 7.941c.001.333.099.667.09 1-.032 1.228-.089 2.457-.14 3.779ZM48.72 26.6l.535-.139.057.243-.543.106-.05-.21Zm17.871 4.897v-4.664l1.365-.373a7.04 7.04 0 0 0-.958-2.62c-.23-.338-.393-.721-.68-1.259a2.255 2.255 0 0 1-1.452-1.962c.59.504.696 1.383 1.61 1.577V6.18c.252-.028.407-.06.563-.06 1.759 0 3.52-.05 5.276.031.915.05 1.819.222 2.688.51a4.466 4.466 0 0 1 2.838 2.812c.189.434.35.878.485 1.332.036.298.03.6-.016.897-.04.888-.018 1.785-.142 2.661a5.724 5.724 0 0 1-2.097 3.724c-.127.081-.26.152-.4.212.333.276.53.453.741.612a4.765 4.765 0 0 1 2.175 3.592 10.958 10.958 0 0 1-.157 4.821 9.351 9.351 0 0 1-.932 2.14 4.084 4.084 0 0 1-3.623 2.098c-2.327.031-4.654.01-6.982.007a1.66 1.66 0 0 1-.302-.072Zm6.626-10.701a1.018 1.018 0 0 0-.02-.052l.05.03c.425.424-.23.53-.167.873l-1.105-.322-.146-1.055h-1.315v7.732c.57 0 1.082-.014 1.594.003a2.268 2.268 0 0 0 2.317-1.546 5.623 5.623 0 0 0 .312-3.249 1.628 1.628 0 0 0-.069-.218l-.076.064-.34-.346.09-.087.188.232a1.893 1.893 0 0 0-1.313-2.06Zm-1.481-5.546.23-.707.185.033-.058 1.238h-1.616l.05.788h1.24l.508-.59.702.39c.262-.177.496-.393.693-.64a5.347 5.347 0 0 0 .217-5.181 1.286 1.286 0 0 0-1.05-.804c-.77-.047-1.545-.013-2.313-.013v2.43c.564.257 1.103.5 1.639.751a1.959 1.959 0 0 1 .764 1.388c-.62.386-.984-.19-1.426-.409-.49-.241-.643-.243-1.043.242l.616.215c-.365.25-.775.388-.556.768l1.218.1Zm8.809 6.515a4.01 4.01 0 0 0 .465-.668c.041-.184.043-.375.004-.56-.132-2.818-.076-5.638-.097-8.457a6.173 6.173 0 0 1 1.903-4.582 5.616 5.616 0 0 1 6.226-1.18 5.453 5.453 0 0 1 3.558 5.15c.051 4.832.039 9.665.008 14.497a5.702 5.702 0 0 1-8.41 4.879 7.372 7.372 0 0 1-2.18-1.771 4.86 4.86 0 0 1-.788-2.159 28.252 28.252 0 0 1-.2-2.903c-.016-.245-.075-.488-.117-.741l.169-1.616-.192-.026-.087.462-.237-.348-.025.023Zm7.723 5.222c.459-.274.142-.497-.048-.728l-.217-.497-.519.425a1.761 1.761 0 0 0-1.515-.109.77.77 0 0 1-.714-.1c-.12-.13-.023-.473.01-.718.013-.096.112-.18.207-.324l.994.536c.566-.37.18-.645-.047-.918-.46.336-.867.003-1.415.055l.894-1.087a1.74 1.74 0 0 0 1.644-.616l-.091.61 1.316-1.227c0-.807-.005-1.67.001-2.534.02-2.755.056-5.51.064-8.265a1.978 1.978 0 0 0-1.52-2.036 2.059 2.059 0 0 0-2.52 2.201c-.018 4.674-.025 9.347.014 14.02a4.19 4.19 0 0 0 .515 1.584c.163.356.491.423.888.16-.258-.348-1.076-.194-.775-.837l1.214-.058.849.449c.25.328.507.397.77.014Zm.314-1.09.236-.02a17.127 17.127 0 0 0-.127-2.615l-.483.538c.105.285.172.582.199.884.042.406.115.81.175 1.214Zm-7.764 3.336c-.335-.31-.385-.477.058-.65l-.058.65ZM41.13 23.349l-.172-.909-.702-.131-.85 1.113c-.266-.694-.902-1.216-.307-2.013l.458 1.07c.576-.74.067-1.192-.132-1.745l-.61.156c-.047.05-.08.068-.08.087-.002 1.862-.002 3.724-.002 5.648l.395-.207a2.017 2.017 0 0 1 .034 1.598 5.907 5.907 0 0 0-.547 3.331.827.827 0 0 1-.067.201h-3.54c-.187-.638.305-1.42-.256-1.918a8.02 8.02 0 0 0 .258-1.319c.035-1.269.006-2.54.022-3.81a1.402 1.402 0 0 0-.38-1.098 2.712 2.712 0 0 1-.361-.883c-.47.089-1.09-1.137-1.668.03l-.278-.457-1.563.649.421 1.748-.76.421c.105.504.211.933.278 1.37.107.408.303.789.574 1.113a9.925 9.925 0 0 1 .872 3.253c.069.285.097.58.15.914h-3.915l-.961-5.498c-1.215-.049-2.42-.107-3.627-.14-.394-.01-.555.254-.6.627a159.516 159.516 0 0 1-.444 3.453c-.069.487-.194.967-.31 1.531H18.7l1.404-8.506-2.93-1.628c1.266 3.473 1.279 6.554-1.618 9.148.01.041.026.08.047.116a.196.196 0 0 1 .057.18l-.216-.207a6.504 6.504 0 0 1-6.835-.042 6.248 6.248 0 0 1-2.819-5.783l3.567-.585c.134.75.213 1.447.389 2.119.322 1.229.665 1.487 1.91 1.552.41.022.822.003 1.233.003l.028-.236-.92-.258-.422-.479a4.07 4.07 0 0 0 .256-1.02c-.018-1.1-.102-2.2-.147-3.302-.011-.286.03-.575.048-.87.804.11.282.678.386 1.026.565-.381.654-.542.352-.927a16.091 16.091 0 0 0-1.202-1.246c-1.095-1.121-2.226-2.211-3.278-3.372A7.414 7.414 0 0 1 6.793 9.11a4.85 4.85 0 0 1 3.55-3.052 5.688 5.688 0 0 1 4.844.76c.51.354.957.79 1.324 1.29a9.363 9.363 0 0 1 1.224 3.742c-.695.112-1.325.2-1.95.319a2.91 2.91 0 0 1-1.802.08.166.166 0 0 1-.04-.072 10.122 10.122 0 0 0-.604-2.22c-.183-.439-1.233-.651-1.693-.467a.684.684 0 0 0-.416.794c.08.833.151 1.669.27 2.497.095.662.291 1.31.374 1.971.003.367-.036.733-.115 1.09l1.17.73.633-.268-.412.678a8.931 8.931 0 0 0 2.087 1.625 4.362 4.362 0 0 0 3.154 2.592 4.054 4.054 0 0 1-.697-.875 4.296 4.296 0 0 1-.099-1.214l-.6.638-.534-.738c.476-.19 1.083-.108 1.366-.538h1.569c.404-.76.882 0 1.372-.133.076-.313.16-.707.267-1.095a2.918 2.918 0 0 0-.327-2.548 3.961 3.961 0 0 1-.52-2.745c.15 1.12.518 2.2 1.083 3.178l1.603-9.06h4.976l2.871 16.306 1.98-.836v-.77c.349.316.634.597.943.849a.898.898 0 0 0 1.046.169c.398-.191.33-.51.33-.824.003-1.216.031-2.433-.008-3.648-.028-.875-.14-1.748-.235-2.62-.013-.115-.19-.21-.207-.326-.01-.068.165-.15.222-.246.036-.06.004-.158.008-.239.074-1.252.177-2.502.214-3.755.037-1.27.008-2.54.01-3.81.014-.115.034-.23.063-.341.328 0 .668.008 1.008-.002a13.2 13.2 0 0 0 1.525-.081c.46-.069.825.334 1.292.067l.796 2.135h.684l.023.164-.583.122a.215.215 0 0 0 .003.14c.261.567.211 1.293.86 1.666.07.04.102.189.105.288.185 1.441.58 2.847 1.174 4.173.598 1.791 1.257 3.563 1.893 5.341a.93.93 0 0 0 .311.452V6.06h3.58v25.49h-3.539c-.54-1.489-1.093-3.004-1.642-4.52-.395-1.092-.78-2.186-1.182-3.274a2.168 2.168 0 0 0-.286-.428l.02.021ZM25.448 13.084l-.16.008c-.348 2.234-.699 4.467-1.036 6.703a.758.758 0 0 0 .078.536 1.252 1.252 0 0 1 .278 1.326l.475-.026.565.799c.276-.481.543-.882.739-1.314a1.63 1.63 0 0 0 .162-.851c-.349-2.396-.73-4.788-1.101-7.181ZM11.054 9.602a3.303 3.303 0 0 0 0 5.031V9.602Zm8.094 10.749c.042.744-.385.883-.917.897.573.716.963.86 1.201.417.157-.292.313-.261.528-.312.21-.08.411-.177.603-.294l-1.415-.708ZM39.5 18.614l-.209.062a3.77 3.77 0 0 0 .768 1.887l.152-.057-.71-1.892Zm-.649.835-.179.036.134.639.157-.032-.112-.643Zm-10.654 6.916.19-.117-.257-.387-.151.095.218.41ZM12.48 23.51c.053-.404.053-.405-.301-.418l.3.418Z"/><path fill="#FDFBFB" d="m40.02 31.374-.242-.24.156-.15.221.262-.135.128Zm-.215-1.171.323.243-.213.2-.257-.299.147-.145Zm-6.503-.953-.093.045a.62.62 0 0 1-.005-.122c.002-.018.031-.033.048-.049l.05.126Zm46.162-.058v-.257h.083v.257h-.083Zm-.122-1.525.044.469-.111.034a.946.946 0 0 1-.108-.26.766.766 0 0 1 .064-.252l.11.009Zm-39.447-.685c.037.023.093.039.105.07.011.034-.02.083-.033.125-.035-.02-.094-.034-.1-.06 0-.047.01-.092.028-.135Z"/><path fill="#BE1B1B" d="m28.197 26.365-.218-.409.152-.095.257.387-.19.117Z"/><path fill="#FDFBFB" d="m31.16 25.576.223.903c-.347-.229-.542-.413-.223-.903Zm8.655-.272c.442.441.371.62-.135.788l.135-.788Zm-28.399-.114-.312.58.068-.676.244.095Zm68.783-.136-.089.382-.146-.069.247-.291-.012-.022Z"/><path fill="#FDFBFB" d="M80.21 25.076h.13l-.14-.022.01.022Zm-47.028-.464c.049.094.09.192.123.292.003.012-.116.084-.149.068a.255.255 0 0 1-.124-.16c-.007-.04.066-.093.15-.2Zm33.326.254v-.337l.091-.015.075.323-.166.03Zm-32.058-.317.18-.386.15.055-.156.44-.175-.11Zm5.31-.383-.474.78-.105-.072.331-1.115c.721.229.833.461.556 1.316a3.202 3.202 0 0 1-.075-.43 1.51 1.51 0 0 1 .05-.28l-.283-.198Zm39.677-.748-.064.678-.155-.016.082-.675.137.013Zm-38.328-.09-.098.436-.101.01c-.02-.098-.082-.22-.045-.29.037-.072.172-.092.265-.135l-.021-.021Z"/><path fill="#BE1B1B" d="m12.48 23.51-.301-.42c.354.015.354.015.3.42Z"/><path fill="#FDFBFB" d="M34.814 21.43c-.091.067-.135.119-.19.134-.037.01-.09-.027-.135-.044.025-.06.039-.157.079-.17.05-.016.124.036.246.08Zm29.521-.107-.045.336-.093-.002-.03-.348.168.014Zm16.235.419-.189-.565.164-.028v.616l.025-.023Zm-1.214-1.109v2.057a5.81 5.81 0 0 1-.187-2.061l.187.004Zm-47.013-.876.111.477-.152.03-.112-.518.153.011Zm31.933-.611.312.866c-.477-.139-.712-.378-.312-.866Zm-29.983-.735c.368.456.414.794-.141 1.084-.336-.413-.127-.715.141-1.084ZM20.535 5.373l-.587 4.513c-.508-1.572.295-3.03.409-4.553l.178.04Zm74.658-1.158c.132-.028.265-.05.395-.088.121-.034.238-.084.4-.142v.98l-.438.23.66.963c.815-.225.123-1.018.705-1.317.014.014.08.123.127.115.214-.036.51.051.554-.302-.29.445.194.415.35.475a.849.849 0 0 1 .56.494c.04.097.216.139.332.207.039.833.127 1.663.265 2.485.22.89.506 1.762.857 2.61.327.848.726 1.67 1.156 2.645l2.477-7.223h4.036c-.241.662-.456 1.267-.68 1.868-1.213 3.26-2.42 6.523-3.654 9.776a1.555 1.555 0 0 0 .011 1.232c1.501 3.785 2.991 7.575 4.468 11.37.117.299.226.602.362.967h-4.122l-2.899-7.565-.149-.029-2.822 7.606H94.14c.107-.327.193-.624.3-.913 1.409-3.821 2.82-7.641 4.236-11.46.197-.531.277-1.009-.251-1.394l.006.014a.533.533 0 0 0-.39-.762 5.557 5.557 0 0 0-.664-2.445l-.75.315c0-.456.013-.824-.004-1.19-.013-.48-.05-.96-.113-1.435-.066-.43-.288-.752-.939-.625l.479-.365c-.089-.457-.833-.646-.342-1.363l-1.147-.073c-.254-.268-.496-.562-.778-.81a1.273 1.273 0 0 1-.38-.923 9.7 9.7 0 0 1 .349-3.029c.091-.458.192-.472.844-.649.153-.041.25-.315.498-.173l.178.052-.08-.129Z"/><path fill="#FDFBFB" d="m107.203 20.733.022-.322.112-.003.037.323-.171.002Z"/><path fill="#BE1B1B" d="m19.148 20.35 1.415.71a3.672 3.672 0 0 1-.604.293c-.214.05-.37.02-.527.312-.238.443-.628.3-1.2-.417.531-.014.958-.153.916-.897Zm54.07.446a1.893 1.893 0 0 1 1.313 2.06l-.189-.234-.09.088.34.345.077-.063c.028.07.05.143.068.218a5.623 5.623 0 0 1-.311 3.25 2.268 2.268 0 0 1-2.318 1.545c-.511-.017-1.023-.003-1.594-.003V20.27h1.316l.145 1.055 1.106.321c-.063-.343.592-.448.166-.873l-.03.023Zm1.134 4.543.14-.045-.08-.772-.624.119.564.698Zm-2.479 1.635.018.044c.055-.019.11-.037.163-.06l-.015-.062-.166.078Zm.111-1.108-.172-.058v.399l.104.008.068-.35Zm1.395.874-.035-.065c-.015.019-.047.044-.042.054a.357.357 0 0 0 .06.079l.017-.068Z"/><path fill="#FDFBFB" d="m71.873 26.974.166-.078.015.062c-.053.023-.109.041-.163.06l-.018-.044Z"/><path fill="#BE1B1B" d="m73.247 20.773-.049-.03.02.052.029-.022Z"/><path fill="#FDFBFB" d="m97.634 19.924-.046.76-.102-.002v-.753l.148-.005Zm11.53.057.037-.061a.713.713 0 0 1 .088.09c.006.008-.02.04-.032.06l-.093-.089Zm-29.694-.119-.103.35-.09-.012.036-.403.156.065Zm17.037.194-.16-.537.123-.037.16.537-.123.037Z"/><path fill="#BE1B1B" d="m38.852 19.45.11.642-.156.032-.134-.639.18-.036Zm.648-.836.712 1.892-.152.057a3.77 3.77 0 0 1-.769-1.887l.21-.062Z"/><path fill="#FDFBFB" d="M104.635 18.994c-.078-.703.474-.756.778-1.025l.947.692-1.725.333Zm-6.209-1.189-.054.409-.109-.047.169-.348-.006-.014Zm8.193-.03.369-.332c.01.148-.004.298-.043.442-.028.049-.174.03-.266.042l-.06-.152Zm-27.293-.719c.304.69-.275 1.388.457 1.818l-.457.61v-2.428Zm-64.191.604L15 16.705l.166-.024.057.964-.088.017Zm-1.179-1.325.334.622-.13.095-.697-.99.891-.196.051.119-.449.35Zm83.129-.279-.29-.041.1-.188.227.135-.037.094Zm-82.189-.31.143.094a.99.99 0 0 1-.139.164c-.012.01-.078-.044-.119-.068l.114-.19Zm50.176-.515c.085.028.166.07.237.124.037.039.014.134.024.316l-.36-.296.099-.144ZM15.076 14.9l-.199.534h-.091l.21-.567.08.033Zm91.349-.507c-.094-.085-.179-.135-.213-.208-.016-.032.072-.113.113-.172.083.052.16.11.233.176-.038.072-.082.14-.133.204Zm-27.108-.162-.032-.328.104-.011.04.327-.112.012Zm1.217-.612v.406l-.083.001v-.406l.083-.001Zm-68.184.092-.059.028a.68.68 0 0 1-.022-.107c0-.008.033-.018.05-.027l.031.106Zm2.335-.388c.08 0 .161 0 .242.002v.058c-.076.017-.154.03-.232.044l-.01-.104Zm33.692-.127.023.29-.088.016-.06-.269.125-.037Zm30.905.209-.064-.099c.046-.042.096-.08.149-.114.009.048.034.102.021.143-.01.031-.068.047-.106.07Z"/><path fill="#BE1B1B" d="M25.448 13.084c.371 2.393.752 4.785 1.101 7.18.024.294-.032.588-.162.852-.196.432-.463.833-.739 1.314l-.565-.799-.475.026a1.25 1.25 0 0 0-.278-1.326.758.758 0 0 1-.078-.536c.338-2.236.689-4.469 1.036-6.703l.16-.008Zm.011 7.616c.16.375.236.575.627.326l-.627-.326Z"/><path fill="#FDFBFB" d="M12.82 12.302c-.042.013-.092.045-.124.032-.033-.012-.048-.07-.071-.107.046-.014.096-.043.138-.034.026.006.039.07.057.109Zm21.335-.411.093.099-.143.122c-.021-.044-.064-.093-.056-.13.007-.036.068-.061.106-.09Zm-21.895-.904-.153-.36.123-.044.125.368-.096.036Zm22.307-.742.075.888c-.599-.286-.268-.61-.291-.876l.216-.012Zm60.377.09-.765.237-.055-.164.747-.292.073.22Zm-.952-.259-.078-.187c.056-.016.135-.062.165-.04.047.034.062.113.09.174l-.177.053Z"/><path fill="#BE1B1B" d="M55.504 28.032c.05-1.322.108-2.55.14-3.78.009-.332-.089-.666-.09-.999-.008-2.647-.006-5.294.004-7.94.032-.283.092-.561.18-.83.014-.062.049-.145.023-.184a1.552 1.552 0 0 1 .138-1.843 1.07 1.07 0 0 0 .083-.227c-.793-.618-.237-1.475-.502-2.35l.544.365.33-.278.37.684.683-.314-.751-.342a1.699 1.699 0 0 1 1.922.353 2.315 2.315 0 0 1 .9 1.745c.047 2.563.105 5.126.143 7.689.002.128-.168.252-.201.39-.037.156-.079.388.003.48a1.469 1.469 0 0 1 .24 1.152c-.057 1.319-.106 2.638-.218 3.952-.066.4-.206.783-.414 1.13a2.03 2.03 0 0 1-1.831 1.143c-.51.021-1.022.004-1.696.004Zm3.673-9.399-.16-.007.217.802-.057-.795Zm-3.13.753.247.104.193-.404c-.088-.034-.242-.11-.253-.095a2.758 2.758 0 0 0-.187.395Zm1.039 5.133-.105-.12-.33.312.094.11.34-.302Zm.631-7.075.105.003v-.482l-.08-.003-.025.482Zm1.523-1.694c.08-.074.166-.118.173-.172.006-.05-.066-.135-.121-.156-.034-.012-.139.062-.145.108-.01.057.049.124.093.22Zm-2.104-3.729a.435.435 0 0 0-.107-.02c-.02.002-.037.028-.055.043.022.022.057.068.065.063a.518.518 0 0 0 .097-.086Zm-.83-.89c-.004-.019-.001-.047-.012-.053a.157.157 0 0 0-.064-.005l.014.078.062-.02Zm15.43 4.119-1.218-.101c-.218-.38.19-.518.556-.769l-.615-.215c.4-.485.553-.482 1.042-.241.442.218.805.794 1.427.409a1.958 1.958 0 0 0-.765-1.388c-.535-.252-1.075-.494-1.639-.752V9.764c.768 0 1.543-.034 2.313.013a1.285 1.285 0 0 1 1.05.803 5.347 5.347 0 0 1-.217 5.181 3.08 3.08 0 0 1-.693.641l-.702-.39-.508.59h-1.24l-.05-.788h1.617l.057-1.238-.184-.033-.23.707Z"/><path fill="#FDFBFB" d="M79.418 9.69v1.507l-.416-.216.416-1.29Z"/><path fill="#BE1B1B" d="M11.055 9.602v5.031a3.303 3.303 0 0 1 0-5.031Zm76.441 17.371-.848-.45-1.214.06c-.301.642.517.488.774.836-.396.263-.724.196-.888-.16a4.176 4.176 0 0 1-.514-1.584c-.04-4.673-.032-9.347-.015-14.02a2.058 2.058 0 0 1 2.52-2.201 1.979 1.979 0 0 1 1.521 2.036c-.008 2.755-.043 5.51-.064 8.265-.007.863-.001 1.727-.001 2.534l-1.317 1.228.092-.611a1.742 1.742 0 0 1-1.644.616l-.894 1.087c.547-.052.955.281 1.414-.055.227.273.614.548.047.918l-.993-.536c-.096.144-.194.228-.207.324-.033.245-.13.587-.01.717a.768.768 0 0 0 .713.101 1.76 1.76 0 0 1 1.516.109l.519-.425.217.497-.111.1c-.485-.133-.53-.087-.517.526l-.096.088Zm.26-5.303c-.374-.655-.684.043-1.118-.039.628.565.653.564 1.117.039Zm-1.475.552.072-.092c-.02-.007-.052-.025-.06-.018a.757.757 0 0 0-.074.097l.062.013Zm1.4-4.961.113.046.068-.239-.085-.029-.096.222Zm-1.404.436c-.094.103-.155.146-.148.166.03.068.066.134.109.195l.04-.361Zm1.991 9.29c-.264.383-.52.315-.771-.014l.095-.087.602.016.074.085Z"/><path fill="#FDFBFB" d="m73.378 26.74-.017.068a.36.36 0 0 1-.06-.079c-.004-.01.027-.035.042-.054l.035.065Z"/><path fill="#BE1B1B" d="M88.22 26.26c.19.23.507.453.048.727a4.638 4.638 0 0 0-.075-.085l-.084-.543.111-.1Z"/><path fill="#FDFBFB" d="m88.11 26.359.084.543-.602-.017c-.012-.613.032-.659.517-.526Zm-16.126-.493-.068.349-.104-.008v-.399l.172.058Zm2.368-.527-.564-.698.624-.12.08.773-.14.045Zm-17.266-.82-.34.302-.094-.11.33-.312.104.12Z"/><path fill="#BE1B1B" d="M88.582 25.898c-.06-.405-.133-.808-.176-1.214a3.466 3.466 0 0 0-.198-.884l.483-.538c.109.867.15 1.741.126 2.615l-.235.02Z"/><path fill="#FDFBFB" d="m86.28 22.222-.061-.013a.763.763 0 0 1 .074-.097c.007-.007.039.012.06.018l-.073.092Zm1.476-.552c-.465.525-.49.526-1.118-.039.435.082.745-.616 1.118.04ZM25.46 20.7l.626.326c-.391.25-.468.05-.627-.326Zm30.587-1.314c.052-.136.114-.268.187-.395.01-.016.165.06.253.094l-.193.405-.247-.104Zm3.13-.753.058.795-.219-.802.161.007Zm27.101-.936-.04.36a1.092 1.092 0 0 1-.109-.194c-.007-.02.054-.063.149-.166Zm1.404-.437.096-.22.084.028-.068.239-.112-.046Zm-29.965.184.025-.482.08.003v.482l-.105-.003Zm1.523-1.694c-.044-.096-.103-.163-.094-.22.007-.046.112-.12.145-.108.056.021.128.106.122.155-.007.055-.094.1-.173.173Zm-2.104-3.73a.519.519 0 0 1-.097.087c-.008.005-.043-.04-.065-.063.018-.015.036-.042.055-.043a.444.444 0 0 1 .107.02Zm-.83-.89-.062.021-.014-.078a.157.157 0 0 1 .064.005c.01.005.008.034.012.052Zm22.78-2.24-.101.577c-.117-.172-.09-.363.12-.555l-.02-.022Zm.019.022.295-.463.074.623-.388-.182.019.022ZM40.487 7.104l.03.654-.234.007v-.654l.204-.007Zm-.244-.37-.043-.789.192-.014.056.787-.205.016Zm-29.485-1.67.068-.313a.71.71 0 0 1 .101.164c.006.018-.067.061-.17.15Z"/><path fill="#BE1B1B" d="m95.193 4.215.08.129-.178-.052a.76.76 0 0 1 .098-.077Z"/><path fill="#FDFBFB" d="M37.1 3.693c.114.464.832.617.54 1.414l-.74-1.29.2-.124Zm17.378-.773.926.708-.693.944c-.441-.43-.107-.988-.233-1.651Zm-43.534-.125-.084.323-.112-.02.033-.347.163.044Zm26.202-.255.037.594c-.056.053-.102.125-.127.119-.132-.038-.258-.095-.387-.145l.324-.624.153.056Z"/></g><defs><clipPath id="a"><path fill="#fff" d="M.8 0h112.271v48H.8z"/></clipPath></defs></svg>