<svg width="216" height="48" viewBox="0 0 216 48" fill="none" xmlns="http://www.w3.org/2000/svg">
<path d="M43.9398 23.0809C42.4979 22.9454 41.4726 22.775 41.4056 21.8085C41.3663 21.4798 41.4493 21.148 41.6385 20.8777C41.898 20.6072 42.2104 20.3941 42.5557 20.2521C42.9011 20.1101 43.2718 20.0424 43.6445 20.053C44.1089 19.9894 44.581 20.0869 44.9835 20.3296C45.386 20.5722 45.6951 20.9458 45.8604 21.389L45.9234 21.6764L48.3905 21.5766L48.3371 21.1912C48.1586 20.1123 47.5861 19.1403 46.7328 18.4674C45.8794 17.7946 44.8073 17.4699 43.7285 17.5575C42.9582 17.5352 42.1927 17.687 41.4879 18.002C40.7831 18.317 40.1569 18.7871 39.6549 19.378C39.0839 20.1357 38.8157 21.0827 38.9032 22.031H38.9045C39.1504 25.1506 42.1939 25.4607 43.658 25.6106C44.9089 25.7365 45.9573 25.8973 46.1117 26.5859C46.1393 26.7032 46.1545 26.8232 46.157 26.9438C46.157 28.0013 44.8777 28.6557 43.6926 28.6557C42.6104 28.6557 41.432 28.1027 41.3331 27.178L41.2952 26.6585L38.7759 26.707L38.8138 27.4326C39.0353 28.5465 39.6512 29.5407 40.5459 30.2287C41.4406 30.9168 42.5529 31.2515 43.6743 31.1702C46.1353 31.1702 48.6804 29.5961 48.6804 26.9617C48.6758 26.6542 48.6427 26.3478 48.5815 26.0465C48.0655 23.8837 45.9512 23.3349 43.9398 23.0809Z" fill="white"/>
<path d="M61.4067 23.0433H56.8005V17.7017H54.2939V31.0619H56.8005V25.5567H61.4067V31.0619H63.9299V17.7017H61.4067V23.0433Z" fill="white"/>
<path d="M76.5552 17.5212C75.6686 17.5249 74.7915 17.7054 73.9742 18.0527C73.1569 18.4001 72.4156 18.9073 71.7929 19.5452L71.7908 19.5472C70.5343 20.8323 69.8296 22.566 69.8296 24.3727C69.8296 26.1794 70.5343 27.9133 71.7908 29.1983C72.4133 29.8398 73.1561 30.3494 73.9757 30.6973C74.7953 31.0452 75.6753 31.2243 76.5643 31.2243C77.4533 31.2243 78.3333 31.0452 79.153 30.6973C79.9726 30.3494 80.7154 29.8398 81.3378 29.1983C82.595 27.9127 83.2997 26.1778 83.2991 24.3703C83.2984 22.5627 82.5925 20.8284 81.3344 19.5437C80.7098 18.9038 79.9657 18.3956 79.1454 18.0484C78.325 17.7013 77.4446 17.5221 76.5552 17.5212ZM76.5552 28.6741C75.4372 28.6576 74.3705 28.1971 73.5857 27.3922C72.8008 26.5874 72.3608 25.5027 72.3608 24.3727C72.3608 23.2426 72.8008 22.158 73.5857 21.3531C74.3705 20.5483 75.4372 20.0879 76.5552 20.0714C77.6796 20.0782 78.7556 20.5343 79.5483 21.3403C80.341 22.1462 80.786 23.2363 80.786 24.3727C80.786 25.509 80.341 26.5994 79.5483 27.4053C78.7556 28.2112 77.6796 28.6673 76.5552 28.6741Z" fill="white"/>
<path d="M94.0085 17.6838H89.0742V31.0611H91.5983V26.8423H94.0085C95.1899 26.8113 96.3125 26.3152 97.1372 25.4598C97.9619 24.6044 98.4234 23.4573 98.4234 22.263C98.4234 21.0687 97.9619 19.9215 97.1372 19.0661C96.3125 18.2108 95.1899 17.7148 94.0085 17.6838ZM94.0085 24.3283H91.5983V20.234H94.0085C94.5283 20.2601 95.0183 20.4871 95.3771 20.8682C95.7358 21.2492 95.9359 21.7551 95.9359 22.2811C95.9359 22.8071 95.7358 23.3129 95.3771 23.694C95.0183 24.075 94.5283 24.3022 94.0085 24.3283Z" fill="white"/>
<path d="M113.998 25.8526C113.788 26.5156 113.41 27.1119 112.903 27.5826C112.395 28.0534 111.775 28.3824 111.104 28.5374C110.432 28.6924 109.732 28.6679 109.072 28.4665C108.413 28.265 107.817 27.8935 107.343 27.3885C106.577 26.5824 106.149 25.5083 106.149 24.3908C106.149 23.2733 106.577 22.1991 107.343 21.3929C107.705 21.0008 108.143 20.6877 108.63 20.4729C109.116 20.2581 109.641 20.1461 110.172 20.1439C110.991 20.1097 111.799 20.348 112.471 20.8223C113.143 21.2965 113.642 21.9807 113.893 22.7695L113.975 23.0042H116.46L116.35 22.566C116.037 21.1518 115.252 19.8894 114.127 18.9906C113.002 18.0917 111.606 17.611 110.172 17.6292C109.315 17.6352 108.468 17.8146 107.681 18.1565C106.893 18.4985 106.181 18.9961 105.587 19.6202L105.583 19.6238C104.372 20.9096 103.697 22.617 103.697 24.3923C103.697 26.1676 104.373 27.8746 105.585 29.1599C106.174 29.7911 106.886 30.2936 107.674 30.6361C108.463 30.9787 109.313 31.1542 110.172 31.1518C111.637 31.1582 113.06 30.6546 114.202 29.7258C115.343 28.797 116.133 27.4995 116.44 26.0512L116.548 25.6139H114.079L113.998 25.8526Z" fill="white"/>
<path d="M126.117 17.5212L120.807 31.0614H123.513L123.598 30.8343C123.893 30.0472 124.355 28.9 125.008 27.3319H129.04L130.544 31.0614H133.226L127.915 17.5212H126.117ZM128.085 24.9083H125.951L127.03 21.8469L128.085 24.9083Z" fill="white"/>
<path d="M143.179 17.7019H138.335V31.0614H143.179C144.05 31.094 144.919 30.9431 145.729 30.6182C146.54 30.2932 147.275 29.8014 147.887 29.1741C148.499 28.5467 148.976 27.7976 149.286 26.9742C149.596 26.1507 149.734 25.271 149.69 24.391C149.726 23.5122 149.582 22.6353 149.269 21.8147C148.956 20.994 148.479 20.247 147.869 19.62C147.259 18.993 146.528 18.4993 145.721 18.1694C144.914 17.8394 144.049 17.6803 143.179 17.7019ZM143.179 28.5289H140.84V20.2343H143.179C144.253 20.2557 145.277 20.702 146.029 21.4774C146.781 22.2529 147.203 23.2956 147.203 24.3816C147.203 25.4677 146.781 26.5104 146.029 27.2858C145.277 28.0613 144.253 28.5076 143.179 28.5289Z" fill="white"/>
<path d="M160.689 17.5212H158.891L153.581 31.0614H156.286L156.372 30.8343C156.667 30.0472 157.129 28.9 157.782 27.3319H161.813L163.318 31.0614H166L160.689 17.5212ZM160.859 24.9083H158.725L159.804 21.8469L160.859 24.9083Z" fill="white"/>
<path d="M12.1244 23.8871H2.77431V11.4977H12.5268V8.69385H0V26.6909H12.1244V23.8871Z" fill="white"/>
<path d="M15.5473 8.69385V11.4973H25.5027V15.4081H15.2344V36.5025H10.6258V28.4987H0V39.3059H18.0083V26.6905H25.5026V38.6503H28.2766V8.69385H15.5473ZM7.85195 36.5025H2.77401V31.3021H7.85195V36.5025ZM18.0084 23.8871V18.2115H25.5027V23.8871H18.0084Z" fill="white"/>
<path d="M23.333 30.7144H20.1787V33.9022H23.333V30.7144Z" fill="white"/>
</svg>
