<svg width="216" height="48" viewBox="0 0 216 48" fill="none" xmlns="http://www.w3.org/2000/svg">
<path d="M113.596 38.1062V36.9118H117.873V40.6823C117.262 41.185 116.576 41.588 115.841 41.8766C115.156 42.14 114.428 42.2749 113.694 42.2748C112.754 42.2882 111.826 42.0674 110.991 41.632C110.2 41.2231 109.557 40.5719 109.155 39.7715C108.734 38.928 108.521 37.9943 108.535 37.0498C108.528 36.0879 108.739 35.1372 109.152 34.2706C109.521 33.4529 110.142 32.7789 110.924 32.3504C111.747 31.9218 112.663 31.7071 113.589 31.7258C114.265 31.7157 114.938 31.8377 115.569 32.085C116.111 32.2867 116.59 32.6307 116.956 33.0816C117.326 33.5778 117.589 34.1468 117.729 34.752L116.524 35.0877C116.409 34.6487 116.218 34.2337 115.96 33.8622C115.705 33.5432 115.372 33.2974 114.994 33.1492C114.553 32.9687 114.08 32.8802 113.604 32.889C113.063 32.8768 112.525 32.9732 112.021 33.1726C111.611 33.3356 111.242 33.589 110.942 33.9142C110.675 34.212 110.46 34.5534 110.306 34.9238C110.045 35.5758 109.913 36.2735 109.92 36.9768C109.894 37.7641 110.054 38.5463 110.386 39.259C110.676 39.8517 111.152 40.3309 111.74 40.6224C112.325 40.9185 112.97 41.0718 113.625 41.07C114.206 41.0689 114.781 40.9532 115.319 40.7292C115.774 40.5624 116.198 40.3187 116.573 40.0084V38.1088H113.596V38.1062ZM119.863 42.1082V31.9079H124.338C125.035 31.8773 125.733 31.9707 126.398 32.1839C126.869 32.3702 127.264 32.7111 127.52 33.1519C127.8 33.6157 127.945 34.1493 127.94 34.6923C127.956 35.3686 127.706 36.0236 127.245 36.5138C126.657 37.0678 125.899 37.402 125.098 37.4609C125.389 37.5946 125.661 37.7699 125.904 37.9814C126.328 38.3848 126.701 38.8402 127.013 39.337L128.769 42.1135H127.088L125.752 39.9902C125.36 39.3787 125.038 38.9104 124.786 38.5851C124.598 38.3222 124.37 38.092 124.109 37.9033C123.921 37.7832 123.715 37.6953 123.499 37.643C123.253 37.6052 123.004 37.5896 122.755 37.5963H121.21V42.1264H119.874L119.863 42.1082ZM121.199 36.4096H124.073C124.557 36.4278 125.041 36.3627 125.504 36.2171C125.822 36.1042 126.093 35.8882 126.277 35.6029C126.449 35.3304 126.538 35.013 126.534 34.6897C126.541 34.4653 126.498 34.2422 126.409 34.0366C126.32 33.8309 126.187 33.6478 126.019 33.5005C125.546 33.1491 124.962 32.9835 124.377 33.0347H121.192V36.4174L121.199 36.4096ZM129.621 37.1381C129.537 35.6852 130.022 34.257 130.97 33.1622C131.418 32.6874 131.96 32.314 132.561 32.0665C133.162 31.8189 133.808 31.7027 134.457 31.7258C135.342 31.7133 136.214 31.9465 136.977 32.3998C137.719 32.8436 138.315 33.4991 138.689 34.2837C139.092 35.1379 139.293 36.075 139.276 37.0211C139.294 37.9833 139.082 38.9357 138.659 39.7976C138.275 40.5828 137.662 41.2303 136.903 41.6528C136.152 42.0709 135.308 42.2877 134.452 42.2826C133.554 42.2989 132.67 42.0581 131.903 41.5878C131.164 41.1363 130.572 40.4759 130.201 39.6883C129.817 38.8954 129.618 38.0236 129.621 37.1408V37.1381ZM130.999 37.159C130.94 38.2198 131.292 39.2623 131.98 40.0656C132.291 40.3938 132.663 40.6569 133.074 40.8398C133.486 41.0227 133.929 41.1219 134.379 41.1316C134.829 41.1414 135.276 41.0617 135.695 40.8969C136.114 40.732 136.497 40.4855 136.821 40.1711C136.857 40.1367 136.892 40.1015 136.926 40.0656C137.622 39.2138 137.971 38.1261 137.902 37.0237C137.917 36.2777 137.775 35.5369 137.484 34.851C137.23 34.2586 136.806 33.7566 136.267 33.4095C135.728 33.0646 135.102 32.884 134.464 32.8891C134.013 32.8818 133.564 32.9652 133.145 33.1345C132.725 33.3037 132.343 33.5556 132.021 33.8753C131.638 34.324 131.349 34.8466 131.172 35.4116C130.995 35.9765 130.933 36.5719 130.991 37.1617L130.999 37.159ZM147.621 31.9054H148.957V37.8018C148.987 38.6297 148.87 39.4563 148.612 40.2426C148.371 40.8589 147.934 41.3763 147.369 41.7128C146.651 42.1226 145.834 42.3192 145.01 42.2801C144.209 42.3121 143.413 42.1421 142.693 41.7856C142.11 41.4777 141.654 40.9706 141.406 40.3545C141.116 39.5357 140.985 38.6681 141.02 37.7992V31.9081H142.356V37.7965C142.325 38.4582 142.408 39.1203 142.6 39.7534C142.758 40.1668 143.056 40.5105 143.44 40.724C143.888 40.9639 144.39 41.0814 144.897 41.0648C145.274 41.1026 145.655 41.0621 146.016 40.9457C146.378 40.8294 146.712 40.6398 146.998 40.3883C147.505 39.6231 147.726 38.7011 147.624 37.7863V31.9081L147.621 31.9054ZM151.182 42.1083V31.9081H154.99C155.507 31.8966 156.023 31.9288 156.535 32.0044C156.981 32.0676 157.407 32.2302 157.783 32.4805C158.132 32.7323 158.411 33.0713 158.592 33.4642C158.86 34.0496 158.954 34.701 158.862 35.3393C158.771 35.9777 158.498 36.5755 158.077 37.0602C157.669 37.4037 157.196 37.6605 156.687 37.8152C156.178 37.9699 155.644 38.0193 155.116 37.9605H152.518V42.1083H151.182ZM152.518 36.7558H155.129C155.779 36.8163 156.43 36.644 156.967 36.2691C157.152 36.0949 157.296 35.8817 157.39 35.6447C157.484 35.4077 157.525 35.1528 157.511 34.8979C157.522 34.5069 157.41 34.1224 157.191 33.7998C156.99 33.5043 156.69 33.2912 156.347 33.1988C155.936 33.1229 155.518 33.0923 155.101 33.1076H152.526V36.7505L152.518 36.7558Z" fill="white"/>
<path d="M44.4885 24.5856H49.8954V26.0193H48.0931V30.3935H46.3166V26.022H44.5143V24.5881L44.4885 24.5856ZM50.2843 24.5856H55.0423V25.8267H52.0633V26.7505H54.8261V27.9318H52.0635V29.0768H55.13V30.3935H50.2843V24.5856ZM59.5094 28.0203L61.0543 28.4964C60.9686 28.8962 60.8001 29.2732 60.5599 29.6024C60.3446 29.8927 60.0603 30.1236 59.7334 30.2738C59.3298 30.4382 58.8965 30.5152 58.4616 30.5001C57.9375 30.5197 57.4153 30.4266 56.9296 30.2269C56.4991 30.013 56.1408 29.6754 55.8997 29.2563C55.5937 28.7176 55.4447 28.1024 55.4698 27.4817C55.4435 27.0797 55.4971 26.6763 55.6276 26.2956C55.758 25.9148 55.9626 25.5643 56.2292 25.2647C56.7643 24.8248 57.4179 24.5574 58.105 24.4971C58.7922 24.4368 59.4815 24.5863 60.0836 24.9264C60.5302 25.2673 60.8546 25.746 61.0079 26.29L59.4398 26.6438C59.4029 26.5054 59.3446 26.3737 59.2673 26.2535C59.1727 26.1203 59.0484 26.0115 58.9043 25.9361C58.6633 25.8191 58.389 25.7931 58.1307 25.8627C57.8724 25.9324 57.6472 26.0933 57.496 26.316C57.3077 26.6661 57.2228 27.0634 57.2514 27.4608C57.2062 27.9224 57.3081 28.3865 57.5424 28.7853C57.7463 29.0024 58.0255 29.131 58.3214 29.1441C58.6172 29.1572 58.9066 29.0538 59.1285 28.8556C59.3255 28.6139 59.4561 28.3241 59.507 28.0152L59.5094 28.0203ZM61.5332 24.5856H63.3098V26.6308H65.251V24.5987H67.0354V30.4065H65.251V28.0646H63.3098V30.4065H61.5332V24.5856ZM67.8232 24.5856H69.4814L71.644 27.7992V24.5856H73.3177V30.3935H71.644L69.4917 27.2059V30.3935H67.8208V24.5856H67.8232ZM73.8738 27.492C73.8499 27.0895 73.9058 26.6863 74.0385 26.306C74.1711 25.9257 74.3778 25.576 74.6462 25.2777C74.937 25.0022 75.2812 24.7906 75.6569 24.6563C76.0327 24.5219 76.432 24.4677 76.8295 24.4971C77.2311 24.4708 77.6339 24.5263 78.0138 24.6604C78.3937 24.7945 78.7431 25.0044 79.0412 25.2777C79.3103 25.5687 79.5177 25.9122 79.6506 26.2872C79.7834 26.6622 79.8388 27.0607 79.8136 27.4582C79.8354 28.0346 79.7188 28.6079 79.4737 29.1288C79.2537 29.5571 78.9133 29.9102 78.4953 30.1437C78.0027 30.4006 77.4531 30.5252 76.899 30.5054C76.3463 30.5245 75.7962 30.4177 75.2898 30.1929C74.8567 29.9732 74.4982 29.6282 74.26 29.2016C73.9794 28.6824 73.8424 28.0963 73.8635 27.5051L73.8738 27.492ZM75.6503 27.492C75.6113 27.9384 75.7248 28.3848 75.9721 28.7567C76.0837 28.8739 76.2171 28.9678 76.3646 29.0329C76.5121 29.0981 76.6708 29.1332 76.8317 29.1363C76.9926 29.1395 77.1525 29.1105 77.3024 29.0512C77.4522 28.9918 77.5891 28.9033 77.705 28.7905L77.7384 28.7567C77.9863 28.3533 78.0966 27.8789 78.0525 27.4062C78.0882 26.9797 77.9723 26.5544 77.7256 26.2066C77.6146 26.0809 77.4773 25.9817 77.3236 25.9165C77.1699 25.8512 77.0037 25.8215 76.8372 25.8293C76.674 25.8232 76.5114 25.8546 76.362 25.9213C76.2126 25.9881 76.0802 26.0883 75.9748 26.2144C75.7248 26.5871 75.6101 27.0358 75.6503 27.4842V27.492ZM80.3826 24.5778H82.1591V28.9727H84.9297V30.4038H80.3826V24.5856V24.5778ZM84.9733 27.4842C84.9494 27.0817 85.0055 26.6785 85.1381 26.2982C85.2708 25.9179 85.4773 25.5682 85.7457 25.2699C86.0365 24.9944 86.3807 24.7828 86.7565 24.6485C87.1323 24.5141 87.5316 24.4599 87.9292 24.4893C88.3308 24.463 88.7334 24.5186 89.1133 24.6527C89.4932 24.7868 89.8426 24.9967 90.1407 25.2699C90.4098 25.5609 90.6173 25.9044 90.7501 26.2794C90.8829 26.6544 90.9385 27.0529 90.9133 27.4504C90.9351 28.0268 90.8185 28.6001 90.5734 29.121C90.3534 29.5493 90.013 29.9024 89.595 30.1359C89.1016 30.3932 88.551 30.5178 87.9961 30.4976C87.4433 30.5168 86.8933 30.41 86.3869 30.1853C85.9537 29.9656 85.5951 29.6204 85.357 29.1938C85.0763 28.6746 84.9394 28.0886 84.9605 27.4973L84.9733 27.4842ZM86.7499 27.4842C86.7108 27.9306 86.8244 28.377 87.0717 28.7489C87.2971 28.9856 87.6063 29.1221 87.9312 29.1284C88.2562 29.1347 88.5704 29.0103 88.8046 28.7826L88.838 28.7489C89.086 28.3455 89.1963 27.8711 89.1521 27.3984C89.1879 26.9719 89.0719 26.5466 88.8251 26.1988C88.7141 26.0731 88.5768 25.9739 88.4231 25.9087C88.2695 25.8434 88.1034 25.8137 87.9369 25.8216C87.7736 25.8154 87.6111 25.8468 87.4617 25.9135C87.3122 25.9803 87.1797 26.0805 87.0743 26.2066C86.8243 26.5794 86.7097 27.028 86.7499 27.4764V27.4842ZM94.3736 28.2648V27.0575H97.1182V29.5348C96.6907 29.8462 96.2217 30.095 95.7253 30.2738C95.2592 30.4132 94.7746 30.479 94.2886 30.4689C93.712 30.4923 93.1389 30.3707 92.6203 30.115C92.1888 29.8807 91.8397 29.5171 91.6212 29.0741C91.377 28.5774 91.2552 28.0285 91.2659 27.4739C91.2525 26.8977 91.3864 26.3276 91.6547 25.8189C91.9138 25.3514 92.3119 24.9781 92.7927 24.752C93.2905 24.5435 93.8275 24.4476 94.3658 24.471C94.8467 24.4505 95.3277 24.5094 95.7897 24.6454C96.0889 24.7559 96.3548 24.9423 96.5621 25.1867C96.784 25.4577 96.944 25.7749 97.0307 26.1156L95.3185 26.4226C95.2579 26.2189 95.1309 26.0418 94.9581 25.9204C94.7662 25.7971 94.5415 25.7364 94.3143 25.7461C94.1385 25.7386 93.9634 25.7714 93.8019 25.8422C93.6405 25.9129 93.497 26.0197 93.3823 26.1546C93.1194 26.5338 92.9965 26.9943 93.0348 27.4557C92.9969 27.9325 93.1213 28.408 93.3874 28.8036C93.5107 28.94 93.6624 29.0469 93.8317 29.1167C94.0009 29.1865 94.1834 29.2173 94.3658 29.2069C94.5581 29.2073 94.7492 29.1774 94.9324 29.1184C95.1495 29.0433 95.3576 28.9439 95.5527 28.8218V28.2753H94.3658L94.3736 28.2648ZM97.1902 24.5622H99.1626L100.324 26.5241L101.485 24.5622H103.444L101.209 27.9449V30.3777H99.4303V27.9449L97.1928 24.5622H97.1902ZM106.681 29.1288C106.522 29.3128 106.329 29.4624 106.112 29.5686C105.904 29.6664 105.677 29.7162 105.447 29.7143C105.251 29.723 105.055 29.687 104.874 29.6091C104.693 29.5312 104.532 29.4133 104.402 29.2641C104.201 29.0395 104.089 28.7476 104.088 28.4445C104.087 28.1796 104.178 27.9226 104.345 27.7185C104.557 27.472 104.821 27.2771 105.118 27.1485C104.962 26.9942 104.826 26.8203 104.714 26.6308C104.652 26.5046 104.618 26.3658 104.616 26.2249C104.616 26.0959 104.643 25.9685 104.695 25.8509C104.747 25.7334 104.824 25.6284 104.92 25.5431C105.023 25.4458 105.145 25.3702 105.277 25.3207C105.41 25.2711 105.551 25.2485 105.692 25.2543C105.823 25.2476 105.954 25.2673 106.078 25.3119C106.202 25.3566 106.316 25.4254 106.413 25.5145C106.502 25.5981 106.573 25.6997 106.621 25.8126C106.668 25.9256 106.693 26.0473 106.691 26.1702C106.691 26.5831 106.421 26.9352 105.88 27.2266L106.652 28.2181C106.747 28.0269 106.816 27.8239 106.858 27.6144L107.407 27.7315C107.333 28.0624 107.204 28.3782 107.026 28.6657C107.215 28.9211 107.441 29.1457 107.698 29.3317L107.342 29.7559C107.094 29.5851 106.872 29.3781 106.683 29.1418L106.681 29.1288ZM105.607 26.8649C105.778 26.7775 105.93 26.6553 106.052 26.5059C106.119 26.4052 106.154 26.2863 106.153 26.165C106.155 26.0983 106.144 26.0317 106.121 25.9695C106.097 25.9073 106.06 25.8507 106.014 25.8033C105.968 25.7571 105.914 25.7209 105.854 25.6967C105.795 25.6726 105.731 25.6609 105.666 25.6628C105.601 25.6609 105.535 25.6724 105.474 25.6966C105.413 25.7207 105.358 25.757 105.311 25.8033C105.265 25.847 105.229 25.8998 105.204 25.9585C105.18 26.0172 105.168 26.0805 105.169 26.1442C105.171 26.2182 105.189 26.2909 105.221 26.3575C105.262 26.4418 105.314 26.5206 105.375 26.5917L105.61 26.8677L105.607 26.8649ZM106.348 28.7074L105.38 27.4973C105.158 27.6158 104.962 27.7787 104.804 27.9762C104.711 28.1033 104.659 28.2557 104.654 28.4133C104.663 28.6143 104.737 28.8068 104.863 28.9624C104.93 29.0553 105.019 29.13 105.122 29.1795C105.225 29.229 105.339 29.2518 105.453 29.246C105.627 29.2413 105.797 29.1892 105.944 29.0951C106.108 29.0011 106.248 28.8691 106.351 28.7101L106.348 28.7074ZM108.666 24.5597H113.424V25.801H110.447V26.7246H113.21V27.9321H110.447V29.0769H113.514V30.3936H108.668V24.5857L108.666 24.5597ZM114.477 24.5597H116.135L118.298 27.7733V24.5857H119.971V30.3936H118.298L116.145 27.206V30.3936H114.474V24.5857L114.477 24.5597ZM124.042 28.2625V27.0552H126.784V29.5323C126.356 29.8437 125.887 30.0925 125.391 30.2713C124.925 30.4107 124.44 30.4766 123.954 30.4665C123.378 30.4899 122.804 30.3683 122.286 30.1126C121.854 29.8784 121.505 29.5147 121.287 29.0718C121.047 28.5803 120.926 28.0379 120.934 27.4897C120.921 26.9134 121.055 26.3435 121.323 25.8348C121.582 25.3673 121.98 24.994 122.461 24.7679C122.959 24.5594 123.496 24.4635 124.034 24.4869C124.515 24.4663 124.996 24.5251 125.458 24.6611C125.757 24.7716 126.023 24.958 126.23 25.2024C126.452 25.4734 126.612 25.7906 126.699 26.1313L124.987 26.4385C124.926 26.2348 124.799 26.0577 124.626 25.9362C124.434 25.813 124.21 25.7521 123.983 25.7618C123.807 25.7543 123.632 25.7871 123.47 25.8579C123.309 25.9286 123.165 26.0356 123.051 26.1705C122.788 26.5497 122.665 27.01 122.703 27.4714C122.665 27.9482 122.79 28.4238 123.056 28.8193C123.179 28.9557 123.331 29.0628 123.5 29.1326C123.669 29.2023 123.852 29.233 124.034 29.2226C124.227 29.2231 124.418 29.1933 124.601 29.1342C124.818 29.0592 125.026 28.9596 125.221 28.8375V28.2911H124.034L124.042 28.2625ZM127.904 24.5597H129.688V30.3676H127.909V24.5857L127.904 24.5597ZM130.97 24.5597H132.629L134.791 27.7733V24.5857H136.465V30.3936H134.791L132.639 27.206V30.3936H130.976V24.5857L130.97 24.5597ZM137.644 24.5597H142.402V25.801H139.431V26.7246H142.194V27.9321H139.431V29.0769H142.497V30.3936H137.652V24.5857L137.644 24.5597ZM143.442 24.5597H148.2V25.801H145.229V26.7246H147.992V27.9321H145.229V29.0769H148.296V30.3936H143.45V24.5857L143.442 24.5597ZM149.266 30.3676V24.5857H152.227C152.651 24.5699 153.074 24.6182 153.484 24.7289C153.769 24.818 154.016 25.0012 154.187 25.2493C154.367 25.5277 154.457 25.8561 154.444 26.1887C154.453 26.4712 154.386 26.751 154.25 26.998C154.114 27.245 153.914 27.4501 153.672 27.5913C153.477 27.6998 153.267 27.777 153.049 27.8202C153.212 27.8694 153.369 27.9421 153.512 28.0362C153.617 28.1266 153.713 28.2288 153.795 28.3407C153.893 28.4523 153.979 28.5735 154.053 28.7024L154.913 30.3859H152.904L151.957 28.6112C151.881 28.4413 151.772 28.289 151.635 28.1637C151.507 28.0748 151.355 28.0285 151.2 28.031H151.058V30.3885H149.274L149.266 30.3676ZM151.058 26.938H151.808C151.966 26.9261 152.123 26.9 152.276 26.8599C152.391 26.8371 152.494 26.7724 152.565 26.6779C152.638 26.5818 152.677 26.4635 152.675 26.3422C152.681 26.2612 152.668 26.1799 152.637 26.1049C152.606 26.0299 152.558 25.9632 152.498 25.9102C152.299 25.7879 152.067 25.7349 151.836 25.7593H151.063V26.9406L151.058 26.938ZM155.567 24.5959H157.346V30.4038H155.564V24.5856L155.567 24.5959ZM158.232 24.5959H159.89L162.052 27.8095V24.5856H163.726V30.3935H162.052L159.9 27.2059V30.3935H158.229V24.5856L158.232 24.5959ZM167.395 28.2987V27.0914H170.137V29.5686C169.709 29.88 169.241 30.1288 168.744 30.3076C168.278 30.447 167.793 30.5128 167.307 30.5027C166.731 30.5261 166.158 30.4045 165.639 30.1488C165.208 29.9146 164.859 29.5509 164.64 29.1079C164.396 28.6112 164.274 28.0623 164.285 27.5078C164.271 26.9315 164.405 26.3614 164.674 25.8527C164.933 25.3852 165.331 25.0119 165.812 24.7858C166.309 24.5774 166.846 24.4815 167.385 24.5049C167.866 24.4843 168.347 24.5432 168.809 24.6792C169.108 24.7897 169.374 24.9761 169.581 25.2205C169.803 25.4915 169.963 25.8087 170.05 26.1494L168.337 26.4565C168.277 26.2527 168.15 26.0756 167.977 25.9542C167.785 25.8309 167.56 25.7702 167.333 25.7799C167.157 25.7724 166.982 25.8052 166.821 25.876C166.659 25.9467 166.516 26.0535 166.401 26.1884C166.138 26.5677 166.015 27.0281 166.054 27.4895C166.016 27.9663 166.14 28.4419 166.406 28.8374C166.53 28.9738 166.681 29.0808 166.851 29.1505C167.02 29.2203 167.202 29.2511 167.385 29.2407C167.577 29.2412 167.768 29.2113 167.951 29.1522C168.168 29.0771 168.377 28.9777 168.572 28.8556V28.3091H167.385L167.395 28.2987Z" fill="white"/>
<path d="M140.502 23.2637V16.9485C140.47 15.8535 140.66 14.7633 141.061 13.7452C141.391 12.9351 141.915 12.2202 142.585 11.6636C143.223 11.1618 143.955 10.7953 144.737 10.5863C145.724 10.3203 146.749 10.2218 147.768 10.2949V13.7193H146.653C146.278 13.6882 145.901 13.7327 145.543 13.8501C145.186 13.9676 144.855 14.1557 144.57 14.4036C144.322 14.6999 144.135 15.0429 144.019 15.4126C143.902 15.7824 143.859 16.1716 143.893 16.5581V23.2612H140.502L140.502 23.2637Z" fill="white"/>
<path d="M93.8765 10.2375H95.6195C96.0555 10.2389 96.4731 10.4147 96.7814 10.7262C97.0896 11.0377 97.2634 11.4598 97.2647 11.9004V23.2559H93.8765V10.2375Z" fill="white"/>
<path d="M112.826 23.2142L108.032 6.37851H111.565L114.425 18.2701L116.848 6.37851H120.527L122.904 18.2701L125.478 7.6536C125.546 7.26277 125.76 6.91308 126.075 6.67606C126.39 6.43903 126.782 6.33266 127.172 6.37865H129.304L124.539 23.2142H121.014L118.696 11.5047L116.379 23.2142H112.826Z" fill="white"/>
<path d="M129.709 22.0903C129.005 21.459 128.499 20.6331 128.254 19.7146C127.962 18.7054 127.816 17.6591 127.819 16.6078C127.82 15.7139 127.942 14.8242 128.182 13.9639C128.387 13.1513 128.776 12.3978 129.318 11.7627C130.144 10.7911 131.302 10.1703 132.562 10.0244C133.765 9.83299 134.996 9.94197 136.148 10.3419C137.344 10.805 138.315 11.7179 138.859 12.8892C139.43 14.0599 139.712 15.3527 139.681 16.6572C139.7 17.5649 139.588 18.4706 139.346 19.3451C139.153 20.0238 138.859 20.6686 138.473 21.2576C137.774 22.2795 136.718 22.9955 135.517 23.2613C134.467 23.5532 133.362 23.579 132.299 23.3367C131.344 23.1519 130.452 22.7219 129.709 22.0878V22.0903ZM132.026 13.4747C131.661 13.9445 131.392 14.483 131.235 15.0588C131.077 15.6346 131.035 16.2363 131.11 16.8289C131.061 17.9252 131.348 19.0101 131.931 19.9359C132.201 20.2493 132.554 20.4786 132.948 20.5968C133.421 20.7754 133.939 20.7927 134.423 20.6462C134.984 20.4515 135.457 20.06 135.757 19.5429C136.211 18.6705 136.428 17.6917 136.385 16.7067C136.445 15.7901 136.252 14.8747 135.826 14.0629C135.54 13.5475 135.085 13.149 134.539 12.9361C134.069 12.7733 133.56 12.7642 133.084 12.9101C132.695 13.0138 132.335 13.2072 132.031 13.4749L132.026 13.4747Z" fill="white"/>
<path d="M99.7542 22.0903C99.0501 21.459 98.5443 20.6331 98.2995 19.7146C98.0077 18.7054 97.8611 17.6591 97.8643 16.6078C97.8651 15.7139 97.9874 14.8242 98.2274 13.9639C98.4324 13.1513 98.821 12.3978 99.3628 11.7627C100.189 10.7911 101.348 10.1703 102.607 10.0244C103.81 9.83299 105.042 9.94197 106.194 10.3419C107.389 10.805 108.361 11.7179 108.905 12.8892C109.475 14.0599 109.757 15.3527 109.726 16.6572C109.746 17.5649 109.633 18.4706 109.391 19.3451C109.198 20.0238 108.904 20.6686 108.518 21.2576C107.82 22.2795 106.763 22.9955 105.563 23.2613C104.512 23.5532 103.407 23.579 102.344 23.3367C101.389 23.1519 100.497 22.7219 99.7542 22.0878V22.0903ZM102.072 13.4747C101.706 13.9445 101.437 14.483 101.28 15.0588C101.122 15.6346 101.08 16.2363 101.155 16.8289C101.106 17.9252 101.393 19.0101 101.976 19.9359C102.246 20.2493 102.599 20.4786 102.993 20.5968C103.466 20.7754 103.984 20.7927 104.468 20.6462C105.029 20.4515 105.502 20.06 105.802 19.5429C106.257 18.6705 106.473 17.6917 106.43 16.7067C106.49 15.7901 106.297 14.8747 105.872 14.0629C105.585 13.5475 105.13 13.149 104.584 12.9361C104.114 12.7733 103.605 12.7642 103.13 12.9101C102.74 13.0138 102.38 13.2072 102.076 13.4749L102.072 13.4747Z" fill="white"/>
<path d="M60.9641 6.42786H63.6806L69.7312 23.2634H66.0931L64.9782 19.7897L64.0564 16.9482L61.7392 9.80276L59.4221 16.9482L58.5053 19.7897L57.4395 23.2634H53.7988L59.3215 7.55459C59.4336 7.2097 59.6556 6.912 59.9528 6.70815C60.25 6.50429 60.6056 6.40574 60.9641 6.42786Z" fill="white"/>
<path d="M80.3055 10.2375V23.2481H78.8379C78.4082 23.2299 77.9901 23.1018 77.6227 22.876C76.6655 23.2956 75.633 23.5109 74.5897 23.5084C73.243 23.4563 71.9326 23.0518 70.7868 22.3347C70.145 21.8039 69.6496 21.115 69.3483 20.3341C69.047 19.5533 68.9501 18.7071 69.0668 17.8773V10.2375H72.4552V18.5643C72.428 18.8833 72.475 19.2043 72.5925 19.5016C72.7101 19.7989 72.895 20.0644 73.1323 20.2765C73.5705 20.6307 74.1162 20.8209 74.6771 20.8151C75.2474 20.8197 75.8025 20.63 76.2529 20.2765C76.493 20.0734 76.6819 19.8155 76.8041 19.5242C76.9264 19.2328 76.9783 18.9164 76.9558 18.6008V11.908C76.9521 11.6916 76.9907 11.4766 77.0694 11.2752C77.148 11.0738 77.2651 10.8901 77.414 10.7345C77.5671 10.573 77.7522 10.446 77.9572 10.3617C78.1621 10.2774 78.3824 10.2377 78.6036 10.2453H80.2978L80.3055 10.2375Z" fill="white"/>
<path d="M52.2386 19.2591H54.633C54.3544 20.5034 53.6403 21.604 52.6222 22.3581C51.5317 23.1341 50.219 23.5263 48.8863 23.4744C48.0881 23.5173 47.2907 23.3783 46.5527 23.068C45.8147 22.7577 45.1551 22.284 44.6226 21.6816C43.6277 20.2429 43.0888 18.5325 43.0778 16.7772C43.0668 15.022 43.584 13.3049 44.5608 11.8535C45.0947 11.2528 45.7545 10.7802 46.4921 10.47C47.2297 10.1598 48.0265 10.0199 48.8244 10.0606C49.6472 10.0104 50.4711 10.1402 51.2398 10.441C52.0085 10.7419 52.7039 11.2068 53.2787 11.804C54.3814 13.218 54.9313 14.9925 54.8236 16.7896V17.3101C54.8311 17.4251 54.8143 17.5403 54.7746 17.6483H46.4918C46.4514 18.4549 46.7071 19.2482 47.2101 19.8757C47.4477 20.1342 47.7377 20.3378 48.0603 20.4725C48.3829 20.6072 48.7305 20.6699 49.0793 20.6563C49.5644 20.6718 50.0447 20.5549 50.4697 20.318C50.5669 20.2817 50.6549 20.2239 50.7273 20.1489L50.9846 19.8887C51.0685 19.7317 51.1909 19.5991 51.34 19.5036C51.6009 19.3265 51.9119 19.2407 52.2256 19.2591H52.2386ZM46.4918 15.4834H51.3837C51.3825 14.7795 51.1467 14.0966 50.7143 13.5448C50.4838 13.3118 50.2069 13.1308 49.902 13.0142C49.597 12.8975 49.2709 12.8478 48.9455 12.8682C48.6275 12.8564 48.3105 12.9104 48.0139 13.0267C47.7173 13.143 47.4473 13.3194 47.2204 13.5448C46.736 14.0698 46.4745 14.7657 46.4918 15.4834Z" fill="white"/>
<path fill-rule="evenodd" clip-rule="evenodd" d="M57.4313 23.2638C57.4313 23.2638 60.5467 18.0597 75.3693 15.3223C69.0278 14.9216 57.5214 17.3545 53.7983 23.2638H57.4313Z" fill="white"/>
<path d="M39.2899 22.4673V21.6347C39.035 22.059 38.6986 22.4275 38.3007 22.7184C37.9027 23.0093 37.4511 23.2168 36.9726 23.3287C36.0046 23.5538 34.9912 23.4682 34.0735 23.084C33.0449 22.6449 32.1774 21.8927 31.5915 20.9321C30.8506 19.6855 30.4922 18.2448 30.5616 16.7922C30.4816 15.0635 30.9607 13.3554 31.9262 11.9262C32.4512 11.2797 33.124 10.7722 33.8866 10.4475C34.6493 10.1229 35.4788 9.99099 36.3032 10.0631C37.4708 10.0574 38.6245 10.318 39.6786 10.8255C40.0699 10.4565 40.5827 10.247 41.1179 10.2375H42.5468V22.7874C42.6512 23.6646 42.5242 24.5541 42.1787 25.3657C41.8333 26.1773 41.2817 26.8821 40.5798 27.4087C39.3039 28.2224 37.8247 28.6511 36.316 28.6447C35.0565 28.7644 33.7983 28.4035 32.7887 27.6331C31.7791 26.8626 31.0912 25.7385 30.8603 24.4814H34.3541C34.6367 24.9439 35.051 25.3094 35.5425 25.5299C36.0341 25.7505 36.5801 25.8158 37.1091 25.7174C37.6789 25.5751 38.1843 25.2422 38.5432 24.7728C39.027 24.0977 39.2875 23.2853 39.2873 22.4517L39.2899 22.4673ZM39.2899 16.9248V16.7428C39.2867 16.4143 39.2599 16.0864 39.2101 15.7618C39.1101 15.0462 38.8398 14.3658 38.4223 13.779C38.2154 13.4912 37.9403 13.2605 37.6222 13.1082C37.3041 12.9559 36.9533 12.8868 36.6019 12.9072C36.1565 12.8591 35.7071 12.9491 35.3134 13.1653C34.9197 13.3814 34.6004 13.7133 34.3979 14.1172C34.0016 14.9806 33.8044 15.9238 33.8212 16.8754C33.8212 19.1028 34.4606 20.3362 35.7393 20.5756C36.2453 20.7344 36.7872 20.7341 37.2929 20.5747C37.7987 20.4154 38.2446 20.1044 38.5715 19.6831C38.9135 19.1861 39.1285 18.6113 39.1973 18.01C39.2576 17.6479 39.2902 17.2817 39.295 16.9145L39.2899 16.9248Z" fill="white"/>
<path d="M27.4361 22.8189C26.8415 23.1011 26.2046 23.2814 25.5515 23.3524C24.8905 23.4262 24.2262 23.4661 23.5612 23.472C22.4805 23.4941 21.4218 23.1617 20.5436 22.5248C20.0919 22.1512 19.7383 21.6709 19.5137 21.1263C19.2892 20.5817 19.2008 19.9897 19.2564 19.4024C19.2039 18.8584 19.2834 18.3097 19.488 17.8037C19.6926 17.2978 20.0161 16.8497 20.4304 16.4984C21.7351 15.6766 23.2277 15.2096 24.7636 15.1428C26.1694 14.9476 26.8723 14.5312 26.8723 13.8833C26.8821 13.6619 26.812 13.4444 26.6751 13.2712C26.5383 13.098 26.344 12.9808 26.1282 12.9414C25.6857 12.8043 25.2264 12.7308 24.7636 12.7229C24.3564 12.7174 23.9513 12.7834 23.5664 12.918C23.3945 12.9767 23.2367 13.0715 23.1036 13.1962C22.9705 13.3209 22.8651 13.4726 22.794 13.6414H19.5859C19.6961 12.6726 20.1776 11.786 20.9273 11.172C21.9854 10.3682 23.2934 9.974 24.6142 10.0608C26.0151 9.96417 27.4132 10.2844 28.6359 10.982C29.0791 11.2741 29.44 11.6771 29.6836 12.1517C29.9272 12.6263 30.0453 13.1565 30.0264 13.6908V23.251H28.6617C28.2185 23.2333 27.7914 23.0778 27.4387 22.806L27.4361 22.8189ZM26.9212 16.7431C26.3236 17.0207 25.6977 17.2309 25.0546 17.3701L23.9552 17.6147C23.4946 17.7157 23.0664 17.9312 22.7091 18.2417C22.4974 18.5569 22.381 18.9277 22.3743 19.3086C22.3638 19.5215 22.3965 19.7343 22.4704 19.9339C22.5444 20.1335 22.658 20.3157 22.8042 20.4693C23.1572 20.7511 23.6018 20.8894 24.0505 20.8569C24.4367 20.8894 24.8254 20.8365 25.1894 20.7018C25.5534 20.5672 25.884 20.3541 26.1582 20.0772C26.4324 19.8004 26.6436 19.4663 26.7772 19.0986C26.9107 18.7308 26.9634 18.3382 26.9316 17.9478V16.743L26.9212 16.7431Z" fill="white"/>
<path d="M19.251 23.2298C18.1098 23.2947 16.9655 23.2783 15.8266 23.1804C14.5959 23.0841 13.9814 22.294 13.9832 20.8099V6.5791H15.7082C15.9153 6.57914 16.1201 6.62208 16.3101 6.70533C16.5001 6.78858 16.6712 6.91027 16.8127 7.063C16.9667 7.21319 17.0886 7.39364 17.1709 7.59324C17.2533 7.79284 17.2944 8.00744 17.2917 8.22369V10.4016H19.4183V12.7046H17.2917V19.8917C17.2917 20.4407 17.61 20.7147 18.2468 20.7139H19.2536V23.2301L19.251 23.2298Z" fill="white"/>
<path d="M151.769 10.2373V15.033L155.888 10.2373H159.954L155.471 15.4416L160.003 23.2661H155.935L153.564 18.8608C153.43 18.6109 153.275 18.3732 153.1 18.1505L151.769 19.6857V23.2688H148.381V6.43324H150.124C150.34 6.43042 150.555 6.47228 150.754 6.55641C150.954 6.64053 151.135 6.76515 151.285 6.92243C151.437 7.06739 151.558 7.24189 151.641 7.43555C151.724 7.62921 151.768 7.83789 151.769 8.04902L151.769 10.2373Z" fill="white"/>
<path fill-rule="evenodd" clip-rule="evenodd" d="M166.715 13.3601C166.616 13.1789 166.481 13.0204 166.318 12.8944C165.835 12.5881 165.268 12.4458 164.699 12.4885C164.164 12.4644 163.63 12.5531 163.131 12.7487C162.966 12.8175 162.826 12.9363 162.731 13.0887C162.636 13.2412 162.591 13.4197 162.6 13.5996C162.603 13.7753 162.654 13.9468 162.748 14.0948C162.841 14.2428 162.974 14.3614 163.131 14.4374C163.62 14.7003 164.139 14.9021 164.676 15.0385L167.474 15.8373C168.117 16.0076 168.732 16.2706 169.3 16.6181C169.729 16.8832 170.071 17.2706 170.283 17.7317C170.505 18.302 170.606 18.9125 170.582 19.5245C170.586 20.0816 170.46 20.6318 170.212 21.1295C169.964 21.6272 169.603 22.0582 169.158 22.3869C167.916 23.2327 166.43 23.634 164.936 23.5267C164.096 23.5364 163.26 23.4303 162.449 23.2117C161.765 23.0304 161.12 22.7244 160.546 22.3088C160.032 21.9379 159.612 21.4489 159.322 20.882C159.031 20.3152 158.878 19.6868 158.875 19.0484H162.346C162.334 19.3261 162.394 19.6019 162.519 19.8494C162.644 20.0969 162.83 20.3076 163.059 20.4613C163.611 20.8146 164.257 20.9881 164.91 20.9584C165.473 20.9725 166.033 20.8698 166.555 20.6566C166.752 20.595 166.925 20.4719 167.048 20.305C167.172 20.1381 167.24 19.936 167.243 19.7276C167.257 19.5263 167.217 19.3248 167.126 19.145C167.035 18.9652 166.897 18.8139 166.728 18.7076C166.244 18.4443 165.723 18.2591 165.183 18.1586C164.16 17.9449 163.156 17.6517 162.178 17.2817C161.537 17.0449 160.938 16.7048 160.404 16.2746C160.016 15.9587 159.721 15.5422 159.549 15.0698C159.397 14.5971 159.322 14.1022 159.328 13.6049C159.326 13.1261 159.428 12.6527 159.627 12.2179C159.842 11.7604 160.167 11.3643 160.571 11.0653C161.079 10.6968 161.65 10.4258 162.255 10.2663C163.084 10.0482 163.938 9.94673 164.794 9.9646C166.222 9.8427 167.646 10.2423 168.808 11.0912C169.239 11.4884 169.585 11.9703 169.825 12.5071C170.066 13.044 170.195 13.6246 170.206 14.2138H168.072C167.79 14.2172 167.514 14.1415 167.273 13.9949C167.032 13.8483 166.836 13.6366 166.707 13.3838L166.715 13.3601Z" fill="white"/>
<path d="M169.163 9.12417V7.09979H168.448V6.68604H170.368V7.09979H169.655V9.12417H169.163H169.163ZM170.672 9.12417V6.68604H171.398L171.836 8.34885L172.268 6.68604H173V9.12417H172.546V7.20389L172.068 9.12417H171.604L171.128 7.20389V9.12417H170.672H170.672Z" fill="white"/>
<path d="M169.163 9.12417V7.09979H168.448V6.68604H170.368V7.09979H169.655V9.12417H169.163H169.163ZM170.672 9.12417V6.68604H171.398L171.836 8.34885L172.268 6.68604H173V9.12417H172.546V7.20389L172.068 9.12417H171.604L171.128 7.20389V9.12417H170.672H170.672Z" fill="white"/>
<path d="M169.163 9.12417V7.09979H168.448V6.68604H170.368V7.09979H169.655V9.12417H169.163H169.163ZM170.672 9.12417V6.68604H171.398L171.836 8.34885L172.268 6.68604H173V9.12417H172.546V7.20389L172.068 9.12417H171.604L171.128 7.20389V9.12417H170.672H170.672Z" fill="white"/>
<path d="M169.163 9.12417V7.09979H168.448V6.68604H170.368V7.09979H169.655V9.12417H169.163H169.163ZM170.672 9.12417V6.68604H171.398L171.836 8.34885L172.268 6.68604H173V9.12417H172.546V7.20389L172.068 9.12417H171.604L171.128 7.20389V9.12417H170.672H170.672Z" fill="white"/>
<path d="M93.8765 6.43091H95.6195C96.0559 6.43228 96.4739 6.60829 96.7822 6.92037C97.0905 7.23246 97.264 7.65522 97.2647 8.09623V9.12401H93.8765V6.43091Z" fill="white"/>
<path d="M93.8765 6.43091H95.6195C96.0559 6.43228 96.4739 6.60829 96.7822 6.92037C97.0905 7.23246 97.264 7.65522 97.2647 8.09623V9.12401H93.8765V6.43091Z" fill="white"/>
<path d="M93.8765 6.43091H95.6195C96.0559 6.43228 96.4739 6.60829 96.7822 6.92037C97.0905 7.23246 97.264 7.65522 97.2647 8.09623V9.12401H93.8765V6.43091Z" fill="white"/>
<path d="M93.8765 6.43091H95.6195C96.0559 6.43228 96.4739 6.60829 96.7822 6.92037C97.0905 7.23246 97.264 7.65522 97.2647 8.09623V9.12401H93.8765V6.43091Z" fill="white"/>
<path d="M89.8676 6.36038H91.5154C91.7344 6.35899 91.9512 6.40468 92.1514 6.4944C92.3516 6.58412 92.5306 6.71577 92.6766 6.88074C92.982 7.18336 93.1561 7.59614 93.1607 8.02835V23.248H91.7137C91.2085 23.2341 90.7222 23.0511 90.3311 22.7276C89.2455 23.2439 88.0601 23.5105 86.8604 23.5082C86.021 23.5092 85.1873 23.3684 84.3938 23.0918C83.6294 22.8484 82.9544 22.38 82.455 21.7466C81.4478 20.3062 80.9524 18.5636 81.0493 16.8025C80.9609 15.0424 81.4554 13.3028 82.455 11.8586C83.115 10.9689 84.0617 10.3401 85.1316 10.0807C86.2015 9.82131 87.3275 9.94756 88.3151 10.4378C88.9408 10.8139 89.47 11.3336 89.8599 11.9549V6.36038H89.8676ZM84.3473 16.6387C84.2794 17.6866 84.534 18.73 85.0761 19.6259C85.3093 19.9609 85.6227 20.2308 85.9869 20.4105C86.3511 20.5903 86.7542 20.6739 87.159 20.6537C87.5564 20.67 87.9514 20.5843 88.3071 20.4046C88.6628 20.2248 88.9676 19.957 89.1931 19.6259C89.6981 18.7166 89.9332 17.6795 89.8703 16.6387C89.9225 15.6551 89.6685 14.6796 89.1442 13.8492C88.898 13.5316 88.5808 13.2776 88.2188 13.1075C87.8568 12.9375 87.4602 12.8563 87.0613 12.8708C86.672 12.8599 86.2863 12.9485 85.9398 13.1281C85.5933 13.3078 85.2971 13.5728 85.0787 13.8987C84.5464 14.7073 84.2896 15.6693 84.3473 16.6387Z" fill="white"/>
<path d="M9.44926 10.3807C9.44289 10.3483 9.43067 10.3175 9.41318 10.2896L9.39514 10.2454L9.37201 10.1933L9.34887 10.1491C9.2775 10.009 9.19113 9.87727 9.09136 9.75619C8.99629 9.63765 8.88836 9.53025 8.76954 9.4361C8.49039 9.22539 8.17137 9.0749 7.83231 8.99381C7.39325 8.88655 6.94257 8.83577 6.49092 8.84281C4.64236 8.84281 3.718 9.47252 3.71793 10.7319C3.71527 10.9421 3.76205 11.15 3.8544 11.3383C3.9565 11.5345 4.09965 11.7058 4.27399 11.8404C4.50393 12.017 4.757 12.1607 5.02586 12.2673C5.39042 12.4151 5.76573 12.5342 6.14844 12.6237C6.66338 12.7468 7.15086 12.8665 7.61088 12.9827C8.0709 13.099 8.48971 13.2109 8.86731 13.3184C9.25181 13.426 9.62088 13.5421 9.97447 13.667C10.3281 13.7919 10.6653 13.9247 10.9863 14.0652C11.3491 14.2157 11.6943 14.4059 12.0161 14.6325C12.1797 14.747 12.3323 14.8767 12.4719 15.0201C12.613 15.1649 12.7406 15.3226 12.8529 15.4912C12.9709 15.6692 13.0735 15.8572 13.1593 16.0531C13.2529 16.2666 13.3311 16.4867 13.3936 16.7115C13.4639 16.9673 13.5139 17.2283 13.543 17.4922C13.5771 17.7997 13.5934 18.109 13.5919 18.4185C13.5937 18.8038 13.5514 19.188 13.4657 19.5634C13.3844 19.9154 13.2572 20.2549 13.0873 20.573C12.9224 20.8817 12.7246 21.1713 12.4977 21.4368C12.2666 21.7038 12.0077 21.9446 11.7253 22.1551C11.4357 22.3734 11.1261 22.5633 10.8008 22.7224C10.4568 22.8903 10.0994 23.0287 9.73238 23.1361C9.34876 23.2519 8.95722 23.3389 8.56092 23.3964C8.15228 23.4537 7.74018 23.4824 7.32762 23.4822C6.27275 23.4974 5.2202 23.3794 4.19425 23.131C3.37596 22.9363 2.60511 22.576 1.92844 22.0719C1.32664 21.6093 0.846607 21.0043 0.530444 20.3102C0.194698 19.5441 0.0142882 18.7177 0 17.8799V17.7628H3.52734V17.8747C3.52967 18.2491 3.61783 18.6178 3.78485 18.9519C3.95578 19.2793 4.20111 19.5611 4.50065 19.7742C4.82847 20.0098 5.19442 20.186 5.58206 20.2947C6.01695 20.4172 6.46676 20.4768 6.91822 20.4715C7.38656 20.4779 7.85415 20.429 8.31126 20.3258C8.66458 20.2481 9 20.1034 9.29985 19.8991C9.54582 19.7307 9.7481 19.5049 9.88951 19.2408C10.0229 18.9759 10.0901 18.6819 10.0852 18.3847C10.0856 18.2629 10.0778 18.1412 10.0621 18.0205C10.0473 17.9078 10.0241 17.7963 9.99251 17.6873C9.96209 17.5854 9.91784 17.4882 9.86114 17.3985C9.79878 17.3032 9.72533 17.2158 9.64232 17.1382C9.54624 17.0468 9.44096 16.9656 9.32822 16.8962C9.19318 16.8126 9.05207 16.7396 8.90601 16.6777C8.72608 16.6024 8.54201 16.5373 8.35491 16.4826C8.14549 16.4202 7.91213 16.3603 7.65467 16.3031C7.03331 16.1712 6.45394 16.0385 5.91668 15.9049C5.37943 15.7713 4.88335 15.6361 4.42849 15.4991C3.62326 15.2717 2.85748 14.9206 2.15772 14.4582C1.87342 14.261 1.61391 14.0294 1.38519 13.7686C1.16539 13.5198 0.980891 13.2413 0.836841 12.9411C0.686152 12.6203 0.577964 12.2809 0.515021 11.9316C0.441464 11.523 0.406066 11.1083 0.4094 10.693C0.409128 10.3558 0.441049 10.0195 0.504693 9.68856C0.566539 9.3658 0.660566 9.05025 0.785338 8.74665C0.901799 8.44605 1.05305 8.16044 1.23591 7.89575C1.43308 7.62576 1.66024 7.37948 1.91301 7.1619C2.18022 6.93209 2.47008 6.73067 2.77808 6.56082C3.10775 6.37861 3.45234 6.22535 3.80799 6.10281C4.20932 5.96745 4.62218 5.8699 5.04129 5.81139C5.51558 5.74483 5.99404 5.71276 6.47288 5.71522C6.9518 5.71323 7.43014 5.74622 7.90434 5.81403C8.33401 5.87464 8.7578 5.97213 9.17109 6.10546C9.55407 6.22892 9.9255 6.38651 10.2809 6.57641C10.6162 6.75639 10.9328 6.97 11.2258 7.21395C11.7957 7.68741 12.2532 8.28409 12.5646 8.96C12.7241 9.30513 12.8476 9.6661 12.9328 10.0372C13.0212 10.4251 13.073 10.8208 13.0873 11.2186V11.3356H11.3108C10.9283 11.3528 10.5458 11.3027 10.1803 11.1874C10.0043 11.1206 9.84634 11.0127 9.7193 10.8725C9.59227 10.7323 9.49968 10.5638 9.44926 10.3807Z" fill="white"/>
</svg>
