<svg xmlns="http://www.w3.org/2000/svg" viewBox="0 0 49.3 25.9"><path fill="#A2A3A7" d="m5.5 1.1-1.4 4a17.1 17.1 0 0 0-.9 3c-.2-.9-.5-1.9-.8-3l-1.3-4H0L2.6 9h1.1l2.8-7.9zM9 9.2a4.14 4.14 0 0 0 1.9-.4l-.2-.7a3.23 3.23 0 0 1-1.6.3 1.81 1.81 0 0 1-1.9-2h4v-.5a2.45 2.45 0 0 0-2.3-2.7c-1.7 0-2.7 1.4-2.7 3.1A2.65 2.65 0 0 0 9 9.2zM8.8 4c1.2 0 1.4 1 1.4 1.7h-3A1.6 1.6 0 0 1 8.8 4zm3.3 5.1h1V5.6a1.41 1.41 0 0 1 1.4-1.3h.4v-1h-.3A1.81 1.81 0 0 0 13 4.5V3.4h-.9zm3.5-5.7h1v5.7h-1zm.5-1.1a.68.68 0 0 0 .7-.7.7.7 0 0 0-1.4 0c.1.4.3.7.7.7zm2 6.8h1V4.2h1.4v-.8h-1.4v-.3c0-.9.2-1.6 1.1-1.6.3 0 .5.1.7.1l.1-.8a2 2 0 0 0-.9-.2 2.39 2.39 0 0 0-1.4.5 2.72 2.72 0 0 0-.7 2v.3h-.8v.8h.8zM22 2.3a.68.68 0 0 0 .7-.7.7.7 0 0 0-1.4 0 .68.68 0 0 0 .7.7zm-.5 1.1h1v5.7h-1zm4.7 5.8a4.14 4.14 0 0 0 1.9-.4l-.2-.7a3.23 3.23 0 0 1-1.6.3 1.81 1.81 0 0 1-1.9-2h4v-.5a2.45 2.45 0 0 0-2.3-2.7c-1.7 0-2.7 1.4-2.7 3.1a2.7 2.7 0 0 0 2.8 2.9zM26 4c1.2 0 1.4 1 1.4 1.7h-3A1.73 1.73 0 0 1 26 4zm5.5 5.2a2.1 2.1 0 0 0 1.9-1.1v1h.9V.7h-1v3.4a1.89 1.89 0 0 0-1.7-.9c-1.4 0-2.6 1.2-2.6 3.1.1 1.7 1.2 2.9 2.5 2.9zm.3-5.1a1.51 1.51 0 0 1 1.5 1.2v1.8a1.49 1.49 0 0 1-1.5 1.2c-1.1 0-1.7-1-1.7-2.1s.7-2.1 1.7-2.1zm7.4 4a2.06 2.06 0 0 0 1.9 1.1c1.3 0 2.6-1 2.6-3.1 0-1.7-1-2.9-2.4-2.9a2 2 0 0 0-1.9 1V.7h-1v8.4h.9zm.1-2.3c0-.2 0-.3.1-.4A1.69 1.69 0 0 1 41 4.1c1.1 0 1.7 1 1.7 2.1 0 1.3-.6 2.2-1.7 2.2a1.71 1.71 0 0 1-1.6-1.2V5.8zm7.6.9c-.1.4-.3.8-.4 1.2a8.4 8.4 0 0 0-.4-1.2l-1.2-3.4h-1.1l2.1 5.3a.37.37 0 0 1 .1.3c0 .1 0 .1-.1.2a3.78 3.78 0 0 1-.9 1.2 2 2 0 0 1-.9.5l.3.9a2.08 2.08 0 0 0 1.3-.7c.7-.6 1.2-1.6 2-3.6l1.6-4.1h-1.1zm-7.8 6.5a1.29 1.29 0 0 0-1.3.9l-4.6 11h3.2l.6-1.8h3.9l.4 1.8h2.8l-2.4-11.9zm-1.2 7.7 1.6-4.5.9 4.5zM29 16.5c0-.4.4-.9 1.3-1a5.45 5.45 0 0 1 3 .5l.5-2.5a7.56 7.56 0 0 0-2.9-.5c-3 0-5.2 1.6-5.2 3.9 0 1.7 1.5 2.7 2.7 3.2s1.6 1 1.6 1.5c0 .8-1 1.1-1.8 1.2a8 8 0 0 1-3.2-.7l-.6 2.6a9.43 9.43 0 0 0 3.4.6c3.2 0 5.3-1.6 5.3-4.1.2-3.1-4.1-3.3-4.1-4.7zm-11.6-3.3-3.2 8.1-1.3-6.9a1.46 1.46 0 0 0-1.4-1.2H6.3l-.1.3a10.54 10.54 0 0 1 3 1c.5.2.6.5.7 1l2.4 9.5h3.2l5-11.9zm4.5 0-2.5 11.9h3.1L25 13.2z"/></svg>