<svg xmlns="http://www.w3.org/2000/svg" width="160" height="38" fill="none" viewBox="0 0 160 38"><g fill="#000" clip-path="url(#a)"><path fill-rule="evenodd" d="M17.94 1.04c9.93 0 17.942 8.05 17.942 17.941 0 9.892-8.012 17.978-17.941 17.978C8.01 36.96 0 28.91 0 18.981c0-9.93 8.049-17.94 17.94-17.94Zm0 3.423c8.05 0 14.556 6.507 14.556 14.556a14.54 14.54 0 0 1-7.221 12.562c.903-3.16 1.279-6.394 1.128-10.118.94.264 1.467.414 2.408.715-1.091-2.746-2.257-5.228-3.8-7.748-1.353 2.595-3.196 5.04-5.04 6.958l3.01-.188c-2.596 4.626-6.244 6.883-10.87 7.523-1.053-5.229-.263-13.766 5.642-17.753l.602 2.858c1.165-1.843 3.422-4.287 5.115-5.98a16.034 16.034 0 0 0-8.764-.827c.49.413 1.09.94 1.58 1.354C9.629 11.195 5.98 15.822 3.573 21.2a14.178 14.178 0 0 1-.15-2.181c0-8.05 6.506-14.556 14.518-14.556Z" clip-rule="evenodd"/><path d="M51.904 27.707v.79h-2.106V30h2.332v.79h-3.235v-5.228h3.197v.79H49.76v1.316c.715.038 1.43.038 2.144.038Zm-6.657 3.046H42.05v-5.19h.903v4.4h2.331c-.037.264-.037.527-.037.79Zm17.113-5.152-1.203 1.391c-.15-.075-.301-.113-.452-.188l.452-1.203h1.203Zm2.144.94c-.113.075-.188.226-.188.489 0 .451.15.602.564.677l.828.075c.827.075 1.316.527 1.316 1.43v.3c0 .226-.037.452-.113.64a1.027 1.027 0 0 1-.338.451c-.188.15-.414.188-.64.226a4.552 4.552 0 0 1-.714.037h-1.693v-.902h2.069c.376 0 .602-.076.564-.64 0-.263-.075-.414-.15-.489-.113-.075-.264-.113-.452-.15l-.865-.075c-.3-.038-.64-.113-.865-.339-.226-.226-.376-.564-.376-1.128v-.264c.038-.564.226-.902.564-1.09.339-.188.79-.226 1.241-.226h1.542v.903h-1.654c-.301 0-.527 0-.64.075Zm10.494 4.212v-5.19h2.256c.188 0 .452.075.677.226.226.15.377.413.377.827v.64c0 .45-.226.677-.377.827.15.113.377.376.377.79v.827c0 .564-.49 1.053-1.054 1.053h-2.256Zm2.332-2.181c-.038-.038-.15-.113-.226-.113h-1.241v1.467h1.241c.075 0 .15-.038.226-.113.037-.037.075-.113.075-.226v-.79c.037-.037 0-.15-.075-.225Zm.037-2.106a.341.341 0 0 0-.263-.113h-1.241v1.316h1.279c.075 0 .15-.037.225-.113a.406.406 0 0 0 .113-.263v-.602c-.038-.037-.075-.15-.113-.225Zm32.534 1.24h2.107v.79h-2.107v1.505h2.332v.79h-3.197v-5.228h3.197v.79h-2.332v1.354Zm-4.927 3.047h-2.896v-5.19h.903v4.4h1.993v.79Zm-6.356-4.363h-1.316v4.363h-.903V26.39h-1.317v-.79h3.536v.79Zm-7.033 0h-1.317v4.363h-.903V26.39H88.05v-.79h3.535v.79Zm-9.065 3.273-.263 1.128h-.94l1.429-5.19h1.166l1.429 5.19h-.94l-.301-1.128h-1.58Zm.188-.79h1.129l-.565-2.257-.564 2.257ZM58.825 26.39h-1.317v4.363h-.902V26.39h-1.317v-.79h3.536v.79ZM45.774 11.421l1.278 7.297h2.859l3.16-11.472h-2.784l-1.73 7.447-1.204-7.447h-3.159l-1.204 7.447-1.73-7.447h-2.783l3.16 11.472h2.858l1.279-7.297Zm9.064 7.297.527-2.37h2.896l.526 2.37h2.596l-3.16-11.472h-2.858l-3.122 11.472h2.595Zm1.993-8.651.978 4.325h-1.955l.977-4.325Zm8.35 4.363h1.58l1.542 4.288h2.858l-2.03-4.777c.864-.3 1.429-1.053 1.429-1.956V9.428c0-1.054-.715-1.843-1.655-2.069-.602-.15-1.204-.113-1.843-.113h-4.326v11.472h2.445V14.43Zm0-4.965h2.069c.451 0 .865.226.865.752v1.129c0 .564-.376.827-.865.827h-2.07V9.465Zm12.713 9.365c1.203 0 1.918-.338 2.52-.79v-6.092H76.54v2.181h1.43v2.182a4.63 4.63 0 0 1-.753.075h-.978c-1.392 0-1.73-.978-1.73-2.031v-2.859c0-1.09.489-1.88 1.805-1.88h3.912V7.17h-4.062c-2.257 0-3.874 1.354-4.1 3.686 0 .188-.037.376-.037.564v3.31c0 2.407 1.654 4.1 3.911 4.1h1.956Zm5.905-.112.527-2.37h2.896l.526 2.37h2.595L87.184 7.246h-2.858l-3.122 11.472h2.595Zm1.956-8.651.978 4.325h-1.956l.978-4.325Zm14.105 1.617v7.034h2.369V7.246h-3.085l-2.294 8.538-2.256-8.538h-3.085v11.472h2.332v-7.034l1.768 7.034h2.482l1.768-7.034Zm6.844 7.034V7.246h-2.444v11.472h2.444Zm10.494 0V7.246h-2.369v6.845l-3.686-6.845h-2.407v11.472h2.331v-6.846l3.724 6.846h2.407Zm24.41 0V7.246h-2.369v6.845l-3.686-6.845h-2.407v11.472h2.331v-6.846l3.724 6.846h2.407Zm8.726-7.034h-4.401V9.465h4.852V7.246h-7.296v11.472h7.296v-2.22h-4.852v-2.632h4.401v-2.182ZM160 9.465V7.246h-7.974v2.22h2.784v9.252h2.445V9.465H160Zm-35.505 9.365c1.203 0 1.918-.338 2.52-.79v-6.092h-3.874v2.181h1.429v2.182a4.635 4.635 0 0 1-.752.075h-.978c-1.392 0-1.73-.978-1.73-2.031v-2.859c0-1.09.489-1.88 1.805-1.88h3.912V7.17h-4.062c-2.257 0-3.874 1.354-4.1 3.686 0 .188-.038.376-.038.564v3.31c0 2.407 1.655 4.1 3.912 4.1h1.956Z"/><path fill-rule="evenodd" d="M128.971 16.574h2.369v2.332h-2.369v-2.332Z" clip-rule="evenodd"/></g><defs><clipPath id="a"><path fill="#000" d="M0 .972h160v36.056H0z"/></clipPath></defs></svg>